<svg width="90" height="90" viewBox="0 0 90 90" fill="none" xmlns="http://www.w3.org/2000/svg">
    <circle cx="45" cy="45" r="40" stroke="url(#paint0_linear_245_46)" stroke-width="10"/>
    <circle cx="45" cy="45" r="40" stroke="black" stroke-opacity="0.05" stroke-width="10"/>
    <path d="M45 85C22.9086 85 5 67.0914 5 45C5 22.9086 22.9086 5 45 5C67.0914 5 85 22.9086 85 45C85 52.103 83.1486 58.7736 79.902 64.5556"
          stroke="url(#paint1_linear_245_46)" stroke-width="10"/>
    <path d="M45 85C22.9086 85 5 67.0914 5 45C5 22.9086 22.9086 5 45 5C67.0914 5 85 22.9086 85 45C85 52.103 83.1486 58.7736 79.902 64.5556"
          stroke="black" stroke-opacity="0.2" stroke-width="10"/>
    <defs>
        <linearGradient id="paint0_linear_245_46" x1="45" y1="0" x2="45" y2="90" gradientUnits="userSpaceOnUse">
            <stop stop-color="#FBFBFB"/>
            <stop offset="1" stop-color="white"/>
        </linearGradient>
        <linearGradient id="paint1_linear_245_46" x1="45" y1="5" x2="45" y2="85" gradientUnits="userSpaceOnUse">
            <stop stop-color="#2EAEB7"/>
            <stop offset="1" stop-color="#89F7FF"/>
        </linearGradient>
    </defs>
</svg>
