<svg width="74" height="48" fill="none" xmlns="http://www.w3.org/2000/svg"><path d="M34.2 27.747h-.318l-.04-.022a1.201 1.201 0 01-.585-.258 3.141 3.141 0 01-.421-.397c-.222-.263-.426-.543-.637-.823a5.215 5.215 0 00-.63-.734 1.647 1.647 0 00-.791-.409 5.695 5.695 0 00-.54-.078c-.301-.017-.603-.022-.904-.034a5.764 5.764 0 01-.932-.09c-.557-.111-.938-.43-1.114-.962a4.685 4.685 0 01-.17-.689c-.075-.392-.132-.79-.2-1.187-.102-.6-.403-1.064-.938-1.383-.028-.017-.062-.04-.09-.056-.313-.18-.626-.353-.945-.532a4.683 4.683 0 01-.716-.482c-.426-.363-.568-.823-.477-1.36.045-.274.13-.538.216-.8.125-.37.25-.734.363-1.11a1.786 1.786 0 00-.17-1.472c-.068-.123-.136-.246-.216-.364-.182-.286-.37-.566-.551-.851-.182-.291-.341-.594-.404-.935a1.324 1.324 0 01.017-.515 1.84 1.84 0 01.472-.779c.261-.263.534-.515.801-.772.2-.196.398-.398.586-.61.176-.202.301-.443.347-.706.028-.196.05-.398.045-.6-.017-.397-.062-.8-.09-1.198a3.748 3.748 0 01.01-.873c.063-.42.273-.75.643-.974.097-.056.193-.112.29-.152.176-.072.358-.134.54-.19.386-.117.773-.224 1.16-.33a1.994 1.994 0 001.358-1.187c.142-.33.284-.667.427-.997.108-.252.233-.504.386-.733.324-.488.79-.684 1.37-.644.245.016.483.061.722.106.404.073.802.162 1.211.235.5.084.972.006 1.393-.291.21-.146.41-.302.614-.46.221-.173.432-.352.653-.525.24-.185.49-.348.78-.448.29-.101.573-.101.858 0 .216.072.42.179.596.319.256.19.5.397.757.593.227.174.454.353.688.521.42.297.898.38 1.404.291.409-.067.813-.157 1.222-.235.352-.067.705-.129 1.063-.09.295.034.563.14.767.353.12.123.233.258.319.409.13.224.238.453.34.689.143.313.274.632.416.952.25.576.688.951 1.296 1.136.005 0 .017.006.023.006.34.095.682.19 1.017.29.307.09.608.18.887.331.477.252.716.644.762 1.165.034.38-.006.75-.04 1.125-.029.33-.068.661-.063.997.006.454.142.851.45 1.187.17.19.352.37.534.543.261.252.528.499.784.756a1.856 1.856 0 01.458.723c.035.11.048.182.048.298 0 .036-.001.115-.004.15l-.013.167a1.825 1.825 0 01-.267.695c-.17.29-.364.57-.54.856a19.92 19.92 0 00-.364.6 1.745 1.745 0 00-.165 1.416c.097.325.205.644.313.963.12.353.25.706.295 1.075.052.437-.05.829-.375 1.148-.13.129-.278.252-.432.347-.295.185-.608.353-.915.532-.222.135-.45.263-.66.409-.38.258-.62.616-.733 1.058-.102.392-.153.795-.216 1.193-.05.319-.108.633-.216.935-.176.487-.517.795-1.029.918-.33.079-.665.095-1.006.107-.432.01-.864.005-1.29.078-.324.05-.626.162-.87.38a3.496 3.496 0 00-.404.415c-.227.28-.437.571-.653.857-.182.24-.376.476-.609.672-.176.145-.37.257-.597.313l-.136.034h-.318c-.091-.023-.182-.04-.268-.062-.352-.09-.676-.246-1.006-.403-.278-.129-.557-.263-.841-.386a2.087 2.087 0 00-.824-.19c-.319 0-.614.083-.893.207-.335.145-.66.308-.99.464-.295.135-.59.27-.914.33-.051.006-.108.023-.17.034zm2.962-3.035c6.077-.005 11-4.832 11.005-10.823C48.173 7.842 43.2 3.043 37.18 3.038c-6.077-.012-11.006 4.826-11.017 10.817-.017 5.93 4.855 10.84 11 10.857z" fill="#1C2D3C"/><path fill-rule="evenodd" clip-rule="evenodd" d="M37.09 23.476c5.406 0 9.789-4.298 9.789-9.6 0-5.301-4.383-9.6-9.789-9.6s-9.788 4.299-9.788 9.6c0 5.302 4.382 9.6 9.788 9.6zm.682-11.76c.214-.253.358-.545.442-.894a2.09 2.09 0 00.078-.831c-.028-.36-.13-.692-.373-.973a.931.931 0 00-.442-.292c-.294-.089-.57-.032-.827.125-.265.16-.45.392-.597.653a2.37 2.37 0 00-.299.976c-.033.39.013.765.19 1.122.103.214.256.381.46.501.205.12.428.143.655.088.299-.07.523-.247.713-.474zm-2.84 1.274c.226-.265.375-.57.47-.915a2.378 2.378 0 00-.005-1.318 1.41 1.41 0 00-.405-.66.916.916 0 00-.618-.24c-.304-.003-.56.128-.778.323a2.13 2.13 0 00-.573.887 2.58 2.58 0 00-.144 1.02c.022.372.125.712.358 1.007a.959.959 0 00.454.332c.276.095.538.054.79-.074a1.47 1.47 0 00.451-.363zm-.775 4.3a38.47 38.47 0 00-.528-.104 1.235 1.235 0 01-.628-.298 1.33 1.33 0 01-.395-1.3c.073-.34.24-.629.498-.866a.778.778 0 01.223-.142 14.605 14.605 0 001.236-.608c.087-.046.173-.093.256-.144.28-.176.56-.358.836-.54.123-.082.242-.172.36-.26l.09-.067c.069-.05.14-.103.204-.158a.524.524 0 01.207-.102c.235-.064.471-.07.704 0 .203.061.383.172.53.332.156.173.253.372.31.593.14.545.274 1.089.366 1.644.087.512.158 1.03.227 1.546.043.325-.024.634-.158.931-.1.221-.24.42-.425.575-.486.41-1.036.556-1.656.34a1.254 1.254 0 01-.468-.302c-.362-.364-.762-.679-1.244-.878a6.564 6.564 0 00-.391-.14l-.154-.053zm4.73-2.32c.096-.342.227-.632.42-.891.12-.164.252-.319.39-.466.067-.07.144-.13.222-.189L40 13.36a1.7 1.7 0 01.48-.266c.304-.11.612-.154.919 0a.76.76 0 01.3.305c.125.21.146.437.138.674-.016.378-.146.72-.322 1.05-.16.299-.367.558-.608.796a2.328 2.328 0 01-.506.372c-.248.135-.515.222-.806.194-.373-.035-.6-.246-.715-.587a1.41 1.41 0 01-.03-.728c.007-.063.021-.127.03-.172l.004-.016.003-.011zm2.05-3.451a2.627 2.627 0 01-.894 1.366c-.147.12-.305.22-.48.294-.297.13-.605.184-.924.083a.848.848 0 01-.482-.394 1.189 1.189 0 01-.149-.685c.015-.312.106-.604.255-.875a2.537 2.537 0 011.022-1.036c.252-.137.52-.217.809-.201.32.015.573.148.74.431.13.221.164.462.15.71-.007.084-.022.167-.034.234a.96.96 0 00-.013.073z" fill="#1C2D3C"/><path d="M.534 43.017a.493.493 0 01-.39-.165.568.568 0 01-.144-.405v-1.601c0-.168.048-.3.145-.395a.546.546 0 01.4-.142h.39c.385-.65.641-1.411.767-2.28.134-.87.2-1.872.2-3.005v-.976c0-.175.049-.31.145-.406.097-.095.234-.142.412-.142h4.128c.17 0 .304.047.4.142.105.096.157.23.157.406v6.26H7.7c.17 0 .304.048.4.143a.53.53 0 01.145.395v1.6a.568.568 0 01-.145.406.493.493 0 01-.389.165.527.527 0 01-.4-.165.568.568 0 01-.145-.405V41.23H1.079v1.217a.544.544 0 01-.155.405.493.493 0 01-.39.165zM6.01 34.41H2.938v.548c0 1.214-.075 2.248-.223 3.103-.148.855-.393 1.605-.734 2.248h4.028V34.41zm5.685 6.896c-.534 0-1.005-.113-1.413-.34a2.362 2.362 0 01-.934-.964c-.216-.424-.323-.914-.323-1.47 0-.562.107-1.052.323-1.469.222-.424.534-.749.934-.976.408-.226.88-.34 1.413-.34.534 0 1.002.114 1.402.34.408.227.72.552.935.976.223.417.334.907.334 1.47 0 .555-.111 1.045-.334 1.469a2.273 2.273 0 01-.935.965c-.4.226-.868.34-1.402.34zm0-.877c.497 0 .876-.16 1.135-.482.267-.322.4-.793.4-1.415 0-.613-.133-1.081-.4-1.403-.267-.329-.645-.493-1.135-.493s-.868.164-1.135.493c-.267.322-.4.79-.4 1.404 0 .62.13 1.092.39 1.414.266.322.648.482 1.145.482zm9.096-4.66c.178 0 .319.048.423.143a.508.508 0 01.156.395v4.473a.486.486 0 01-.145.362.516.516 0 01-.378.142.54.54 0 01-.379-.142.5.5 0 01-.144-.373l.01-3.168-1.346 2.445a.636.636 0 01-.211.23.57.57 0 01-.29.077.591.591 0 01-.3-.077.636.636 0 01-.211-.23L16.628 37.6l.012 3.168a.482.482 0 01-.156.373.502.502 0 01-.367.142.516.516 0 01-.379-.142.486.486 0 01-.144-.362v-4.44a.57.57 0 01.144-.406.527.527 0 01.4-.164.85.85 0 01.38.076c.11.052.203.154.277.307l1.692 3.136 1.647-3.08a.974.974 0 01.278-.34.66.66 0 01.378-.1zm5.823.395c.103-.146.204-.248.3-.307a.747.747 0 01.39-.087c.177 0 .318.05.422.153a.508.508 0 01.156.395v4.43a.55.55 0 01-.145.394.53.53 0 01-.39.142.555.555 0 01-.389-.142.553.553 0 01-.144-.395v-3.486l-2.67 3.65a.896.896 0 01-.312.297.78.78 0 01-.367.077.629.629 0 01-.423-.143.53.53 0 01-.156-.395v-4.44c0-.154.048-.282.145-.384a.546.546 0 01.4-.153c.156 0 .282.05.378.153.104.102.156.23.156.384v3.453l2.649-3.596zm5.651 2.15c.26.087.468.211.623.372.164.16.356.431.579.811l.6.998a.572.572 0 01.079.274.49.49 0 01-.167.373.581.581 0 01-.39.142c-.193 0-.348-.094-.467-.285l-.779-1.315c-.178-.293-.348-.49-.512-.592-.155-.11-.385-.165-.69-.165h-.534v1.831a.497.497 0 01-.155.384.586.586 0 01-.412.142.586.586 0 01-.412-.142.514.514 0 01-.144-.384v-4.451c0-.168.048-.3.144-.395a.586.586 0 01.412-.142c.17 0 .308.05.412.153a.495.495 0 01.155.384v1.776h.635L32.976 36c.127-.146.267-.22.423-.22.126 0 .234.044.323.132a.415.415 0 01.145.318.577.577 0 01-.145.373l-1.458 1.71zm6.51 2.916a.603.603 0 01-.423-.143.509.509 0 01-.156-.395V36.45c0-.168.048-.303.145-.405a.527.527 0 01.4-.165h1.992c.601 0 1.068.117 1.402.351.341.234.512.574.512 1.02 0 .263-.078.508-.234.734-.155.227-.393.391-.712.494.341.066.608.208.801.427.193.212.29.486.29.823 0 .263-.074.511-.223.745-.148.227-.374.41-.679.548-.304.14-.678.209-1.123.209h-1.992zm1.813-3.092c.29 0 .52-.07.69-.209a.696.696 0 00.256-.57c0-.467-.326-.701-.979-.701H39.32v1.48h1.268zm.023 2.313c.697 0 1.046-.26 1.046-.778 0-.27-.097-.472-.29-.603-.193-.132-.46-.198-.8-.198H39.32v1.58h1.29zm6.366 2.566a.493.493 0 01-.39-.165.568.568 0 01-.144-.405v-1.601c0-.168.048-.3.144-.395a.546.546 0 01.401-.142h.39c.385-.65.641-1.411.767-2.28.134-.87.2-1.872.2-3.005v-.976c0-.175.049-.31.145-.406.097-.095.234-.142.412-.142h4.128c.17 0 .304.047.4.142.104.096.156.23.156.406v6.26h.557c.17 0 .304.048.4.143a.53.53 0 01.145.395v1.6a.568.568 0 01-.145.406.493.493 0 01-.39.165.527.527 0 01-.4-.165.567.567 0 01-.145-.405V41.23h-6.086v1.217a.544.544 0 01-.156.405.492.492 0 01-.39.165zm5.474-8.607h-3.07v.548c0 1.214-.075 2.248-.223 3.103-.149.855-.393 1.605-.735 2.248h4.028V34.41zm5.686 6.896c-.534 0-1.005-.113-1.413-.34a2.362 2.362 0 01-.935-.964c-.215-.424-.322-.914-.322-1.47 0-.562.107-1.052.322-1.469.223-.424.534-.749.935-.976.408-.226.879-.34 1.413-.34s1.002.114 1.402.34c.408.227.72.552.935.976.222.417.334.907.334 1.47 0 .555-.112 1.045-.334 1.469a2.273 2.273 0 01-.935.965c-.4.226-.868.34-1.402.34zm0-.877c.497 0 .875-.16 1.135-.482.267-.322.4-.793.4-1.415 0-.613-.133-1.081-.4-1.403-.267-.329-.645-.493-1.135-.493s-.868.164-1.135.493c-.267.322-.4.79-.4 1.404 0 .62.13 1.092.389 1.414.267.322.649.482 1.146.482zm9.096-4.66c.178 0 .319.048.423.143a.508.508 0 01.155.395v4.473a.486.486 0 01-.144.362.516.516 0 01-.379.142.54.54 0 01-.378-.142.5.5 0 01-.145-.373l.012-3.168-1.347 2.445a.637.637 0 01-.211.23.57.57 0 01-.29.077.592.592 0 01-.3-.077.636.636 0 01-.211-.23L63.07 37.6l.011 3.168a.481.481 0 01-.155.373.501.501 0 01-.367.142.516.516 0 01-.379-.142.486.486 0 01-.144-.362v-4.44a.57.57 0 01.144-.406.527.527 0 01.4-.164.85.85 0 01.38.076c.11.052.203.154.277.307l1.692 3.136 1.646-3.08a.976.976 0 01.278-.34.66.66 0 01.379-.1zm6.367 4.112c.104 0 .19.04.256.12.067.081.1.183.1.308 0 .212-.133.39-.4.537a3.54 3.54 0 01-.857.34 3.45 3.45 0 01-.879.12c-.86 0-1.54-.244-2.036-.734-.497-.497-.746-1.173-.746-2.029 0-.548.108-1.034.323-1.458a2.44 2.44 0 01.924-.986c.4-.234.853-.351 1.357-.351.727 0 1.302.23 1.725.69.423.46.634 1.082.634 1.864 0 .293-.133.439-.4.439H70.16c.074 1.133.627 1.7 1.658 1.7.275 0 .512-.037.712-.11.2-.074.412-.169.634-.285.023-.015.082-.044.178-.088a.616.616 0 01.256-.077zm-1.936-3.322c-.43 0-.775.135-1.034.406-.26.27-.416.65-.468 1.14h2.871c-.022-.497-.152-.877-.39-1.14-.23-.27-.556-.406-.979-.406z" fill="#1C2D3C"/><path d="M.327 48a.177.177 0 01-.13-.05.172.172 0 01-.046-.128v-.526c0-.057.016-.103.047-.136a.15.15 0 01.12-.055h.084c.11-.159.19-.347.236-.567.046-.22.07-.505.07-.859v-.315c0-.058.017-.103.05-.137a.18.18 0 01.14-.055H2.06a.19.19 0 01.14.05c.037.034.055.08.055.137v1.746h.158a.19.19 0 01.139.05c.037.033.055.08.055.137v.53a.172.172 0 01-.046.128.168.168 0 01-.13.05.177.177 0 01-.13-.05.172.172 0 01-.046-.128v-.425H.504v.425a.163.163 0 01-.051.128.162.162 0 01-.126.05zm1.558-2.535h-.839v.214c0 .67-.099 1.145-.297 1.426h1.136v-1.64zm2.172.265c0 .478-.05.846-.153 1.105a1.07 1.07 0 01-.491.576.201.201 0 01-.08.013.168.168 0 01-.115-.04.141.141 0 01-.042-.106c0-.03.008-.06.023-.087a.156.156 0 01.07-.064.693.693 0 00.26-.255c.065-.107.11-.248.134-.425.028-.18.042-.417.042-.713v-.37a.19.19 0 01.05-.142.19.19 0 01.14-.05h1.229a.19.19 0 01.139.05c.037.034.055.08.055.137v1.883a.165.165 0 01-.055.128.183.183 0 01-.135.05.183.183 0 01-.134-.05.172.172 0 01-.051-.128v-1.777h-.886v.265zm3.865 1.69a.2.2 0 01-.139-.046.184.184 0 01-.05-.137v-.676h-.288a.602.602 0 00-.32.082.818.818 0 00-.236.242l-.302.457c-.043.061-.097.092-.162.092a.182.182 0 01-.125-.05.155.155 0 01-.056-.12c0-.03.012-.065.037-.105l.195-.306c.065-.1.136-.184.213-.25a.63.63 0 01.246-.133c-.21-.03-.362-.102-.454-.215a.606.606 0 01-.14-.398c0-.219.07-.388.21-.507.141-.118.33-.178.565-.178h.797a.19.19 0 01.14.05.177.177 0 01.05.133v1.882a.183.183 0 01-.05.137.177.177 0 01-.13.046zm-.19-1.97h-.514c-.164 0-.29.036-.38.106-.09.07-.135.175-.135.315 0 .15.048.256.144.32.099.06.225.091.38.091h.505v-.831zm3.187 1.947a.207.207 0 01-.144-.05.178.178 0 01-.051-.133v-1.85c0-.058.017-.103.05-.137a.18.18 0 01.14-.055h.802c.247 0 .439.047.575.142.136.094.204.236.204.425a.53.53 0 01-.097.306.57.57 0 01-.297.21.552.552 0 01.33.173.495.495 0 01.124.348c0 .103-.03.202-.088.297a.616.616 0 01-.269.233c-.123.06-.278.091-.463.091h-.816zm.77-1.265c.13 0 .234-.032.315-.096a.333.333 0 00.12-.27c0-.213-.15-.32-.45-.32H11.1v.686h.588zm.008.99c.319 0 .478-.12.478-.36a.306.306 0 00-.139-.274.687.687 0 00-.38-.091H11.1v.726h.598zm2.702-2.005c.566 0 .849.293.849.878v1.242c0 .055-.017.1-.051.133a.168.168 0 01-.13.05.183.183 0 01-.135-.05.178.178 0 01-.05-.133v-.22a.669.669 0 01-.27.307.815.815 0 01-.417.105.94.94 0 01-.403-.087.717.717 0 01-.288-.242.592.592 0 01-.106-.343c0-.167.043-.296.13-.388.086-.094.228-.161.426-.2a4.13 4.13 0 01.825-.065h.102v-.15c0-.183-.038-.317-.116-.403-.074-.085-.196-.128-.366-.128-.21 0-.423.057-.64.17-.083.051-.142.077-.176.077a.12.12 0 01-.092-.04.151.151 0 01-.038-.106c0-.043.013-.08.038-.11a.47.47 0 01.13-.1c.107-.061.23-.108.366-.142a1.62 1.62 0 01.412-.055zm-.153 2.02a.6.6 0 00.454-.183.662.662 0 00.181-.48v-.132h-.083a3.96 3.96 0 00-.621.036c-.143.022-.245.06-.306.114-.06.052-.088.13-.088.233 0 .12.043.218.13.297a.49.49 0 00.333.115zm2.245.26a.208.208 0 01-.143-.046.183.183 0 01-.051-.137V45.31a.18.18 0 01.05-.132.183.183 0 01.135-.05.19.19 0 01.14.05.178.178 0 01.05.132v1.796h.876V45.31c0-.054.016-.099.047-.132a.183.183 0 01.134-.05.19.19 0 01.14.05.178.178 0 01.05.132v1.796h.877V45.31a.18.18 0 01.05-.132.183.183 0 01.135-.05c.056 0 .1.016.134.05a.178.178 0 01.052.132v1.896a.184.184 0 01-.047.142.19.19 0 01-.139.05h-2.49zm5.303-2.152a.3.3 0 01.097-.091.25.25 0 01.12-.028.18.18 0 01.14.055.184.184 0 01.055.137v1.924a.172.172 0 01-.05.128.177.177 0 01-.13.05.188.188 0 01-.13-.05.182.182 0 01-.052-.128v-1.595l-1.219 1.663a.245.245 0 01-.209.11.206.206 0 01-.143-.05.184.184 0 01-.056-.137v-1.924c0-.051.017-.094.051-.128a.184.184 0 01.135-.054.17.17 0 01.13.054.172.172 0 01.05.128v1.572l1.21-1.636zm3.33 1.869a.18.18 0 01.055.132.161.161 0 01-.051.12.167.167 0 01-.12.05.182.182 0 01-.135-.065l-.751-.845-.747.845a.182.182 0 01-.134.064.182.182 0 01-.125-.05.166.166 0 01-.051-.123c0-.046.018-.089.055-.128l.77-.854-.737-.827a.196.196 0 01-.056-.128c0-.05.017-.09.051-.124a.176.176 0 01.12-.05c.05 0 .095.022.135.064l.719.813.718-.813a.181.181 0 01.135-.064c.046 0 .086.017.12.05a.161.161 0 01.051.12.18.18 0 01-.055.132l-.738.827.77.854zm3.102-1.384c0 .478-.05.846-.152 1.105-.1.259-.263.45-.492.576a.2.2 0 01-.079.013.168.168 0 01-.116-.04.141.141 0 01-.041-.106c0-.03.007-.06.023-.087a.158.158 0 01.07-.064.693.693 0 00.259-.255c.065-.107.11-.248.134-.425.028-.18.042-.417.042-.713v-.37a.19.19 0 01.051-.142.19.19 0 01.14-.05h1.228a.19.19 0 01.139.05c.037.034.056.08.056.137v1.883a.165.165 0 01-.056.128.183.183 0 01-.135.05.183.183 0 01-.134-.05.172.172 0 01-.051-.128v-1.777h-.886v.265zm4.176 1.699c-.303 0-.547-.091-.732-.274-.182-.186-.286-.437-.31-.754h-.455v.84a.178.178 0 01-.051.133.194.194 0 01-.134.046.194.194 0 01-.135-.046.178.178 0 01-.051-.132v-1.933c0-.054.017-.099.051-.132a.183.183 0 01.134-.05c.056 0 .1.016.135.05a.178.178 0 01.05.132v.8h.46c.03-.308.137-.55.32-.727.182-.176.422-.265.718-.265.214 0 .4.048.557.142a.91.91 0 01.366.402c.087.174.13.378.13.612 0 .235-.043.439-.13.612a.913.913 0 01-.366.402 1.062 1.062 0 01-.557.142zm-.004-.306c.222 0 .39-.072.5-.215.115-.146.172-.358.172-.635 0-.274-.057-.484-.172-.63-.114-.146-.28-.22-.496-.22-.216 0-.383.074-.5.22-.115.146-.172.356-.172.63 0 .277.056.489.167.635.114.143.281.215.5.215zm2.986.306a.996.996 0 01-.621-.187 1.081 1.081 0 01-.353-.48 1.875 1.875 0 01-.106-.64c0-.359.03-.651.092-.877.065-.225.156-.4.274-.525.117-.125.269-.228.454-.31.099-.046.249-.098.45-.156.216-.064.39-.125.524-.183a.215.215 0 01.088-.018c.046 0 .083.015.111.046.028.027.042.06.042.1 0 .03-.01.061-.028.092a.21.21 0 01-.084.068c-.074.043-.156.08-.245.11-.087.03-.198.065-.334.105-.213.067-.34.108-.38.123a.892.892 0 00-.464.347c-.108.159-.165.383-.171.672a.905.905 0 01.862-.553c.284 0 .516.094.695.283.183.19.274.47.274.84 0 .208-.043.398-.13.572a.99.99 0 01-.37.416 1.061 1.061 0 01-.58.155zm0-.306c.24 0 .417-.084.528-.251a1.04 1.04 0 00.167-.58c0-.256-.057-.456-.171-.599a.577.577 0 00-.483-.22.667.667 0 00-.407.124.71.71 0 00-.242.31.99.99 0 00-.078.389c0 .232.054.428.162.59.108.158.283.237.524.237zm3.576-1.878a.301.301 0 01.097-.091.25.25 0 01.12-.028.18.18 0 01.14.055.184.184 0 01.055.137v1.924a.172.172 0 01-.18.178.188.188 0 01-.13-.05.182.182 0 01-.051-.128v-1.595l-1.22 1.663a.245.245 0 01-.208.11.206.206 0 01-.144-.05.184.184 0 01-.056-.137v-1.924c0-.051.017-.094.051-.128a.185.185 0 01.135-.054.17.17 0 01.13.054.172.172 0 01.05.128v1.572l1.21-1.636zm3.584-.118a.19.19 0 01.14.05.174.174 0 01.055.137v1.932a.172.172 0 01-.05.128.17.17 0 01-.126.046.187.187 0 01-.13-.046.181.181 0 01-.046-.128l.004-1.484-.64 1.178a.176.176 0 01-.069.073.197.197 0 01-.2 0 .187.187 0 01-.064-.073l-.645-1.178.005 1.484a.172.172 0 01-.051.128.17.17 0 01-.125.046.187.187 0 01-.13-.046.181.181 0 01-.046-.128v-1.928a.19.19 0 01.05-.137.18.18 0 01.14-.054c.092 0 .16.04.204.123l.765 1.416.755-1.407c.047-.088.115-.133.204-.133zm1.435 2.27a.207.207 0 01-.143-.05.178.178 0 01-.051-.133V45.31a.18.18 0 01.05-.132.19.19 0 01.14-.05c.055 0 .1.016.134.05a.177.177 0 01.051.132v.658h.343c.575 0 .863.232.863.694a.679.679 0 01-.126.416.73.73 0 01-.329.242 1.153 1.153 0 01-.422.078h-.51zm1.934.023a.194.194 0 01-.135-.046.178.178 0 01-.05-.132v-1.933c0-.054.016-.099.05-.132a.183.183 0 01.135-.05.19.19 0 01.139.05.177.177 0 01.05.132v1.933a.177.177 0 01-.05.132.2.2 0 01-.14.046zm-1.484-.302a.716.716 0 00.39-.105c.114-.07.171-.185.171-.347 0-.164-.05-.275-.153-.333a.809.809 0 00-.408-.087h-.273v.872h.273zm4.588-.004c.037.036.055.08.055.132a.161.161 0 01-.05.12.166.166 0 01-.121.05.182.182 0 01-.135-.065l-.75-.845-.747.845a.182.182 0 01-.135.064.182.182 0 01-.125-.05.166.166 0 01-.05-.123c0-.046.018-.089.055-.128l.77-.854-.738-.827a.196.196 0 01-.055-.128c0-.05.017-.09.05-.124a.177.177 0 01.121-.05c.05 0 .094.022.135.064l.718.813.719-.813a.182.182 0 01.134-.064c.047 0 .087.017.12.05a.161.161 0 01.052.12.18.18 0 01-.056.132l-.737.827.77.854zm2.662.306a.201.201 0 01-.139-.046.178.178 0 01-.05-.132v-1.878a.19.19 0 01.05-.142.19.19 0 01.14-.05h1.553a.19.19 0 01.139.05c.037.034.055.08.055.137v1.883a.177.177 0 01-.05.132.194.194 0 01-.135.046.201.201 0 01-.14-.046.178.178 0 01-.05-.132v-1.777h-1.187v1.777a.178.178 0 01-.051.132.194.194 0 01-.135.046zm4.375-2.175a.3.3 0 01.097-.091.251.251 0 01.12-.028.18.18 0 01.14.055.184.184 0 01.055.137v1.924a.171.171 0 01-.05.128.177.177 0 01-.13.05.188.188 0 01-.13-.05.182.182 0 01-.051-.128v-1.595l-1.22 1.663a.245.245 0 01-.208.11.206.206 0 01-.144-.05.184.184 0 01-.056-.137v-1.924c0-.051.017-.094.051-.128a.185.185 0 01.135-.054.17.17 0 01.13.054.171.171 0 01.05.128v1.572l1.21-1.636zm2.165 2.175a.194.194 0 01-.134-.046.178.178 0 01-.051-.132v-1.777h-.663a.152.152 0 01-.111-.042.141.141 0 01-.042-.105c0-.042.014-.077.042-.105a.152.152 0 01.111-.04h1.697c.046 0 .083.013.111.04a.141.141 0 01.042.105.141.141 0 01-.042.105.152.152 0 01-.111.042h-.658v1.777a.17.17 0 01-.056.132.193.193 0 01-.135.046zm2.682.009c-.214 0-.402-.047-.566-.142a.971.971 0 01-.375-.402 1.374 1.374 0 01-.13-.612c0-.231.043-.434.13-.607a.965.965 0 01.375-.407c.164-.094.352-.142.566-.142.213 0 .401.048.565.142.164.094.29.23.376.407a1.3 1.3 0 01.134.607c0 .232-.044.436-.134.612a.934.934 0 01-.376.402 1.112 1.112 0 01-.565.142zm0-.306c.222 0 .392-.072.51-.215.12-.146.18-.358.18-.635 0-.27-.06-.48-.18-.626-.12-.149-.29-.224-.51-.224-.22 0-.39.075-.51.224-.12.147-.181.355-.181.626 0 .274.059.484.176.63.12.147.292.22.515.22zm4.115-1.996a.19.19 0 01.14.05.178.178 0 01.055.137v1.932a.172.172 0 01-.051.128.17.17 0 01-.125.046.187.187 0 01-.13-.046.182.182 0 01-.046-.128l.004-1.484-.64 1.178a.176.176 0 01-.07.073.196.196 0 01-.2 0 .187.187 0 01-.063-.073l-.645-1.178.005 1.484a.172.172 0 01-.051.128.17.17 0 01-.125.046.187.187 0 01-.13-.046.181.181 0 01-.047-.128v-1.928a.18.18 0 01.19-.192c.093 0 .161.042.204.124l.766 1.416.755-1.407c.047-.088.115-.133.204-.133zm3.3 2.873a.168.168 0 01-.13-.05.172.172 0 01-.047-.128v-.425H66.45a.207.207 0 01-.143-.046.183.183 0 01-.051-.137V45.31c0-.054.016-.099.05-.132a.19.19 0 01.14-.05c.055 0 .1.016.134.05a.178.178 0 01.051.132v1.796h1.127V45.31a.18.18 0 01.05-.132.19.19 0 01.14-.05c.055 0 .1.016.134.05a.178.178 0 01.051.132v1.796h.158c.062 0 .11.016.144.05.034.033.05.08.05.137v.53a.172.172 0 01-.046.128.162.162 0 01-.125.05zm2.69-1.12c.034 0 .063.014.088.042a.151.151 0 01.037.105c0 .076-.054.146-.162.21a1.477 1.477 0 01-.352.146c-.124.03-.245.046-.362.046-.35 0-.626-.102-.83-.306-.2-.204-.301-.486-.301-.845 0-.229.044-.43.134-.603a.995.995 0 01.932-.558c.294 0 .527.095.7.284.173.188.26.444.26.767 0 .061-.013.105-.037.133-.025.027-.065.04-.12.04h-1.494c.028.525.28.786.756.786.12 0 .224-.015.31-.045.087-.034.18-.078.279-.133a.444.444 0 01.162-.068zm-.811-1.475a.641.641 0 00-.478.183c-.117.122-.187.294-.209.516h1.313c-.007-.225-.064-.397-.172-.516-.108-.122-.26-.183-.454-.183zm2.064 1.992a.207.207 0 01-.143-.05.178.178 0 01-.051-.133v-1.85c0-.058.017-.103.05-.137a.18.18 0 01.14-.055h.802c.247 0 .439.047.575.142.136.094.204.236.204.425a.53.53 0 01-.098.306.57.57 0 01-.296.21.548.548 0 01.329.173.495.495 0 01.125.348c0 .103-.03.202-.088.297a.614.614 0 01-.27.233c-.123.06-.277.091-.463.091h-.816zm.77-1.265a.49.49 0 00.315-.096.333.333 0 00.12-.27c0-.213-.15-.32-.449-.32h-.575v.686h.589zm.01.99c.318 0 .477-.12.477-.36a.306.306 0 00-.14-.274.687.687 0 00-.38-.091h-.556v.726h.598z" fill="#1C2D3C" fill-opacity=".7"/></svg>