<svg width="64" height="64" viewBox="0 0 64 64" fill="none" xmlns="http://www.w3.org/2000/svg">
<path fill-rule="evenodd" clip-rule="evenodd" d="M13.9623 0.209998C13.7022 0.332206 13.3763 0.575927 13.2381 0.751702C13.0997 0.927477 12.9321 1.27381 12.8654 1.52147C12.7877 1.81029 12.7563 3.66474 12.7781 6.69489C12.8117 11.394 12.8134 11.4204 13.0786 11.8472C13.2254 12.083 13.5147 12.3808 13.7218 12.5087C13.9288 12.6366 14.3065 12.7747 14.5614 12.8154C14.8162 12.8562 15.2418 12.831 15.5074 12.7595C15.7728 12.6881 16.156 12.4899 16.3589 12.3191C16.5616 12.1484 16.7989 11.8384 16.8858 11.6303C17.0109 11.3309 17.044 10.2313 17.044 6.37361C17.044 1.75 17.032 1.47219 16.8157 1.04806C16.6901 0.801907 16.4019 0.485836 16.1751 0.345772C15.9231 0.190056 15.5046 0.0708629 15.099 0.0394413C14.6045 0.001063 14.3146 0.0445422 13.9623 0.209998ZM47.9906 0.267044C47.6721 0.435051 47.3821 0.707989 47.2206 0.991711C46.9639 1.44297 46.9617 1.48866 46.9598 6.40932C46.9582 10.5422 46.9863 11.4267 47.1276 11.7001C47.221 11.8806 47.4582 12.1635 47.6546 12.3289C47.8511 12.4942 48.213 12.6898 48.4589 12.7634C48.7184 12.8411 49.126 12.8643 49.4307 12.8186C49.7194 12.7754 50.1261 12.625 50.3346 12.4845C50.543 12.344 50.8207 12.0466 50.9518 11.8237C51.1798 11.4354 51.1913 11.2181 51.2238 6.69489C51.2456 3.66474 51.2141 1.81029 51.1365 1.52147C51.0698 1.27381 50.9021 0.927477 50.7638 0.751702C50.6256 0.575927 50.2997 0.335453 50.0396 0.217303C49.7794 0.0992694 49.327 0.00141126 49.0341 1.99026e-05C48.6966 -0.00160335 48.3146 0.0961389 47.9906 0.267044ZM3.90226 4.51649C3.52961 4.63557 2.94432 4.91906 2.60158 5.14666C2.25885 5.37415 1.76399 5.83179 1.50172 6.16351C1.23957 6.49523 0.89533 7.02256 0.736833 7.33538C0.578335 7.64809 0.34772 8.29878 0.224354 8.78112C0.00602888 9.6346 0 10.313 0 34.08C0 55.5625 0.0212184 58.5849 0.176469 59.1929C0.273516 59.5729 0.517117 60.223 0.717934 60.6376C0.952028 61.1207 1.35737 61.6666 1.84736 62.1582C2.29595 62.6085 2.90211 63.072 3.31511 63.2804C3.70202 63.4758 4.33508 63.7176 4.72176 63.8179C5.35111 63.9809 8.21647 64 32.0009 64C55.7854 64 58.6508 63.9809 59.2801 63.8179C59.6668 63.7176 60.2999 63.4758 60.6868 63.2804C61.0998 63.072 61.7059 62.6085 62.1545 62.1582C62.6445 61.6666 63.0499 61.1207 63.2839 60.6376C63.4848 60.223 63.7284 59.5729 63.8254 59.1929C63.9807 58.5848 64.0016 55.574 63.9999 34.1484C63.9982 13.2117 63.9741 9.68249 63.8281 8.99353C63.7346 8.55271 63.5086 7.87442 63.3258 7.48623C63.143 7.09792 62.7766 6.50764 62.5115 6.17429C62.2466 5.84106 61.756 5.38319 61.4215 5.15686C61.087 4.93065 60.4818 4.64241 60.0765 4.51649C59.4654 4.32657 59.0053 4.28749 57.3808 4.28749H55.4219V6.43251V8.57752H57.1409C58.8015 8.57752 58.8686 8.58691 59.1192 8.85347C59.2617 9.00525 59.4535 9.37883 59.5452 9.68353C59.6738 10.111 59.7119 11.0147 59.7119 13.6396V17.0416H32.0009H4.28998V13.6396C4.28998 11.0147 4.32813 10.111 4.45671 9.68353C4.54842 9.37883 4.7402 9.00525 4.88269 8.85347C5.13325 8.58691 5.20038 8.57752 6.86095 8.57752H8.57996V6.43251V4.28749L6.5799 4.29376C4.95899 4.29874 4.45138 4.34095 3.90226 4.51649ZM21.334 6.43251V8.57752H32.0009H42.6679V6.43251V4.28749H32.0009H21.334V6.43251ZM59.7119 39.749V58.1661L59.4449 58.6711C59.2624 59.0162 59.0181 59.2605 58.673 59.443L58.1681 59.71H32.0073H5.84643L5.33419 59.4491C4.97012 59.2637 4.74495 59.0403 4.55596 58.6772L4.28998 58.1661V39.749V21.3316H32.0009H59.7119V39.749ZM17.044 27.7667V29.9117H19.189H21.334V27.7667V25.6217H19.189H17.044V27.7667ZM25.6239 27.7667V29.9117H27.7689H29.9139V27.7667V25.6217H27.7689H25.6239V27.7667ZM34.088 27.7667V29.9117H36.2329H38.3779V27.7667V25.6217H36.2329H34.088V27.7667ZM42.6679 27.7667V29.9117H44.8129H46.9579V27.7667V25.6217H44.8129H42.6679V27.7667ZM51.1319 27.7667V29.9117H53.3349H55.5379V27.7667V25.6217H53.3349H51.1319V27.7667ZM8.51654 34.2321C8.48454 34.3156 8.4726 35.295 8.49011 36.4088L8.52199 38.4338H10.667H12.812V36.2888V34.1437L10.6933 34.1121C9.03273 34.0874 8.56211 34.1133 8.51654 34.2321ZM17.044 36.2888V38.4917H19.189H21.334V36.2888V34.0858H19.189H17.044V36.2888ZM25.6239 36.2888V38.497L27.7399 38.4654L29.8559 38.4338V36.2888V34.1437L27.7399 34.1121L25.6239 34.0806V36.2888ZM34.1394 34.2348C34.108 34.3167 34.0965 35.295 34.114 36.4088L34.1459 38.4338L36.2619 38.4654L38.3779 38.497V36.2914V34.0858H36.2873C34.6912 34.0858 34.1832 34.121 34.1394 34.2348ZM42.6679 36.2888V38.4917H44.8129H46.9579V36.2888V34.0858H44.8129H42.6679V36.2888ZM51.1845 34.2321C51.1525 34.3156 51.1405 35.295 51.158 36.4088L51.1899 38.4338H53.3349H55.4799V36.2888V34.1437L53.3612 34.1121C51.7006 34.0874 51.23 34.1133 51.1845 34.2321ZM8.46402 44.8108V46.9559H10.667H12.8699V44.8108V42.6658H10.667H8.46402V44.8108ZM17.044 44.8108V46.9559H19.189H21.334V44.8108V42.6658H19.189H17.044V44.8108ZM25.6239 44.8108V46.9559H27.7689H29.9139V44.8108V42.6658H27.7689H25.6239V44.8108ZM34.088 44.8108V46.9559H36.2329H38.3779V44.8108V42.6658H36.2329H34.088V44.8108ZM42.6679 44.8108V46.9559H44.8129H46.9579V44.8108V42.6658H44.8129H42.6679V44.8108ZM51.1319 44.8108V46.9559H53.3349H55.5379V44.8108V42.6658H53.3349H51.1319V44.8108ZM8.49034 53.3619L8.52199 55.4779H10.667H12.812L12.8436 53.3619L12.8752 51.2459H10.667H8.4588L8.49034 53.3619ZM17.044 53.3909V55.5359H19.189H21.334V53.3909V51.2459H19.189H17.044V53.3909ZM25.6239 53.3909V55.5359H27.7689H29.9139V53.3909V51.2459H27.7689H25.6239V53.3909ZM34.088 53.3909V55.5359H36.2329H38.3779V53.3909V51.2459H36.2329H34.088V53.3909ZM42.6679 53.3909V55.5359H44.8129H46.9579V53.3909V51.2459H44.8129H42.6679V53.3909Z" fill="#38B2B8"/>
</svg>
