<svg width="27" height="23" viewBox="0 0 27 23" fill="none" xmlns="http://www.w3.org/2000/svg">
<path fill-rule="evenodd" clip-rule="evenodd" d="M2.06491 0.00921999C2.00834 0.0151656 1.90193 0.0325712 1.82844 0.0478991C1.75496 0.063227 1.64392 0.0934387 1.58171 0.115052C1.5195 0.136652 1.42703 0.172221 1.37624 0.194096C1.32545 0.215958 1.23198 0.262804 1.16851 0.29819C1.10504 0.333577 1.00412 0.398312 0.944244 0.442061C0.884365 0.485811 0.77685 0.578053 0.705336 0.647061C0.633822 0.71607 0.538496 0.819562 0.493498 0.877059C0.4485 0.934555 0.388543 1.01677 0.360246 1.05978C0.331949 1.10277 0.28108 1.19391 0.24719 1.26232C0.2133 1.33072 0.169964 1.42602 0.150888 1.4741C0.131812 1.52218 0.100692 1.6192 0.0817483 1.68971C0.0627914 1.76021 0.0379244 1.86495 0.0264869 1.92244C0.00770144 2.01689 0.00526101 2.92997 0.00119786 11.3897C-0.00191546 17.8917 0.000973645 20.7999 0.0106434 20.9078C0.018308 20.9932 0.0337293 21.107 0.0449029 21.1606C0.0560766 21.2142 0.0800995 21.3089 0.0982649 21.3711C0.116444 21.4333 0.158302 21.5459 0.191295 21.6214C0.224289 21.6969 0.28265 21.8116 0.320973 21.8764C0.359309 21.9412 0.432261 22.0471 0.48309 22.1116C0.533919 22.1762 0.631012 22.2828 0.698846 22.3485C0.766679 22.4142 0.866557 22.5015 0.920802 22.5425C0.975048 22.5835 1.06987 22.6465 1.13152 22.6826C1.19318 22.7186 1.27939 22.7643 1.32312 22.7839C1.36685 22.8036 1.44298 22.8356 1.49231 22.855C1.54163 22.8744 1.64849 22.9073 1.72976 22.9281C1.81104 22.9489 1.928 22.9735 1.98967 22.9829C2.08131 22.9969 4.18549 23 13.4997 23C22.8131 23 24.9194 22.9969 25.0164 22.9829C25.0817 22.9735 25.1826 22.9542 25.2407 22.9399C25.2987 22.9257 25.3907 22.8988 25.4451 22.8801C25.4995 22.8614 25.6153 22.8122 25.7024 22.7707C25.7894 22.7292 25.9141 22.6598 25.9794 22.6163C26.0447 22.5729 26.1483 22.4945 26.2095 22.442C26.2708 22.3895 26.3674 22.2945 26.4243 22.2307C26.4811 22.1669 26.5659 22.0577 26.6128 21.988C26.6596 21.9183 26.7269 21.8029 26.7624 21.7316C26.7979 21.6602 26.8452 21.5518 26.8677 21.4907C26.8901 21.4296 26.9235 21.318 26.9418 21.2427C26.9602 21.1674 26.9815 21.0439 26.9892 20.9683C26.9989 20.8726 27.0018 17.9651 26.9989 11.4028L26.9948 1.97471L26.9646 1.84404C26.948 1.77217 26.9113 1.64464 26.8831 1.56066C26.8549 1.47666 26.8017 1.34772 26.7648 1.27408C26.728 1.20046 26.6598 1.08395 26.6132 1.01518C26.5666 0.946394 26.4865 0.841777 26.4353 0.782673C26.384 0.723583 26.2872 0.627813 26.2201 0.569846C26.153 0.511893 26.0447 0.428837 25.9794 0.385284C25.9141 0.34173 25.7894 0.271533 25.7024 0.229286C25.6153 0.187027 25.4881 0.134509 25.4197 0.112569C25.3513 0.0906292 25.2237 0.0567456 25.1361 0.0372753L24.9768 0.00186306L13.5723 0.000138124C7.2998 -0.000815789 2.12148 0.00327437 2.06491 0.00921999ZM25.0362 0.587513C25.0906 0.600463 25.1879 0.62844 25.2524 0.649688C25.3169 0.670922 25.4267 0.717428 25.4964 0.753024C25.5662 0.788619 25.6741 0.855693 25.7363 0.902082C25.7986 0.948471 25.8999 1.03891 25.9615 1.10304C26.0231 1.16718 26.1026 1.26311 26.1382 1.31624C26.1738 1.36936 26.2285 1.4628 26.2598 1.52389C26.291 1.58498 26.3336 1.68788 26.3545 1.75257C26.3754 1.81725 26.4034 1.93192 26.4168 2.00738C26.4403 2.13987 26.4411 2.4666 26.4411 11.5008C26.4411 20.5349 26.4403 20.8617 26.4168 20.9942C26.4034 21.0696 26.3753 21.1847 26.3543 21.2498C26.3333 21.315 26.2874 21.4238 26.2523 21.4916C26.2173 21.5594 26.1594 21.656 26.1237 21.7063C26.0881 21.7566 26.0113 21.847 25.9532 21.9072C25.8951 21.9673 25.7979 22.0534 25.7373 22.0985C25.6767 22.1435 25.5698 22.2099 25.4998 22.246C25.4298 22.282 25.3201 22.3298 25.2559 22.352C25.1918 22.3743 25.0735 22.4042 24.9931 22.4186C24.8477 22.4445 24.781 22.4446 13.5007 22.4446L2.15457 22.4446L2.00946 22.4175C1.92965 22.4025 1.81822 22.3756 1.76183 22.3576C1.70544 22.3396 1.59769 22.2939 1.52236 22.256C1.44703 22.2181 1.3291 22.1451 1.26027 22.0939C1.19145 22.0426 1.09264 21.9556 1.0407 21.9006C0.988767 21.8455 0.908098 21.7436 0.861425 21.6741C0.814751 21.6047 0.756231 21.5041 0.731364 21.4507C0.70651 21.3973 0.670694 21.3065 0.651777 21.249C0.632859 21.1915 0.607069 21.0945 0.594457 21.0334C0.572809 20.9285 0.571529 20.3977 0.571529 11.5008C0.571529 2.60384 0.572809 2.07307 0.594457 1.96818C0.607069 1.90709 0.632859 1.81006 0.651777 1.75257C0.670694 1.69507 0.70651 1.60429 0.731364 1.55085C0.756231 1.4974 0.816097 1.39486 0.864406 1.32298C0.912715 1.2511 1.00312 1.14146 1.06531 1.07934C1.12748 1.01722 1.21691 0.93837 1.26401 0.904121C1.31112 0.869872 1.39126 0.817746 1.4421 0.788305C1.49295 0.758865 1.58064 0.715494 1.63697 0.691934C1.6933 0.668374 1.79422 0.634333 1.86124 0.616301C1.92825 0.598255 2.02463 0.578249 2.07542 0.57182C2.12911 0.565038 6.93323 0.560947 13.5525 0.562058C24.471 0.563888 24.9413 0.564933 25.0362 0.587513ZM13.724 4.36021C13.5208 4.36544 13.2715 4.37655 13.1699 4.38491C13.0684 4.39327 12.8873 4.41174 12.7676 4.42595C12.6479 4.44016 12.4617 4.46652 12.354 4.48452C12.2462 4.50253 12.0563 4.54001 11.9318 4.5678C11.8074 4.59561 11.6093 4.64546 11.4916 4.6786C11.3738 4.71172 11.2046 4.7645 11.1156 4.79589C11.0265 4.82726 10.9001 4.87374 10.8347 4.89917C10.7692 4.92459 10.6594 4.96984 10.5906 4.99973C10.5218 5.02961 10.3786 5.09722 10.2723 5.14996C10.166 5.20271 10.0295 5.27402 9.96887 5.30844C9.90829 5.34285 9.78452 5.41763 9.69383 5.47461C9.60313 5.53159 9.46233 5.62519 9.38095 5.6826C9.29957 5.74 9.166 5.84023 9.08413 5.90533C9.00226 5.97042 8.86702 6.08252 8.78358 6.15444C8.70014 6.22638 8.52194 6.39439 8.38758 6.52782C8.25322 6.66125 8.08049 6.84392 8.00375 6.93375C7.927 7.02359 7.81064 7.16568 7.74516 7.24951C7.67969 7.33334 7.56691 7.48917 7.49456 7.5958C7.42221 7.70242 7.32253 7.85728 7.27306 7.93994C7.22359 8.02259 7.12883 8.19605 7.06248 8.32542C6.99613 8.45479 6.91305 8.62822 6.87784 8.7108C6.84263 8.7934 6.78461 8.93747 6.74891 9.03095C6.71322 9.12445 6.65464 9.29718 6.61875 9.41484C6.58285 9.53249 6.53892 9.68831 6.52111 9.76113C6.50332 9.83392 6.47423 9.96112 6.45649 10.0438C6.43874 10.1264 6.40926 10.2911 6.39096 10.4097C6.37266 10.5282 6.34714 10.7223 6.33425 10.8409C6.31619 11.007 6.31081 11.166 6.31081 11.5334C6.31081 11.9016 6.31618 12.0596 6.33432 12.226C6.34724 12.3446 6.37223 12.5331 6.38984 12.6448C6.40745 12.7566 6.4369 12.9212 6.45526 13.0107C6.47362 13.1002 6.51234 13.2628 6.5413 13.3721C6.57025 13.4815 6.62414 13.6633 6.66104 13.7762C6.69795 13.8891 6.75959 14.0613 6.798 14.1589C6.83642 14.2565 6.89271 14.3922 6.92306 14.4605C6.95343 14.5288 7.02173 14.6706 7.07482 14.7755C7.12792 14.8805 7.21132 15.0364 7.26017 15.1218C7.30901 15.2073 7.41108 15.3709 7.48697 15.4854C7.56288 15.5999 7.66992 15.7528 7.72486 15.8252C7.77981 15.8975 7.88758 16.0332 7.96439 16.1266C8.04119 16.22 8.22873 16.4204 8.38114 16.5719C8.53355 16.7234 8.72652 16.905 8.80996 16.9753C8.8934 17.0457 9.03884 17.1606 9.13316 17.2307C9.22749 17.3008 9.3759 17.405 9.46297 17.4623C9.55003 17.5197 9.69548 17.6106 9.78617 17.6644C9.87687 17.7182 10.0253 17.8004 10.116 17.847C10.2067 17.8936 10.3402 17.9587 10.4128 17.9917C10.4854 18.0248 10.5714 18.0635 10.6041 18.0779C10.6367 18.0922 10.7252 18.1283 10.8007 18.1581C10.8762 18.1879 11.0336 18.2441 11.1503 18.2831C11.2671 18.322 11.4131 18.3682 11.4748 18.3856C11.5364 18.4031 11.6344 18.4296 11.6924 18.4446C11.7505 18.4595 11.8633 18.4861 11.9431 18.5036C12.0229 18.5211 12.1535 18.5477 12.2333 18.5625C12.3131 18.5774 12.4229 18.5957 12.4773 18.603C12.5318 18.6104 12.5852 18.6191 12.5961 18.6222C12.607 18.6253 12.7435 18.6411 12.8995 18.6572C13.1337 18.6815 13.2602 18.6866 13.6251 18.6867C13.9542 18.6867 14.1242 18.6808 14.2913 18.6637C14.4146 18.651 14.6075 18.626 14.72 18.6082C14.8325 18.5904 14.9927 18.5617 15.0762 18.5443C15.1596 18.527 15.3094 18.4919 15.4091 18.4664C15.5087 18.4408 15.6987 18.3843 15.8312 18.3409C15.9637 18.2974 16.1672 18.2227 16.2833 18.175C16.3993 18.1272 16.5884 18.042 16.7033 17.9857C16.8183 17.9294 16.9964 17.8356 17.0991 17.7773C17.2018 17.719 17.363 17.6211 17.4573 17.5598C17.5517 17.4986 17.7179 17.3826 17.8267 17.3021C17.9356 17.2216 18.0963 17.0948 18.1839 17.0202C18.2715 16.9455 18.4114 16.8212 18.4948 16.7438C18.5782 16.6664 18.727 16.5165 18.8255 16.4106C18.9239 16.3047 19.0514 16.1622 19.1089 16.0939C19.1663 16.0257 19.2719 15.8933 19.3434 15.7999C19.415 15.7065 19.5366 15.536 19.6136 15.421C19.6906 15.306 19.796 15.1413 19.8478 15.0551C19.8997 14.9688 19.9897 14.8102 20.0478 14.7025C20.1059 14.5949 20.1519 14.5052 20.1499 14.5032C20.1479 14.5012 20.0072 14.5342 19.8374 14.5764C19.6675 14.6186 19.4157 14.6803 19.2778 14.7134C19.14 14.7466 18.9738 14.7851 18.9085 14.799C18.8432 14.8129 18.7096 14.8363 18.6116 14.8511C18.5137 14.8658 18.3464 14.8839 18.2398 14.8913C18.1332 14.8987 17.9403 14.9048 17.8111 14.9048C17.6818 14.9047 17.493 14.8986 17.3914 14.8911C17.2898 14.8836 17.1295 14.8659 17.0352 14.8517C16.9409 14.8376 16.7895 14.8107 16.6988 14.7919C16.6081 14.7731 16.4923 14.7473 16.4416 14.7344C16.3908 14.7216 16.3017 14.6982 16.2437 14.6826C16.1856 14.667 16.0669 14.6304 15.9798 14.6013C15.8928 14.5722 15.745 14.5189 15.6514 14.4828C15.5578 14.4466 15.3708 14.3631 15.2358 14.297C15.1009 14.231 14.9222 14.137 14.8387 14.088C14.7553 14.0391 14.6158 13.952 14.5287 13.8945C14.4416 13.8369 14.3113 13.7456 14.2392 13.6915C14.167 13.6374 14.0453 13.5405 13.9687 13.4762C13.8922 13.4118 13.7432 13.2733 13.6377 13.1683C13.5321 13.0633 13.3867 12.9068 13.3144 12.8206C13.2422 12.7343 13.1347 12.5986 13.0754 12.519C13.0162 12.4393 12.9335 12.3217 12.8917 12.2576C12.85 12.1935 12.7773 12.0764 12.7304 11.9973C12.6834 11.9183 12.5987 11.7624 12.5422 11.651C12.4856 11.5397 12.4117 11.3838 12.3779 11.3048C12.3442 11.2257 12.2873 11.0796 12.2516 10.98C12.2159 10.8804 12.1658 10.7278 12.1403 10.6409C12.1148 10.5539 12.0792 10.4182 12.0612 10.3392C12.0432 10.2602 12.0139 10.11 11.996 10.0054C11.9781 9.90071 11.9535 9.72395 11.9412 9.61255C11.9256 9.47078 11.9189 9.30022 11.919 9.04412C11.9191 8.78742 11.9258 8.61975 11.9415 8.48223C11.9538 8.37442 11.9787 8.19801 11.997 8.09021C12.0152 7.9824 12.0501 7.81188 12.0746 7.71126C12.0991 7.61064 12.1467 7.44011 12.1805 7.33231C12.2143 7.2245 12.2842 7.03045 12.3359 6.90108C12.3875 6.77172 12.4841 6.56003 12.5504 6.43066C12.6167 6.3013 12.7045 6.14096 12.7455 6.07437C12.7865 6.00776 12.8627 5.89016 12.9149 5.81302C12.967 5.73587 13.0555 5.61396 13.1115 5.54208C13.1675 5.47021 13.2623 5.35555 13.3221 5.28727C13.3819 5.219 13.5947 4.98448 13.7951 4.76612C13.9954 4.54777 14.1613 4.36402 14.1637 4.35777C14.1662 4.35154 14.1513 4.34739 14.1307 4.34858C14.1102 4.34976 13.9272 4.355 13.724 4.36021ZM12.1873 5.49962C12.1166 5.61641 12.0155 5.79134 11.9626 5.88837C11.9097 5.98539 11.8341 6.1324 11.7946 6.21505C11.755 6.2977 11.687 6.44765 11.6433 6.54827C11.5997 6.64889 11.5434 6.78707 11.5183 6.85535C11.4931 6.92363 11.4461 7.05887 11.4137 7.1559C11.3813 7.25292 11.3287 7.43521 11.2968 7.56098C11.2649 7.68676 11.2238 7.86904 11.2055 7.96607C11.1871 8.06309 11.1595 8.2395 11.1442 8.35809C11.1249 8.5075 11.1141 8.68203 11.1091 8.92652C11.1047 9.14662 11.1079 9.35545 11.1176 9.48169C11.1263 9.59299 11.1446 9.76444 11.1584 9.86271C11.1722 9.96099 11.1961 10.1051 11.2114 10.1831C11.2267 10.261 11.2593 10.4041 11.2837 10.5011C11.3081 10.5982 11.3519 10.7543 11.381 10.8481C11.4101 10.9419 11.463 11.0948 11.4984 11.1879C11.5339 11.2809 11.5916 11.4247 11.6266 11.5073C11.6615 11.59 11.7564 11.7869 11.8374 11.9451C11.9184 12.1032 12.0253 12.3002 12.075 12.3828C12.1246 12.4655 12.2138 12.6069 12.273 12.6971C12.3323 12.7874 12.43 12.9285 12.4903 13.0107C12.5505 13.093 12.6475 13.2191 12.7059 13.291C12.7642 13.3629 12.8784 13.4952 12.9597 13.585C13.041 13.6748 13.1839 13.822 13.2772 13.9121C13.3706 14.0022 13.5182 14.1345 13.6053 14.2062C13.6923 14.2778 13.82 14.3784 13.8889 14.4295C13.9578 14.4807 14.0914 14.5725 14.1857 14.6336C14.28 14.6946 14.4285 14.7845 14.5155 14.8335C14.6026 14.8824 14.7569 14.9621 14.8585 15.0104C14.9601 15.0587 15.1233 15.1304 15.2213 15.1697C15.3192 15.209 15.4706 15.2647 15.5577 15.2937C15.6448 15.3226 15.7457 15.3553 15.782 15.3664C15.8182 15.3775 15.9399 15.4099 16.0524 15.4385C16.1649 15.467 16.334 15.5052 16.4284 15.5232C16.5227 15.5413 16.6592 15.5654 16.7318 15.5769C16.8043 15.5883 16.9468 15.6062 17.0484 15.6165C17.15 15.6269 17.3192 15.6419 17.4244 15.6499C17.5296 15.6578 17.8093 15.6625 18.0461 15.6603L18.4765 15.6562L18.4438 15.6954C18.4259 15.7169 18.3346 15.8174 18.2411 15.9186C18.1475 16.0198 17.9923 16.1736 17.8961 16.2605C17.7999 16.3473 17.6707 16.4589 17.6091 16.5084C17.5474 16.558 17.4346 16.6432 17.3584 16.6977C17.2822 16.7523 17.1457 16.8435 17.055 16.9005C16.9643 16.9575 16.8248 17.0415 16.745 17.0871C16.6652 17.1328 16.4752 17.2303 16.3228 17.3038C16.1705 17.3773 15.9627 17.4696 15.8611 17.509C15.7595 17.5484 15.6111 17.6024 15.5313 17.629C15.4515 17.6556 15.3387 17.6911 15.2807 17.7079C15.2226 17.7246 15.1276 17.7503 15.0696 17.7649C15.0115 17.7795 14.8928 17.8061 14.8057 17.8239C14.7187 17.8418 14.5673 17.8684 14.4693 17.8832C14.3714 17.8979 14.2111 17.9169 14.1132 17.9254C14.0152 17.9338 13.7867 17.9408 13.6053 17.9408C13.4239 17.9408 13.1953 17.9338 13.0974 17.9254C12.9994 17.9169 12.8362 17.898 12.7346 17.8833C12.633 17.8685 12.4757 17.8418 12.385 17.8239C12.2943 17.806 12.1273 17.7684 12.0139 17.7404C11.9005 17.7124 11.767 17.6769 11.7171 17.6615C11.6673 17.6462 11.5552 17.6098 11.4682 17.5807C11.3811 17.5515 11.2416 17.5015 11.1581 17.4695C11.0747 17.4375 10.9277 17.3759 10.8314 17.3326C10.7351 17.2893 10.5778 17.2128 10.4818 17.1627C10.3858 17.1126 10.2568 17.0416 10.1951 17.005C10.1335 16.9684 10.0177 16.8964 9.93788 16.8451C9.85807 16.7938 9.70966 16.6897 9.60808 16.6138C9.5065 16.5379 9.35407 16.4165 9.26935 16.344C9.18463 16.2715 9.03692 16.1345 8.94112 16.0394C8.8453 15.9444 8.70779 15.7987 8.63553 15.7157C8.56327 15.6326 8.45215 15.4971 8.38861 15.4144C8.32506 15.3318 8.2196 15.1848 8.15426 15.0877C8.08892 14.9907 7.99253 14.8378 7.94005 14.748C7.88759 14.6582 7.79512 14.4847 7.73457 14.3625C7.67403 14.2403 7.59685 14.0727 7.56307 13.9901C7.52929 13.9074 7.47853 13.7764 7.45027 13.6989C7.422 13.6214 7.37244 13.4685 7.34013 13.3592C7.30781 13.2498 7.26885 13.1074 7.25355 13.0427C7.23825 12.978 7.21137 12.8516 7.19386 12.7618C7.17634 12.6719 7.14999 12.5102 7.13532 12.4024C7.12065 12.2946 7.10263 12.1241 7.09528 12.0235C7.08792 11.9228 7.08191 11.717 7.08191 11.5661C7.08191 11.4152 7.08788 11.2094 7.09519 11.1088C7.1025 11.0081 7.1237 10.82 7.1423 10.6906C7.1609 10.5612 7.19346 10.3724 7.21465 10.2711C7.23583 10.1697 7.2741 10.0065 7.2997 9.90842C7.32529 9.81038 7.37638 9.63753 7.41324 9.52435C7.4501 9.41114 7.51595 9.23033 7.55959 9.12253C7.60322 9.01472 7.68814 8.82655 7.74828 8.70437C7.80843 8.58219 7.90034 8.40895 7.95254 8.31938C8.00473 8.22982 8.09518 8.08575 8.15351 7.99923C8.21186 7.91272 8.30861 7.77725 8.36853 7.69819C8.42845 7.61913 8.52661 7.49565 8.58667 7.42378C8.64672 7.35191 8.81799 7.17224 8.96728 7.02453C9.11656 6.87682 9.31587 6.69394 9.4102 6.61812C9.50452 6.54232 9.64735 6.43308 9.72761 6.37536C9.80786 6.31764 9.94737 6.22358 10.0376 6.16632C10.1279 6.10908 10.2894 6.01359 10.3966 5.95414C10.5038 5.89468 10.6849 5.80341 10.799 5.75129C10.9131 5.69918 11.0749 5.62986 11.1586 5.59726C11.2423 5.56464 11.3581 5.52238 11.4159 5.50334C11.4736 5.48429 11.5684 5.45485 11.6265 5.4379C11.6845 5.42095 11.7706 5.39695 11.8177 5.38455C11.8649 5.37214 11.9807 5.34564 12.075 5.32565C12.1693 5.30566 12.2621 5.28884 12.2812 5.28829C12.3146 5.28731 12.3112 5.29503 12.1873 5.49962ZM15.6129 6.35879C15.6086 6.36957 15.5575 6.53128 15.4995 6.71814C15.4414 6.905 15.3583 7.17511 15.3149 7.31838C15.2715 7.46165 15.2248 7.59395 15.2111 7.61239C15.1974 7.63083 15.1659 7.65609 15.1411 7.66851C15.1163 7.68093 14.9119 7.74186 14.687 7.80392C14.4621 7.86596 14.1979 7.94003 14.1 7.96849C14.002 7.99695 13.913 8.02324 13.9021 8.02689C13.8887 8.03139 13.899 8.04208 13.9339 8.06002C13.9623 8.07458 14.0187 8.09704 14.0593 8.10991C14.0998 8.12279 14.1923 8.15122 14.2649 8.1731C14.3374 8.19497 14.5066 8.24575 14.6408 8.28594C14.7751 8.32614 14.9422 8.37649 15.0122 8.39783C15.1156 8.42933 15.1471 8.44514 15.1798 8.48207C15.202 8.50707 15.226 8.54968 15.2332 8.57674C15.2404 8.60382 15.2768 8.73475 15.3141 8.86771C15.3513 9.00067 15.4206 9.23883 15.468 9.39694C15.5154 9.55505 15.5583 9.6889 15.5634 9.69439C15.5684 9.69988 15.5862 9.68993 15.603 9.67228C15.6249 9.64922 15.6776 9.49773 15.7907 9.13308C15.8773 8.85418 15.9637 8.59493 15.9828 8.557C16.0028 8.51735 16.0347 8.47763 16.058 8.46358C16.0803 8.45015 16.1995 8.40948 16.3228 8.37322C16.4462 8.33696 16.6539 8.27706 16.7846 8.2401C16.9152 8.20316 17.0783 8.15506 17.1471 8.13324L17.2723 8.09355L17.2293 8.05804C17.1965 8.03092 17.0672 7.98615 16.682 7.86855C16.4047 7.78386 16.1475 7.70347 16.1106 7.68991C16.0737 7.67635 16.0316 7.65209 16.0171 7.63599C16.0025 7.61989 15.9811 7.57438 15.9694 7.53485C15.9578 7.49532 15.9093 7.32185 15.8618 7.14936C15.8142 6.97688 15.7549 6.76812 15.73 6.68547C15.705 6.60282 15.6702 6.4911 15.6526 6.4372C15.6338 6.37944 15.6175 6.34724 15.6129 6.35879ZM17.9917 9.3022C17.9681 9.3543 17.9376 9.42869 17.9241 9.4675C17.9105 9.50631 17.8928 9.59158 17.8847 9.65698C17.8767 9.72238 17.8551 9.81301 17.8368 9.85838C17.8166 9.9083 17.7776 9.96891 17.738 10.0118C17.6934 10.0601 17.6425 10.0973 17.5782 10.1284C17.5196 10.1567 17.4262 10.186 17.332 10.2055C17.2486 10.2227 17.1182 10.2613 17.0424 10.2911C16.9665 10.321 16.9021 10.3477 16.8993 10.3505C16.8964 10.3533 16.9193 10.3683 16.95 10.3838C16.9807 10.3993 17.0883 10.4352 17.1892 10.4635C17.2901 10.4918 17.4327 10.5269 17.506 10.5415C17.5794 10.556 17.6612 10.5789 17.6878 10.5924C17.7144 10.6058 17.7578 10.6405 17.7842 10.6695C17.8176 10.7062 17.8408 10.7511 17.8605 10.8174C17.8761 10.8699 17.9054 10.9657 17.9257 11.0304C17.9459 11.095 17.9848 11.2112 18.012 11.2884C18.0513 11.4003 18.0665 11.4289 18.0863 11.4289C18.1031 11.4289 18.1191 11.4108 18.1352 11.3734C18.1484 11.3428 18.1776 11.2532 18.2003 11.1741C18.223 11.095 18.2597 10.9568 18.282 10.867C18.3043 10.7772 18.3323 10.6812 18.3442 10.6537C18.3585 10.6207 18.3822 10.5955 18.4137 10.5796C18.44 10.5663 18.4968 10.5463 18.5399 10.5351C18.583 10.5239 18.7251 10.4798 18.8557 10.4371C18.9863 10.3944 19.1224 10.3465 19.1581 10.3307L19.223 10.3019L19.1449 10.2703C19.1019 10.2529 19.0044 10.2219 18.9283 10.2013C18.8521 10.1808 18.7007 10.1392 18.5919 10.109C18.4277 10.0633 18.3869 10.0469 18.3522 10.0129C18.3182 9.97947 18.2979 9.93214 18.2423 9.75629C18.2048 9.6377 18.1621 9.5054 18.1473 9.46228C18.1325 9.41915 18.1053 9.34417 18.0869 9.29567C18.0685 9.24716 18.0492 9.20746 18.0441 9.20746C18.0389 9.20746 18.0154 9.2501 17.9917 9.3022Z" fill="#38B2B8"/>
</svg>
