<svg width="27" height="29" viewBox="0 0 27 29" fill="none" xmlns="http://www.w3.org/2000/svg">
<path d="M14.0144 16.1632L12.5647 13.2898C12.3626 12.8962 12.3245 12.4384 12.4589 12.0168C12.5934 11.5952 12.8893 11.2443 13.2817 11.041C13.4772 10.9413 13.6903 10.8812 13.909 10.8641C14.1276 10.8471 14.3476 10.8734 14.5561 10.9416C14.7647 11.0098 14.9577 11.1185 15.1242 11.2615C15.2907 11.4045 15.4273 11.579 15.5265 11.775L17.5687 15.7728L16.1969 13.0868C16.0974 12.891 16.0373 12.6774 16.0203 12.4583C16.0032 12.2393 16.0295 12.019 16.0975 11.8102C16.1656 11.6013 16.2741 11.4079 16.4168 11.2411C16.5596 11.0742 16.7338 10.9373 16.9295 10.838C17.1238 10.7386 17.3358 10.6788 17.5533 10.6619C17.7708 10.6451 17.9896 10.6715 18.1969 10.7398C18.4041 10.808 18.5958 10.9167 18.7609 11.0595C18.926 11.2023 19.0612 11.3765 19.1588 11.572L21.2321 15.6323L19.9226 13.0555C19.8231 12.8597 19.7631 12.6462 19.746 12.4271C19.729 12.2081 19.7553 11.9878 19.8233 11.7789C19.8914 11.57 19.9999 11.3766 20.1426 11.2098C20.2854 11.043 20.4596 10.906 20.6553 10.8068C20.8421 10.7031 21.0482 10.6389 21.2608 10.6183C21.4734 10.5977 21.6879 10.6211 21.891 10.687C22.0942 10.7529 22.2816 10.8599 22.4418 11.0013C22.6019 11.1428 22.7315 11.3158 22.8222 11.5095L24.2408 14.3049L25.4256 16.6161C26.3547 18.5627 26.4865 20.7962 25.7932 22.839C25.0999 24.8819 23.6364 26.5719 21.7154 27.5477C21.1598 27.8274 20.574 28.0422 19.9695 28.188C19.2936 28.3505 18.5865 28.3275 17.9226 28.1214C17.2588 27.9153 16.6625 27.5337 16.1969 27.0167V27.0167C15.724 26.5403 15.2014 26.1162 14.638 25.7518C13.6247 25.049 7.21764 22.1912 7.21764 22.1912C6.77554 21.9746 6.43357 21.5961 6.26236 21.1339C6.09116 20.6717 6.10388 20.1612 6.29795 19.7082C6.47555 19.3017 6.78913 18.9701 7.18472 18.7706C7.5803 18.571 8.03309 18.516 8.46483 18.6151L11.8009 19.3959L6.37578 8.71409C6.18015 8.31601 6.14913 7.85674 6.28919 7.43581C6.42925 7.01487 6.72927 6.66623 7.1242 6.46535V6.46535C7.311 6.36166 7.51697 6.29751 7.72953 6.27691C7.94209 6.25631 8.15661 6.27969 8.35978 6.34558C8.56296 6.41148 8.75051 6.51845 8.91069 6.65994C9.07087 6.80142 9.2002 6.97439 9.29089 7.16807L14.0144 16.1632Z" stroke="#38B2B8" stroke-linecap="round" stroke-linejoin="round"/>
<path d="M3.22688 10.1195L1.04443 11.2439" stroke="#38B2B8" stroke-linecap="round" stroke-linejoin="round"/>
<path d="M3.00875 6.19978L0.67041 5.43457" stroke="#38B2B8" stroke-linecap="round" stroke-linejoin="round"/>
<path d="M5.62753 3.24821L4.50513 1.06189" stroke="#38B2B8" stroke-linecap="round" stroke-linejoin="round"/>
<path d="M9.54053 3.014L10.2888 0.671509" stroke="#38B2B8" stroke-linecap="round" stroke-linejoin="round"/>
<path d="M12.4868 5.62195L14.6693 4.49756" stroke="#38B2B8" stroke-linecap="round" stroke-linejoin="round"/>
</svg>
