<svg width="39" height="27" viewBox="0 0 39 27" fill="none" xmlns="http://www.w3.org/2000/svg">
<path d="M12.5525 0C14.1188 0 14.9019 0.311111 14.9019 0.933333C14.9019 1.2 14.6558 1.42222 14.1635 1.6C10.0465 3.24444 7.98795 6.44444 7.98795 11.2C8.61446 11.1111 9.06196 11.0667 9.33046 11.0667C14.7005 11.0667 17.3855 13.7333 17.3855 19.0667C17.3855 24.3556 14.7005 27 9.33046 27C3.11015 27 0 23.6 0 16.8C0 9.46667 2.9759 4.2 8.92771 1C10.1807 0.333333 11.389 0 12.5525 0Z" fill="#38B2B8"/>
<path d="M34.167 0C35.7332 0 36.5163 0.311111 36.5163 0.933333C36.5163 1.2 36.2702 1.42222 35.778 1.6C31.6609 3.24444 29.6024 6.44444 29.6024 11.2C30.2289 11.1111 30.6764 11.0667 30.9449 11.0667C36.315 11.0667 39 13.7333 39 19.0667C39 24.3556 36.315 27 30.9449 27C24.7246 27 21.6145 23.6 21.6145 16.8C21.6145 9.46667 24.5904 4.2 30.5422 1C31.7952 0.333333 33.0034 0 34.167 0Z" fill="#38B2B8"/>
</svg>
