<svg width="52" height="52" viewBox="0 0 52 52" fill="none" xmlns="http://www.w3.org/2000/svg">
<path fill-rule="evenodd" clip-rule="evenodd" d="M51.1136 0.553616C51.2193 0.59757 51.3153 0.662057 51.396 0.743213C51.5597 0.888699 51.662 1.09053 51.6828 1.30834C51.7036 1.52614 51.6414 1.74377 51.5081 1.91749L25.4608 27.8924C25.3797 27.9728 25.2834 28.0363 25.1777 28.0795C25.072 28.1227 24.9589 28.1446 24.8447 28.144C24.6289 28.1382 24.4216 28.0593 24.2567 27.9203L15.8543 20.2034C15.7739 20.1252 15.7096 20.0317 15.666 19.9285C15.6223 19.8252 15.6 19.7143 15.6 19.6023C15.6 19.4902 15.6223 19.3792 15.666 19.276C15.7096 19.1727 15.7739 19.0793 15.8543 19.0011C15.935 18.92 16.031 18.8555 16.1367 18.8115C16.2425 18.7676 16.3559 18.745 16.4704 18.745C16.585 18.745 16.6984 18.7676 16.8041 18.8115C16.9099 18.8555 17.0058 18.92 17.0865 19.0011L24.7326 26.1309L50.1638 0.743213C50.2445 0.662057 50.3405 0.59757 50.4462 0.553616C50.552 0.509661 50.6653 0.487061 50.7799 0.487061C50.8944 0.487061 51.0078 0.509661 51.1136 0.553616ZM43.6657 12.1229C43.4856 12.2614 43.3672 12.465 43.3358 12.6898C43.3044 12.9146 43.3626 13.1428 43.4978 13.3252C46.4622 17.2977 48.0455 22.1281 48.007 27.0815C48.002 32.2226 46.2765 37.2146 43.105 41.265C39.9335 45.3154 35.4974 48.192 30.5012 49.4381C25.505 50.6843 20.2352 50.2285 15.5281 48.1431C10.821 46.0578 6.94637 42.4625 4.51985 37.9279C2.09333 33.3934 1.25379 28.1795 2.13447 23.1142C3.01515 18.0489 5.56558 13.4225 9.38086 9.96948C13.1961 6.51647 18.0575 4.43485 23.1933 4.05502C28.329 3.67518 33.4447 5.01894 37.7281 7.87299C37.9177 8.00222 38.151 8.05126 38.3766 8.00934C38.6023 7.96742 38.8022 7.83791 38.9326 7.64926C39.0522 7.4546 39.0926 7.22165 39.0457 6.99813C38.9989 6.7746 38.868 6.57743 38.6802 6.447C34.0549 3.41378 28.5475 2.00917 23.0315 2.45598C17.5156 2.90279 12.3071 5.17541 8.2321 8.91338C4.15709 12.6514 1.4488 17.6407 0.537156 23.0898C-0.374489 28.539 0.56275 34.1361 3.19981 38.9931C5.83686 43.8502 10.0227 47.6892 15.0939 49.9012C20.165 52.1132 25.8308 52.5715 31.1925 51.2035C36.5542 49.8354 41.305 46.7193 44.691 42.3494C48.077 37.9795 49.9043 32.6061 49.8833 27.0815C49.9261 21.7514 48.2139 16.5547 45.01 12.2906C44.9419 12.18 44.85 12.0862 44.7406 12.0159C44.6312 11.9456 44.5073 11.9008 44.3782 11.8847C44.2492 11.8686 44.1183 11.8816 43.9949 11.9229C43.8716 11.9641 43.759 12.0324 43.6657 12.1229ZM3.58694 26.3826C3.35667 26.3826 3.13573 26.4739 2.9729 26.6364C2.81007 26.799 2.71853 27.0195 2.71853 27.2493C2.71847 27.3619 2.74124 27.4733 2.7852 27.5769C2.82917 27.6805 2.8936 27.7743 2.97461 27.8526C3.05562 27.9309 3.15147 27.992 3.25667 28.0325C3.36187 28.0729 3.47426 28.0919 3.58694 28.0882H4.17499C4.28766 28.0919 4.40006 28.0729 4.50526 28.0325C4.61045 27.992 4.7063 27.9309 4.78732 27.8526C4.86833 27.7743 4.93276 27.6805 4.97673 27.5769C5.02069 27.4733 5.04311 27.3619 5.04305 27.2493C5.04305 27.0195 4.95185 26.799 4.78903 26.6364C4.6262 26.4739 4.40526 26.3826 4.17499 26.3826H3.58694ZM46.4606 28.0325C46.3554 28.0729 46.243 28.0919 46.1303 28.0882H45.318C45.2053 28.0919 45.0932 28.0729 44.988 28.0325C44.8828 27.992 44.7867 27.9309 44.7056 27.8526C44.6246 27.7743 44.5602 27.6805 44.5162 27.5769C44.4723 27.4733 44.4498 27.3619 44.4499 27.2493C44.4499 27.0195 44.5414 26.799 44.7043 26.6364C44.8671 26.4739 45.0877 26.3826 45.318 26.3826H46.1303C46.3606 26.3826 46.5815 26.4739 46.7443 26.6364C46.9072 26.799 46.9987 27.0195 46.9987 27.2493C46.9988 27.3619 46.976 27.4733 46.932 27.5769C46.8881 27.6805 46.8236 27.7743 46.7426 27.8526C46.6616 27.9309 46.5658 27.992 46.4606 28.0325ZM25.7125 48.471V47.8839C25.7162 47.7714 25.6973 47.6593 25.6567 47.5542C25.6162 47.4492 25.555 47.3535 25.4766 47.2726C25.3982 47.1917 25.3045 47.1274 25.2007 47.0835C25.0969 47.0396 24.9852 47.017 24.8724 47.0171C24.6422 47.0171 24.4212 47.1084 24.2584 47.271C24.0956 47.4335 24.004 47.654 24.004 47.8839V48.5829C24.004 48.8127 24.0956 49.0332 24.2584 49.1958C24.4212 49.3583 24.6422 49.4496 24.8724 49.4496C24.9956 49.4513 25.1174 49.426 25.2297 49.3754C25.342 49.3248 25.4419 49.2502 25.522 49.1568C25.6022 49.0634 25.6607 48.9536 25.6937 48.8351C25.7266 48.7166 25.733 48.5923 25.7125 48.471ZM24.004 6.64289V5.94389C24.004 5.71401 24.0956 5.49353 24.2584 5.33098C24.4212 5.16843 24.6422 5.07713 24.8724 5.07713C24.9852 5.07707 25.0969 5.09962 25.2007 5.14352C25.3045 5.18741 25.3982 5.25173 25.4766 5.3326C25.555 5.41348 25.6162 5.50925 25.6567 5.61427C25.6973 5.71928 25.7162 5.8314 25.7125 5.94389V6.64289C25.7162 6.75537 25.6973 6.86749 25.6567 6.97251C25.6162 7.07752 25.555 7.1733 25.4766 7.25417C25.3982 7.33505 25.3045 7.39937 25.2007 7.44326C25.0969 7.48715 24.9852 7.50971 24.8724 7.50964C24.6422 7.50964 24.4212 7.41834 24.2584 7.25579C24.0956 7.09324 24.004 6.87277 24.004 6.64289ZM9.60815 41.2292L9.216 41.6486C9.13554 41.7268 9.07163 41.8203 9.02796 41.9236C8.98429 42.0268 8.96198 42.1377 8.96198 42.2498C8.96198 42.3618 8.98429 42.4728 9.02796 42.576C9.07163 42.6793 9.13554 42.7728 9.216 42.851C9.29707 42.9313 9.39335 42.9949 9.49909 43.0381C9.60482 43.0813 9.71819 43.1032 9.83243 43.1026C9.94243 43.1026 10.0513 43.0802 10.1524 43.037C10.2535 42.9937 10.3446 42.9305 10.4205 42.851L10.8407 42.4595C10.9216 42.3787 10.9856 42.2829 11.0294 42.1773C11.0732 42.0718 11.0957 41.9586 11.0957 41.8444C11.0957 41.7301 11.0732 41.6171 11.0294 41.5115C10.9856 41.406 10.9216 41.31 10.8407 41.2292C10.7598 41.1485 10.6636 41.0844 10.5579 41.0407C10.4522 40.997 10.339 40.9745 10.2246 40.9745C10.1101 40.9745 9.99662 40.997 9.8909 41.0407C9.78517 41.0844 9.68907 41.1485 9.60815 41.2292ZM40.5012 42.8511C40.3461 43.0091 40.1348 43.0995 39.9132 43.1027C39.799 43.1033 39.6856 43.0814 39.5798 43.0382C39.4741 42.995 39.3782 42.9314 39.2971 42.8511L38.7928 42.3757C38.7119 42.2949 38.6475 42.1991 38.6037 42.0935C38.56 41.988 38.5374 41.8748 38.5374 41.7606C38.5374 41.6463 38.56 41.5333 38.6037 41.4277C38.6475 41.3222 38.7119 41.2262 38.7928 41.1455C38.8737 41.0647 38.9698 41.0006 39.0756 40.9569C39.1813 40.9132 39.2945 40.8907 39.4089 40.8907C39.5233 40.8907 39.6369 40.9132 39.7426 40.9569C39.8483 41.0006 39.9441 41.0647 40.025 41.1455L40.5012 41.6487C40.5817 41.7269 40.6456 41.8204 40.6893 41.9236C40.7329 42.0269 40.7556 42.1378 40.7556 42.2499C40.7556 42.3619 40.7329 42.4729 40.6893 42.5761C40.6456 42.6794 40.5817 42.7729 40.5012 42.8511ZM10.9252 12.0951L10.4209 11.6197C10.2612 11.4603 10.0447 11.3707 9.81884 11.3707C9.59298 11.3707 9.37613 11.4603 9.21643 11.6197C9.05672 11.7792 8.96719 11.9954 8.96719 12.2209C8.96719 12.4463 9.05672 12.6626 9.21643 12.822L9.69268 13.3253C9.77339 13.4065 9.86933 13.4709 9.97508 13.5148C10.0808 13.5588 10.1942 13.5814 10.3088 13.5814C10.4233 13.5814 10.5367 13.5588 10.6425 13.5148C10.7482 13.4709 10.8445 13.4065 10.9252 13.3253C11.0065 13.2448 11.0709 13.1489 11.1149 13.0433C11.159 12.9378 11.1816 12.8246 11.1816 12.7102C11.1816 12.5959 11.159 12.4826 11.1149 12.377C11.0709 12.2714 11.0065 12.1757 10.9252 12.0951Z" fill="#34ADB8"/>
</svg>
