<svg width="40" height="40" viewBox="0 0 40 40" fill="none" xmlns="http://www.w3.org/2000/svg">
<path class="share__icon-lite" fill-rule="evenodd" clip-rule="evenodd" d="M13.8667 0H26.1333C37.3333 0 40 2.66667 40 13.8667V26.1333C40 37.3333 37.3333 40 26.1333 40H13.8667C2.66667 40 0 37.3333 0 26.1333V13.8667C0 2.66667 2.66667 0 13.8667 0Z" fill="#bdbdbd"/>
<path class="share__icon-color" fill-rule="evenodd" clip-rule="evenodd" d="M13.8667 0H26.1333C37.3333 0 40 2.66667 40 13.8667V26.1333C40 37.3333 37.3333 40 26.1333 40H13.8667C2.66667 40 0 37.3333 0 26.1333V13.8667C0 2.66667 2.66667 0 13.8667 0Z" fill="#2787F5"/>
<path fill-rule="evenodd" clip-rule="evenodd" d="M32.7571 13.7806C32.9424 13.1626 32.7571 12.7085 31.875 12.7085H28.9584C28.2168 12.7085 27.8749 13.1008 27.6894 13.5334C27.6894 13.5334 26.2062 17.1487 24.105 19.4971C23.4253 20.1769 23.1162 20.3932 22.7454 20.3932C22.56 20.3932 22.2917 20.1769 22.2917 19.5589V13.7806C22.2917 13.039 22.0764 12.7085 21.4584 12.7085H16.875C16.4116 12.7085 16.1329 13.0527 16.1329 13.3789C16.1329 14.0819 17.1834 14.2441 17.2917 16.2217V20.5168C17.2917 21.4585 17.1217 21.6292 16.7508 21.6292C15.7621 21.6292 13.3569 17.9978 11.9304 13.8424C11.6509 13.0347 11.3705 12.7085 10.625 12.7085H7.70838C6.87505 12.7085 6.70837 13.1008 6.70837 13.5334C6.70837 14.3059 7.69719 18.1375 11.3125 23.2051C13.7226 26.6658 17.1184 28.5418 20.2084 28.5418C22.0624 28.5418 22.2917 28.1252 22.2917 27.4075V24.7918C22.2917 23.9585 22.4674 23.7922 23.0544 23.7922C23.487 23.7922 24.2286 24.0085 25.9591 25.6771C27.9367 27.6547 28.2627 28.5418 29.375 28.5418H32.2917C33.125 28.5418 33.5417 28.1252 33.3013 27.3029C33.0383 26.4834 32.0941 25.2944 30.8413 23.8849C30.1614 23.0815 29.1418 22.2163 28.8327 21.7836C28.4001 21.2275 28.5237 20.9803 28.8327 20.4859C28.8327 20.4859 32.3863 15.4801 32.7571 13.7806Z" fill="white"/>
</svg>
