<svg width="49" height="50" viewBox="0 0 49 50" fill="none" xmlns="http://www.w3.org/2000/svg">
<path fill-rule="evenodd" clip-rule="evenodd" d="M28.7358 0H45.0293C46.085 0.00708008 47.0947 0.419678 47.8386 1.14795C48.5825 1.8761 49 2.86072 49 3.88708V46.1395C49 46.6465 48.8975 47.1484 48.6978 47.6168C48.4983 48.0852 48.2058 48.5107 47.8369 48.8691C47.4683 49.2277 47.0308 49.5121 46.5491 49.7061C46.0674 49.9 45.5508 50 45.0293 50H28.7358C28.2144 50 27.698 49.9 27.2161 49.7061C26.7344 49.5121 26.2966 49.2277 25.9277 48.8691C25.5591 48.5107 25.2666 48.0852 25.0671 47.6168C24.8674 47.1484 24.7649 46.6465 24.7649 46.1395V29.0468L20.3286 25.9052C20.2266 25.8307 20.144 25.7343 20.0869 25.6233C20.0588 25.5687 20.0374 25.5114 20.0227 25.4524C20.0159 25.4249 20.0105 25.3971 20.0068 25.369C20.0022 25.3351 20 25.3007 20 25.2661C20.0029 25.1436 20.0369 25.0234 20.0989 24.9166C20.1611 24.8098 20.2495 24.7196 20.356 24.6539L24.7649 21.7784V3.88708C24.7649 2.86072 25.1824 1.8761 25.9263 1.14795C26.6699 0.419678 27.6802 0.00708008 28.7358 0ZM46.7158 47.7867C47.1619 47.3481 47.4119 46.7562 47.4119 46.1395V3.94043C47.4155 3.63403 47.3564 3.32983 47.2383 3.04578C47.1201 2.7616 46.9456 2.50317 46.7239 2.28528C46.5022 2.06738 46.2383 1.89441 45.9473 1.77625C45.6565 1.6582 45.3445 1.59741 45.0293 1.59741H28.7358C28.0967 1.59741 27.4836 1.84436 27.0317 2.28369C26.5796 2.72302 26.3259 3.31897 26.3259 3.94043V22.231C26.3276 22.3582 26.2957 22.4838 26.2334 22.5957C26.1711 22.7075 26.0803 22.802 25.97 22.8701L22.1636 25.3728L25.9973 28.0352C26.0989 28.1039 26.1819 28.1953 26.239 28.302C26.2964 28.4087 26.3262 28.5272 26.3259 28.6475V46.1395C26.333 46.7587 26.5894 47.3506 27.0396 47.7886C27.49 48.2264 28.0989 48.4755 28.7358 48.4824H45.0293C45.6638 48.4753 46.2698 48.2253 46.7158 47.7867ZM20.6272 28.7159C20.7644 28.5743 20.9478 28.4954 21.1384 28.4955C21.3264 28.455 21.5215 28.4948 21.6826 28.6061C21.6995 28.6178 21.7158 28.6302 21.7317 28.6433C21.7576 28.6647 21.782 28.6879 21.8049 28.7125C21.8325 28.7423 21.8579 28.7743 21.8806 28.8081C21.9373 28.8923 21.978 28.9885 22 29.0916V42.0438C21.9934 43.0908 21.6013 44.093 20.9087 44.8334C20.2163 45.5737 19.2791 45.9929 18.2996 46H3.70044C2.72095 45.9929 1.78345 45.5737 1.09082 44.8334C0.398438 44.093 0.0065918 43.0908 0 42.0438V7.92896C0.0065918 6.8844 0.399658 5.88525 1.09277 5.14917C1.78613 4.41309 2.72339 4 3.70044 4H18.2996C19.2766 4 20.2139 4.41309 20.9072 5.14917C21.6003 5.88525 21.9934 6.8844 22 7.92896V21.4773C22 21.6858 21.9226 21.8856 21.7847 22.0331C21.6467 22.1804 21.4602 22.2632 21.2651 22.2632C21.0703 22.2632 20.8833 22.1804 20.7454 22.0331C20.6077 21.8856 20.53 21.6858 20.53 21.4773V9.25684H1.46997V38.0336H20.4033V29.2543C20.4097 29.0505 20.49 28.8574 20.6272 28.7159ZM18.1729 5.76123H3.57349V5.62585C3.02783 5.65173 2.5105 5.89343 2.12183 6.30396C1.73315 6.71436 1.50073 7.26465 1.46997 7.84778H20.3779C20.3101 7.27295 20.0491 6.74414 19.6433 6.36023C19.2375 5.9762 18.7146 5.76331 18.1729 5.76123ZM3.57349 44.5909H18.1729V44.4554C18.7449 44.4631 19.2974 44.2328 19.7136 43.8131C20.1296 43.3934 20.377 42.8174 20.4033 42.2064V39.4967H1.34302V42.2064C1.34131 42.3684 1.35522 42.5298 1.38428 42.6879C1.41162 42.8364 1.45239 42.9822 1.5061 43.1232C1.61694 43.4141 1.78101 43.6785 1.98877 43.9006C2.10693 44.0271 2.23804 44.1384 2.37939 44.2328C2.48633 44.3041 2.59912 44.3657 2.71631 44.4167C2.82568 44.4644 2.93799 44.5024 3.05249 44.5306C3.13818 44.5519 3.2251 44.5675 3.3125 44.5776C3.39893 44.5875 3.48608 44.592 3.57349 44.5909ZM9.71313 41H11.2869C11.4761 41 11.6575 41.1582 11.791 41.4395C11.9248 41.7207 12 42.1021 12 42.4999C12 42.8977 11.9248 43.2793 11.791 43.5605C11.6575 43.8418 11.4761 44 11.2869 44H9.71313C9.52393 44 9.34253 43.8418 9.20898 43.5605C9.0752 43.2793 9 42.8977 9 42.4999C9 42.278 9.02344 42.0612 9.06738 41.864C9.10229 41.7078 9.1499 41.5638 9.20898 41.4395C9.34253 41.1582 9.52393 41 9.71313 41ZM17.9517 22.295C17.9087 22.1566 17.8247 22.0337 17.7104 21.9415C17.5962 21.8494 17.457 21.792 17.3098 21.7769L13.0955 21.177L11.2256 17.4407C11.1975 17.3854 11.1631 17.3336 11.1233 17.2865C11.0908 17.2479 11.0544 17.2125 11.0149 17.1807C10.9871 17.1583 10.9578 17.1377 10.927 17.119C10.7988 17.0411 10.6509 17 10.4998 17C10.3489 17 10.2012 17.0411 10.073 17.119C9.94482 17.1969 9.84106 17.3083 9.77417 17.4407L7.90454 21.177L3.69019 21.7769C3.54297 21.792 3.40332 21.8494 3.28931 21.9415C3.21875 21.9984 3.15991 22.0671 3.11499 22.1439C3.08716 22.1914 3.0647 22.2421 3.04834 22.295C2.99536 22.4352 2.9856 22.5874 3.02051 22.7328C3.05518 22.8783 3.13257 23.0104 3.24365 23.1132L6.28564 26.004L5.55981 30.095C5.55518 30.1237 5.552 30.1525 5.55054 30.1813C5.54883 30.2113 5.54907 30.2415 5.55103 30.2715C5.55273 30.2982 5.55566 30.3248 5.56006 30.3513C5.56348 30.3726 5.56763 30.3936 5.57275 30.4144C5.58301 30.4561 5.59644 30.4969 5.61328 30.5367C5.6377 30.5947 5.66895 30.6494 5.70605 30.7C5.7583 30.7712 5.82202 30.8341 5.89502 30.886C6.02148 30.9606 6.16602 31 6.31348 31C6.46094 31 6.60596 30.9606 6.73218 30.886L10.4998 28.9496L14.2678 30.886C14.3875 30.911 14.5107 30.911 14.6304 30.886C14.717 30.9078 14.8062 30.9176 14.895 30.915C14.9656 30.9131 15.0359 30.9034 15.105 30.886C15.1553 30.8459 15.2009 30.801 15.2415 30.752C15.2961 30.6854 15.3411 30.6115 15.3748 30.5319C15.4331 30.3938 15.4556 30.2437 15.4397 30.095L14.7141 26.004L17.7563 23.1132C17.8672 23.0104 17.9448 22.8783 17.9795 22.7328C18.0144 22.5874 18.0046 22.4352 17.9517 22.295ZM13.2908 25.1859C13.1951 25.27 13.1238 25.3776 13.0847 25.4974C13.0454 25.6172 13.0396 25.745 13.0676 25.8678L13.5701 28.8132L10.7793 27.4224C10.666 27.3691 10.542 27.3416 10.4163 27.3416C10.2908 27.3416 10.1667 27.3691 10.0535 27.4224L7.2627 28.8132L7.76489 25.8678C7.77222 25.835 7.77734 25.8018 7.78003 25.7683C7.78174 25.7448 7.78247 25.7211 7.78198 25.6975C7.78052 25.6299 7.76904 25.5625 7.7478 25.4974C7.7085 25.3776 7.63745 25.27 7.54175 25.1859L5.36475 23.0859L8.37866 22.6769C8.63379 22.6155 8.85449 22.4587 8.99292 22.2405L10.3325 19.5132L11.6721 22.2405C11.6814 22.2561 11.6909 22.2715 11.7009 22.2864L11.7144 22.3063L11.7295 22.327C11.7554 22.3617 11.7837 22.3944 11.8145 22.4249C11.8333 22.4436 11.8528 22.4615 11.873 22.4786C11.8916 22.4943 11.9111 22.5093 11.9312 22.5234C12.0369 22.5986 12.158 22.651 12.2861 22.6769L15.3005 23.0859L13.2908 25.1859ZM37.2593 9.44189C37.1184 9.2998 36.9307 9.22156 36.7363 9.22412C36.6814 9.22485 36.6272 9.23193 36.5745 9.24512C36.5466 9.25208 36.5193 9.26062 36.4927 9.27087C36.4741 9.27795 36.4558 9.28577 36.4377 9.29443C36.405 9.31018 36.3733 9.32837 36.3428 9.349C36.2981 9.37939 36.2563 9.41492 36.2183 9.4552C36.0808 9.60083 36.0024 9.79761 36 10.0035C35.9978 10.2095 36.0713 10.4083 36.2056 10.5574L37.3621 11.7548C37.3826 11.7809 37.4048 11.8053 37.4287 11.8278C37.439 11.8374 37.4495 11.8467 37.4602 11.8556C37.4702 11.864 37.4807 11.8722 37.4915 11.88C37.5042 11.8893 37.5171 11.8981 37.5305 11.9064C37.5505 11.9187 37.571 11.9299 37.5923 11.9401C37.6814 11.9824 37.7783 12.0029 37.876 11.9996C38.0659 11.9922 38.2476 11.9152 38.3901 11.782L42.7842 7.31934C42.8525 7.24841 42.9067 7.1637 42.9438 7.07019C42.9517 7.05017 42.9587 7.02991 42.9651 7.0094C42.9695 6.99561 42.9734 6.98169 42.9768 6.96753L42.9819 6.94482L42.9885 6.91101L42.9937 6.87708C42.9958 6.85974 42.9976 6.84229 42.9985 6.82471C42.9995 6.80823 43 6.79175 43 6.77515C43 6.67371 42.981 6.57336 42.9438 6.47998C42.9067 6.38647 42.8525 6.30188 42.7842 6.23096C42.6445 6.08301 42.4551 6 42.2576 6C42.0598 6 41.8704 6.08301 41.7305 6.23096L37.8501 10.1492L37.2593 9.44189ZM41.7175 9.46887C41.8584 9.328 42.0493 9.24878 42.2485 9.24878C42.3472 9.24878 42.4453 9.26831 42.5364 9.30603C42.5505 9.31189 42.5645 9.31812 42.5781 9.32483C42.592 9.33154 42.6055 9.33875 42.6187 9.34619C42.6353 9.35559 42.6516 9.3656 42.6672 9.37622C42.6909 9.39221 42.7141 9.40955 42.7358 9.42822C42.751 9.44116 42.7656 9.45471 42.7798 9.46887C42.8496 9.5387 42.905 9.62134 42.9429 9.71252C42.9563 9.74487 42.9673 9.77808 42.9761 9.81177L42.9856 9.85266L42.9907 9.88281C42.9968 9.92151 43 9.96069 43 10C43 10.9889 42.707 11.9556 42.1575 12.7778C41.6082 13.6001 40.8271 14.2408 39.9133 14.6194C38.9998 14.9978 37.9944 15.0969 37.0244 14.9039C36.0547 14.7111 35.1638 14.2349 34.4644 13.5355C33.7651 12.8363 33.2891 11.9453 33.0959 10.9755C32.9031 10.0056 33.0022 9.00024 33.3806 8.08655C33.759 7.17297 34.3999 6.39221 35.2222 5.84277C36.0444 5.29333 37.0112 5.00012 38 5.00012C38.6206 4.99646 39.2358 5.11072 39.8135 5.33691C39.9617 5.4303 40.0728 5.57263 40.1272 5.73926C40.1816 5.90588 40.176 6.0863 40.1113 6.24927C40.0469 6.41211 39.9275 6.54749 39.7737 6.63159C39.675 6.68555 39.5664 6.71631 39.4558 6.72253C39.418 6.72473 39.3801 6.724 39.3423 6.72046C39.3179 6.71814 39.2937 6.7146 39.2695 6.70996C38.5798 6.44543 37.8235 6.40771 37.1108 6.60254C36.3982 6.79736 35.7661 7.21436 35.3069 7.79297C34.8477 8.37158 34.585 9.08167 34.5571 9.81995C34.5293 10.5581 34.7375 11.2859 35.1516 11.8976C35.5659 12.5093 36.1646 12.973 36.8604 13.2211C37.5562 13.4691 38.3132 13.4886 39.021 13.2771C39.7288 13.0654 40.3503 12.6335 40.7957 12.0442C41.2412 11.4548 41.4871 10.7386 41.4976 10C41.4976 9.80078 41.5767 9.60974 41.7175 9.46887ZM37.2563 25.0541C37.116 24.8888 36.9287 24.798 36.7346 24.8008C36.6501 24.802 36.5674 24.821 36.4895 24.8561C36.3884 24.9016 36.2954 24.974 36.218 25.0697C36.0806 25.2393 36.0024 25.4684 36 25.708C35.9978 25.9478 36.0713 26.1792 36.2051 26.3528L37.3591 27.7463C37.3875 27.7806 37.418 27.8119 37.4502 27.8398C37.4951 27.8787 37.5435 27.9111 37.5947 27.9364C37.6829 27.9799 37.7771 28.0013 37.8718 27.9996C37.9084 28.001 37.9451 27.9988 37.9814 27.993C38.0391 27.9839 38.0955 27.9657 38.1497 27.939C38.2039 27.9122 38.2549 27.8772 38.3018 27.8347C38.3313 27.8081 38.3591 27.7786 38.3848 27.7463L42.7693 22.5837C42.9121 22.4158 42.9949 22.1844 42.9998 21.9409C43.0046 21.6974 42.9312 21.4614 42.7952 21.285C42.6592 21.1086 42.4717 21.0062 42.2747 21.0002C42.0774 20.9944 41.8865 21.0853 41.7437 21.2533L37.8718 25.8142L37.2563 25.0541ZM41.9631 24.7545C42.054 24.7161 42.1511 24.6981 42.2485 24.7019C42.3459 24.6981 42.4431 24.7161 42.5342 24.7545C42.6252 24.7928 42.7085 24.851 42.7786 24.9254C42.8486 24.9999 42.9043 25.0892 42.9424 25.1879C42.9609 25.2358 42.9751 25.2855 42.9846 25.3362L42.9912 25.3745C42.9971 25.416 43 25.4579 43 25.5C43 26.5878 42.707 27.6511 42.1575 28.5557C41.6082 29.4601 40.8271 30.165 39.9133 30.5813C38.9998 30.9976 37.9944 31.1066 37.0244 30.8943C36.0547 30.6821 35.1638 30.1583 34.4644 29.3892C33.7651 28.6199 33.2891 27.6399 33.0959 26.573C32.9031 25.5061 33.0022 24.4001 33.3806 23.3951C33.759 22.3901 34.3999 21.5312 35.2222 20.9269C36.0444 20.3225 37.0112 20 38 20C38.6194 20.0096 39.2324 20.1349 39.8135 20.3705C39.9902 20.4565 40.1301 20.6141 40.2041 20.8107C40.2454 20.9204 40.2642 21.0376 40.2605 21.1543C40.2576 21.2465 40.2407 21.3383 40.2097 21.4258C40.1396 21.6239 40.0029 21.7848 39.8276 21.8749C39.6526 21.9648 39.4526 21.9772 39.2695 21.9093C38.5789 21.6178 37.8213 21.5767 37.1077 21.7919C36.394 22.0071 35.7617 22.4675 35.3027 23.106C34.844 23.7443 34.5825 24.5273 34.5564 25.3406C34.5305 26.1539 34.7415 26.9552 35.1587 27.6273C35.5757 28.2996 36.1772 28.8075 36.8752 29.0773C37.5732 29.347 38.3313 29.3645 39.0391 29.127C39.7466 28.8895 40.3667 28.4095 40.8091 27.7571C41.2512 27.1046 41.4927 26.3138 41.4976 25.5C41.4976 25.3927 41.5171 25.2866 41.5552 25.1879C41.593 25.0892 41.6487 24.9999 41.719 24.9254C41.7629 24.8787 41.812 24.8384 41.8647 24.8054C41.8962 24.7858 41.9292 24.7688 41.9631 24.7545ZM37.2803 39.8682C37.2119 39.8047 37.1301 39.7539 37.0393 39.7189C37.0032 39.705 36.9658 39.6936 36.9277 39.6849C36.8914 39.6765 36.8542 39.6707 36.8167 39.6674C36.7952 39.6655 36.7734 39.6644 36.7517 39.6642C36.6885 39.6635 36.6257 39.6699 36.5647 39.6833C36.53 39.6909 36.4958 39.7007 36.4626 39.7126C36.3708 39.7457 36.2876 39.7947 36.2175 39.8567C36.1475 39.9187 36.092 39.9926 36.0547 40.0737C36.0173 40.155 35.9988 40.2421 36 40.3298C36.0012 40.4175 36.0225 40.504 36.062 40.5845C36.1016 40.6648 36.1587 40.7374 36.2305 40.7979L37.3828 41.7955C37.4451 41.8618 37.5234 41.9147 37.6121 41.9501C37.7009 41.9854 37.7974 42.0024 37.8948 41.9998C38.084 41.9935 38.2651 41.9293 38.407 41.8182L42.7849 38.0995C42.853 38.0403 42.9072 37.9698 42.9441 37.892C42.981 37.8141 43 37.7305 43 37.646C43 37.5616 42.981 37.478 42.9441 37.4001C42.9314 37.3732 42.9165 37.347 42.8997 37.322C42.8679 37.2748 42.8293 37.2311 42.7849 37.1925C42.6458 37.0693 42.457 37 42.2603 37C42.0635 37 41.8743 37.0693 41.7351 37.1925L37.8691 40.4578L37.2803 39.8682ZM41.7175 40.0219C41.8584 39.8951 42.0493 39.8239 42.2485 39.8239C42.3472 39.8239 42.4453 39.8413 42.5364 39.8754C42.6274 39.9093 42.7102 39.9591 42.7798 40.0219C42.8496 40.0847 42.905 40.1592 42.9429 40.2412C42.9805 40.3232 43 40.4113 43 40.5C43 41.39 42.707 42.26 42.1575 43C41.6082 43.74 40.8271 44.3169 39.9133 44.6575C38.9998 44.998 37.9944 45.0872 37.0244 44.9136C36.0547 44.7399 35.1638 44.3113 34.4644 43.682C33.7651 43.0526 33.2891 42.2509 33.0959 41.3779C32.9031 40.505 33.0022 39.6002 33.3806 38.778C33.759 37.9557 34.3999 37.2529 35.2222 36.7584C36.0444 36.264 37.0112 36.0001 38 36.0001C38.6206 35.9968 39.2358 36.0995 39.8135 36.3031C39.9617 36.3872 40.0728 36.5153 40.1272 36.6653C40.1816 36.8152 40.176 36.9775 40.1113 37.1241C40.0469 37.2709 39.9275 37.3926 39.7737 37.4683C39.6199 37.5441 39.4417 37.569 39.2695 37.5388C38.8643 37.3997 38.4338 37.3285 38 37.329C37.3022 37.3243 36.6184 37.5065 36.0356 37.8521C35.4529 38.1978 34.9971 38.6912 34.7263 39.2703C34.4556 39.8492 34.3823 40.4875 34.5154 41.1041C34.6484 41.7208 34.9819 42.2881 35.4736 42.7339C35.9653 43.1797 36.593 43.484 37.2771 43.6083C37.9614 43.7325 38.6709 43.6711 39.3164 43.4318C39.9617 43.1925 40.5134 42.7861 40.9016 42.2642C41.29 41.7422 41.4976 41.1282 41.4976 40.5C41.4976 40.3207 41.5767 40.1487 41.7175 40.0219Z" fill="#34ADB8"/>
</svg>
