<svg width="12" height="12" viewBox="0 0 12 12" fill="none" xmlns="http://www.w3.org/2000/svg">
    <path class="share__icon-lite" d="M0.0500331 5.94597C0.0497215 6.99377 0.324726 8.01689 0.847692 8.91868L0 12L3.16744 11.1732C4.04011 11.6467 5.02263 11.8965 6.02258 11.8969H6.02525C9.31813 11.8969 11.9986 9.2293 12 5.9506C12.0007 4.36179 11.3797 2.86786 10.2515 1.74393C9.12356 0.619996 7.62337 0.000709236 6.02503 2.14008e-07C2.73174 2.14008e-07 0.0513685 2.66739 0.0500331 5.94599" fill="#bdbdbd"/>
    <path class="share__icon-color" d="M0.0500331 5.94597C0.0497215 6.99377 0.324726 8.01689 0.847692 8.91868L0 12L3.16744 11.1732C4.04011 11.6467 5.02263 11.8965 6.02258 11.8969H6.02525C9.31813 11.8969 11.9986 9.2293 12 5.9506C12.0007 4.36179 11.3797 2.86786 10.2515 1.74393C9.12356 0.619996 7.62337 0.000709236 6.02503 2.14008e-07C2.73174 2.14008e-07 0.0513685 2.66739 0.0500331 5.94599" fill="url(#WhatsAppIconLinearGradient)"/>
    <path fill-rule="evenodd" clip-rule="evenodd" d="M4.48748 3.39034C4.37142 3.13236 4.24925 3.12716 4.13883 3.12263C4.04852 3.11878 3.94513 3.11902 3.84191 3.11902C3.73863 3.11902 3.57075 3.15782 3.4288 3.31286C3.28676 3.46789 2.88647 3.84267 2.88647 4.60495C2.88647 5.36731 3.44171 6.10385 3.51911 6.20731C3.59657 6.31064 4.59096 7.92486 6.16572 8.5459C7.47451 9.062 7.74084 8.95935 8.02491 8.93352C8.30898 8.9077 8.94157 8.55881 9.07068 8.19703C9.1998 7.83529 9.1998 7.52524 9.16107 7.46042C9.12232 7.39585 9.01903 7.35712 8.86409 7.27963C8.70912 7.20215 7.94742 6.82728 7.80539 6.77563C7.66335 6.72399 7.56005 6.69817 7.45676 6.85328C7.35346 7.00825 7.05674 7.35712 6.9663 7.46044C6.87593 7.56397 6.78555 7.57688 6.63058 7.4994C6.47564 7.42169 5.97664 7.25825 5.38467 6.73046C4.92409 6.31982 4.61317 5.81268 4.52273 5.65758C4.43236 5.50261 4.51308 5.41868 4.59078 5.34144C4.66035 5.27203 4.74575 5.16061 4.82322 5.07012C4.90052 4.97966 4.92637 4.91509 4.97801 4.81178C5.02965 4.70832 5.00383 4.61783 4.9651 4.54037C4.92636 4.46289 4.62526 3.69667 4.48748 3.39034" fill="white"/>
</svg>
