<svg width="36" height="40" viewBox="0 0 33 37" fill="none" xmlns="http://www.w3.org/2000/svg">
    <path class="icon-background-lite" d="M8.0743 32.0434C8.0743 30.9338 8.0743 29.8256 8.0743 28.716C8.0785 28.6925 8.07779 28.6684 8.07223 28.6452C8.06667 28.622 8.05638 28.6002 8.042 28.5812C8.02763 28.5623 8.0095 28.5465 7.98876 28.535C7.96803 28.5236 7.94515 28.5166 7.92159 28.5145C6.62405 28.1577 5.41496 27.5302 4.37233 26.6724C3.38105 25.8332 2.58615 24.7827 2.04474 23.5963C1.55159 22.5163 1.20646 21.3734 1.01888 20.1993C0.873718 19.4076 0.788087 18.6059 0.762722 17.8011C0.739323 16.7401 0.735628 15.6791 0.731934 14.618C0.731934 14.2212 0.754101 13.8245 0.759027 13.4277C0.772357 12.527 0.832786 11.6277 0.940062 10.7334C1.07735 9.44025 1.37015 8.16877 1.81198 6.94712C2.18812 5.9057 2.7297 4.93312 3.41543 4.06756C4.20238 3.09113 5.20484 2.39705 6.31691 1.85597C7.56691 1.25988 8.88709 0.827251 10.2455 0.568567C10.9585 0.425523 11.6814 0.30238 12.3994 0.211578C13.0632 0.126995 13.7319 0.0871909 14.4007 0.0486311C15.0694 0.0100712 15.7332 -0.00485523 16.3982 0.0013641C17.2603 0.0100712 18.1334 0.0262414 18.9979 0.0822155C19.9031 0.140677 20.8095 0.219041 21.7073 0.34094C23.6543 0.605883 25.546 1.08726 27.3341 1.93682C27.9844 2.24406 28.6223 2.57368 29.1728 3.0563C30.0581 3.84285 30.7612 4.81663 31.2319 5.90849C31.7412 7.0526 32.1022 8.25834 32.3058 9.4958C32.445 10.3093 32.5521 11.129 32.6334 11.9499C32.7283 13.1153 32.7546 14.2854 32.7122 15.4539C32.6974 16.0958 32.6593 16.7376 32.6125 17.3782C32.5139 18.7265 32.3957 20.0724 32.078 21.3909C31.7159 22.896 31.1236 24.2904 30.1408 25.4957C29.1061 26.7743 27.7159 27.7106 26.1494 28.1837C24.8699 28.5925 23.5621 28.9051 22.2369 29.119C21.4158 29.2459 20.5928 29.3558 19.7676 29.4487C19.2085 29.5109 18.6445 29.5345 18.0829 29.5606C17.5213 29.5867 16.9302 29.6104 16.3588 29.6054C15.7011 29.6054 15.0447 29.5643 14.3883 29.537C14.3369 29.5288 14.2843 29.5344 14.2357 29.5532C14.1871 29.5719 14.1442 29.6032 14.1112 29.644C12.984 30.9857 11.8551 32.3282 10.7245 33.6716C10.1741 34.3196 9.60016 34.9478 9.03366 35.5834C8.87044 35.7974 8.63668 35.9453 8.37479 36.0001C8.35395 36.0072 8.3319 36.0098 8.31 36.0079C8.2881 36.0061 8.26681 35.9997 8.24743 35.9892C8.22806 35.9787 8.21101 35.9644 8.19733 35.947C8.18366 35.9296 8.17364 35.9096 8.16789 35.8882C8.08722 35.7023 8.0453 35.5016 8.04474 35.2986C8.04474 34.2152 8.04474 33.1318 8.04474 32.0484H8.0706L8.0743 32.0434ZM22.6309 25.6872C23.1262 25.6726 23.6057 25.5074 24.0066 25.2133C24.8308 24.6204 25.5091 23.8441 25.9893 22.9445C26.1164 22.719 26.1882 22.4661 26.1987 22.2069C26.2091 21.9842 26.1664 21.7622 26.0743 21.5596C25.9821 21.357 25.8432 21.1797 25.6691 21.0426C25.4967 20.8946 25.3194 20.7528 25.1457 20.606C24.2072 19.8032 23.1953 19.0922 22.1236 18.4827C21.8201 18.3039 21.472 18.2175 21.1211 18.234C20.8987 18.2392 20.6801 18.294 20.4811 18.3944C20.282 18.4948 20.1074 18.6384 19.9696 18.8148C19.8071 19.0201 19.6531 19.2315 19.4906 19.4368C19.2566 19.7328 19.0078 20.0115 18.6125 20.0848C18.3799 20.1218 18.142 20.1031 17.9179 20.0301C16.6162 19.6537 15.4234 18.9664 14.4401 18.0262C13.1961 16.8342 12.2622 15.3509 11.7208 13.7075C11.6524 13.5198 11.6371 13.3166 11.6767 13.1206C11.7163 12.9246 11.8092 12.7436 11.945 12.598C12.1726 12.3652 12.4198 12.153 12.6839 11.9636C12.9696 11.7348 13.2603 11.5084 13.4031 11.1551C13.642 10.5643 13.5423 10.0033 13.2356 9.46346C12.5312 8.21959 11.6741 7.10011 10.764 6.00924C10.556 5.7451 10.2643 5.56134 9.93799 5.48885C9.61167 5.41637 9.27058 5.45957 8.97208 5.6112C8.46988 5.87156 8.00367 6.19733 7.58538 6.58018C7.18416 6.91739 6.83543 7.31364 6.5509 7.75563C6.13957 8.4211 6.01026 9.13135 6.28489 9.88637C6.42282 10.2595 6.55459 10.6476 6.71715 11.017C7.48446 12.7914 8.39819 14.4973 9.44868 16.1169C10.6645 18.0049 12.1712 19.6845 13.9117 21.0924C16.2024 22.9184 18.743 24.304 21.4364 25.4173C21.8148 25.5806 22.2197 25.6721 22.6309 25.6872ZM26.8711 15.0982C26.8428 14.6516 26.8292 14.2026 26.7837 13.7585C26.7104 13.0429 26.5744 12.3353 26.3773 11.644C26.0374 10.3849 25.4512 9.20737 24.6531 8.18103C23.2901 6.44852 21.4036 5.21364 19.2812 4.66462C18.6978 4.50746 18.1012 4.40503 17.4992 4.35863C17.1297 4.33002 16.7504 4.32505 16.376 4.33002C16.2591 4.33182 16.1474 4.37867 16.0636 4.46099C15.9798 4.54332 15.9303 4.65488 15.9253 4.77284C15.9093 5.0751 16.0484 5.29775 16.3157 5.33133C16.6851 5.3786 17.0608 5.40721 17.4351 5.42835C18.03 5.46184 18.6185 5.56878 19.1876 5.74678C22.28 6.70705 24.3933 8.68604 25.3452 11.8492C25.6501 12.9071 25.8032 14.0038 25.7997 15.1056C25.8 15.2171 25.8174 15.3279 25.8514 15.434C25.8777 15.5178 25.9248 15.5933 25.9883 15.6533C26.0518 15.7134 26.1294 15.7559 26.2139 15.7769C26.2984 15.7979 26.3867 15.7966 26.4705 15.7731C26.5544 15.7497 26.6308 15.7049 26.6925 15.643C26.8526 15.495 26.8736 15.3022 26.8711 15.0982ZM17.4425 6.94338C17.3994 6.94338 17.3575 6.94338 17.3194 6.94338C17.2021 6.94754 17.0897 6.99156 17.0002 7.06832C16.9108 7.14508 16.8497 7.25007 16.8268 7.3663C16.7984 7.4689 16.8054 7.57819 16.8465 7.67627C16.8877 7.77434 16.9606 7.85539 17.0534 7.90614C17.1786 7.96859 17.3144 8.00657 17.4536 8.01809C17.9664 8.05929 18.4743 8.1484 18.9708 8.28427C20.8637 8.83531 22.1728 10.0257 22.8489 11.9052C23.0591 12.5151 23.1665 13.1563 23.1667 13.8021C23.1644 13.9783 23.1743 14.1546 23.1962 14.3295C23.2221 14.4541 23.2926 14.5647 23.394 14.6403C23.4955 14.7159 23.621 14.7511 23.7465 14.7393C23.8721 14.7274 23.9889 14.6694 24.0748 14.5761C24.1607 14.4829 24.2096 14.361 24.2122 14.2337C24.2407 13.6404 24.1993 13.0458 24.0891 12.4624C23.8566 11.2461 23.2952 10.1185 22.4672 9.20473C21.6291 8.29912 20.5626 7.6412 19.3822 7.30162C18.7482 7.12103 18.0988 7.00109 17.4425 6.94338ZM21.6297 13.1988C21.5866 12.9065 21.5644 12.6092 21.4967 12.3281C21.3322 11.5408 20.8957 10.8384 20.2652 10.3466C19.8329 10.0132 19.3218 9.87891 18.8095 9.74706C18.5225 9.66064 18.2182 9.65121 17.9265 9.7197C17.8172 9.74437 17.7207 9.80861 17.6551 9.90028C17.5895 9.99195 17.5595 10.1047 17.5706 10.2172C17.5709 10.3435 17.6178 10.4652 17.702 10.5585C17.7862 10.6518 17.9018 10.7102 18.0263 10.7223C18.3008 10.7506 18.5735 10.7955 18.8428 10.8566C19.5669 11.0332 20.1075 11.4512 20.3428 12.1788C20.4542 12.5747 20.5365 12.9784 20.5891 13.3866C20.5957 13.4812 20.6277 13.5723 20.6818 13.6499C20.7358 13.7275 20.8098 13.7887 20.8957 13.8269C20.9849 13.8695 21.0845 13.8846 21.1822 13.8704C21.2798 13.8563 21.3712 13.8135 21.445 13.7473C21.6248 13.5993 21.6162 13.3966 21.6346 13.1988H21.6297Z" fill="#bdbdbd" />
    <path class="icon-background-color" d="M8.0743 32.0434C8.0743 30.9338 8.0743 29.8256 8.0743 28.716C8.0785 28.6925 8.07779 28.6684 8.07223 28.6452C8.06667 28.622 8.05638 28.6002 8.042 28.5812C8.02763 28.5623 8.0095 28.5465 7.98876 28.535C7.96803 28.5236 7.94515 28.5166 7.92159 28.5145C6.62405 28.1577 5.41496 27.5302 4.37233 26.6724C3.38105 25.8332 2.58615 24.7827 2.04474 23.5963C1.55159 22.5163 1.20646 21.3734 1.01888 20.1993C0.873718 19.4076 0.788087 18.6059 0.762722 17.8011C0.739323 16.7401 0.735628 15.6791 0.731934 14.618C0.731934 14.2212 0.754101 13.8245 0.759027 13.4277C0.772357 12.527 0.832786 11.6277 0.940062 10.7334C1.07735 9.44025 1.37015 8.16877 1.81198 6.94712C2.18812 5.9057 2.7297 4.93312 3.41543 4.06756C4.20238 3.09113 5.20484 2.39705 6.31691 1.85597C7.56691 1.25988 8.88709 0.827251 10.2455 0.568567C10.9585 0.425523 11.6814 0.30238 12.3994 0.211578C13.0632 0.126995 13.7319 0.0871909 14.4007 0.0486311C15.0694 0.0100712 15.7332 -0.00485523 16.3982 0.0013641C17.2603 0.0100712 18.1334 0.0262414 18.9979 0.0822155C19.9031 0.140677 20.8095 0.219041 21.7073 0.34094C23.6543 0.605883 25.546 1.08726 27.3341 1.93682C27.9844 2.24406 28.6223 2.57368 29.1728 3.0563C30.0581 3.84285 30.7612 4.81663 31.2319 5.90849C31.7412 7.0526 32.1022 8.25834 32.3058 9.4958C32.445 10.3093 32.5521 11.129 32.6334 11.9499C32.7283 13.1153 32.7546 14.2854 32.7122 15.4539C32.6974 16.0958 32.6593 16.7376 32.6125 17.3782C32.5139 18.7265 32.3957 20.0724 32.078 21.3909C31.7159 22.896 31.1236 24.2904 30.1408 25.4957C29.1061 26.7743 27.7159 27.7106 26.1494 28.1837C24.8699 28.5925 23.5621 28.9051 22.2369 29.119C21.4158 29.2459 20.5928 29.3558 19.7676 29.4487C19.2085 29.5109 18.6445 29.5345 18.0829 29.5606C17.5213 29.5867 16.9302 29.6104 16.3588 29.6054C15.7011 29.6054 15.0447 29.5643 14.3883 29.537C14.3369 29.5288 14.2843 29.5344 14.2357 29.5532C14.1871 29.5719 14.1442 29.6032 14.1112 29.644C12.984 30.9857 11.8551 32.3282 10.7245 33.6716C10.1741 34.3196 9.60016 34.9478 9.03366 35.5834C8.87044 35.7974 8.63668 35.9453 8.37479 36.0001C8.35395 36.0072 8.3319 36.0098 8.31 36.0079C8.2881 36.0061 8.26681 35.9997 8.24743 35.9892C8.22806 35.9787 8.21101 35.9644 8.19733 35.947C8.18366 35.9296 8.17364 35.9096 8.16789 35.8882C8.08722 35.7023 8.0453 35.5016 8.04474 35.2986C8.04474 34.2152 8.04474 33.1318 8.04474 32.0484H8.0706L8.0743 32.0434ZM22.6309 25.6872C23.1262 25.6726 23.6057 25.5074 24.0066 25.2133C24.8308 24.6204 25.5091 23.8441 25.9893 22.9445C26.1164 22.719 26.1882 22.4661 26.1987 22.2069C26.2091 21.9842 26.1664 21.7622 26.0743 21.5596C25.9821 21.357 25.8432 21.1797 25.6691 21.0426C25.4967 20.8946 25.3194 20.7528 25.1457 20.606C24.2072 19.8032 23.1953 19.0922 22.1236 18.4827C21.8201 18.3039 21.472 18.2175 21.1211 18.234C20.8987 18.2392 20.6801 18.294 20.4811 18.3944C20.282 18.4948 20.1074 18.6384 19.9696 18.8148C19.8071 19.0201 19.6531 19.2315 19.4906 19.4368C19.2566 19.7328 19.0078 20.0115 18.6125 20.0848C18.3799 20.1218 18.142 20.1031 17.9179 20.0301C16.6162 19.6537 15.4234 18.9664 14.4401 18.0262C13.1961 16.8342 12.2622 15.3509 11.7208 13.7075C11.6524 13.5198 11.6371 13.3166 11.6767 13.1206C11.7163 12.9246 11.8092 12.7436 11.945 12.598C12.1726 12.3652 12.4198 12.153 12.6839 11.9636C12.9696 11.7348 13.2603 11.5084 13.4031 11.1551C13.642 10.5643 13.5423 10.0033 13.2356 9.46346C12.5312 8.21959 11.6741 7.10011 10.764 6.00924C10.556 5.7451 10.2643 5.56134 9.93799 5.48885C9.61167 5.41637 9.27058 5.45957 8.97208 5.6112C8.46988 5.87156 8.00367 6.19733 7.58538 6.58018C7.18416 6.91739 6.83543 7.31364 6.5509 7.75563C6.13957 8.4211 6.01026 9.13135 6.28489 9.88637C6.42282 10.2595 6.55459 10.6476 6.71715 11.017C7.48446 12.7914 8.39819 14.4973 9.44868 16.1169C10.6645 18.0049 12.1712 19.6845 13.9117 21.0924C16.2024 22.9184 18.743 24.304 21.4364 25.4173C21.8148 25.5806 22.2197 25.6721 22.6309 25.6872ZM26.8711 15.0982C26.8428 14.6516 26.8292 14.2026 26.7837 13.7585C26.7104 13.0429 26.5744 12.3353 26.3773 11.644C26.0374 10.3849 25.4512 9.20737 24.6531 8.18103C23.2901 6.44852 21.4036 5.21364 19.2812 4.66462C18.6978 4.50746 18.1012 4.40503 17.4992 4.35863C17.1297 4.33002 16.7504 4.32505 16.376 4.33002C16.2591 4.33182 16.1474 4.37867 16.0636 4.46099C15.9798 4.54332 15.9303 4.65488 15.9253 4.77284C15.9093 5.0751 16.0484 5.29775 16.3157 5.33133C16.6851 5.3786 17.0608 5.40721 17.4351 5.42835C18.03 5.46184 18.6185 5.56878 19.1876 5.74678C22.28 6.70705 24.3933 8.68604 25.3452 11.8492C25.6501 12.9071 25.8032 14.0038 25.7997 15.1056C25.8 15.2171 25.8174 15.3279 25.8514 15.434C25.8777 15.5178 25.9248 15.5933 25.9883 15.6533C26.0518 15.7134 26.1294 15.7559 26.2139 15.7769C26.2984 15.7979 26.3867 15.7966 26.4705 15.7731C26.5544 15.7497 26.6308 15.7049 26.6925 15.643C26.8526 15.495 26.8736 15.3022 26.8711 15.0982ZM17.4425 6.94338C17.3994 6.94338 17.3575 6.94338 17.3194 6.94338C17.2021 6.94754 17.0897 6.99156 17.0002 7.06832C16.9108 7.14508 16.8497 7.25007 16.8268 7.3663C16.7984 7.4689 16.8054 7.57819 16.8465 7.67627C16.8877 7.77434 16.9606 7.85539 17.0534 7.90614C17.1786 7.96859 17.3144 8.00657 17.4536 8.01809C17.9664 8.05929 18.4743 8.1484 18.9708 8.28427C20.8637 8.83531 22.1728 10.0257 22.8489 11.9052C23.0591 12.5151 23.1665 13.1563 23.1667 13.8021C23.1644 13.9783 23.1743 14.1546 23.1962 14.3295C23.2221 14.4541 23.2926 14.5647 23.394 14.6403C23.4955 14.7159 23.621 14.7511 23.7465 14.7393C23.8721 14.7274 23.9889 14.6694 24.0748 14.5761C24.1607 14.4829 24.2096 14.361 24.2122 14.2337C24.2407 13.6404 24.1993 13.0458 24.0891 12.4624C23.8566 11.2461 23.2952 10.1185 22.4672 9.20473C21.6291 8.29912 20.5626 7.6412 19.3822 7.30162C18.7482 7.12103 18.0988 7.00109 17.4425 6.94338ZM21.6297 13.1988C21.5866 12.9065 21.5644 12.6092 21.4967 12.3281C21.3322 11.5408 20.8957 10.8384 20.2652 10.3466C19.8329 10.0132 19.3218 9.87891 18.8095 9.74706C18.5225 9.66064 18.2182 9.65121 17.9265 9.7197C17.8172 9.74437 17.7207 9.80861 17.6551 9.90028C17.5895 9.99195 17.5595 10.1047 17.5706 10.2172C17.5709 10.3435 17.6178 10.4652 17.702 10.5585C17.7862 10.6518 17.9018 10.7102 18.0263 10.7223C18.3008 10.7506 18.5735 10.7955 18.8428 10.8566C19.5669 11.0332 20.1075 11.4512 20.3428 12.1788C20.4542 12.5747 20.5365 12.9784 20.5891 13.3866C20.5957 13.4812 20.6277 13.5723 20.6818 13.6499C20.7358 13.7275 20.8098 13.7887 20.8957 13.8269C20.9849 13.8695 21.0845 13.8846 21.1822 13.8704C21.2798 13.8563 21.3712 13.8135 21.445 13.7473C21.6248 13.5993 21.6162 13.3966 21.6346 13.1988H21.6297Z" fill="#7b519d" />
</svg>