<svg width="52" height="52" viewBox="0 0 52 52" fill="none" xmlns="http://www.w3.org/2000/svg">
<path fill-rule="evenodd" clip-rule="evenodd" d="M42.3046 1.30082C42.3046 1.87065 41.8596 2.33259 41.3108 2.33259C40.7619 2.33259 40.317 1.87065 40.317 1.30082C40.317 0.730984 40.7619 0.269043 41.3108 0.269043C41.8596 0.269043 42.3046 0.730984 42.3046 1.30082ZM22.4246 11.0478H25.8482H25.8489H29.2999V17.469H22.4246V11.0478ZM21.7893 9.3849H25.075V5.83042L25.0751 5.78979C25.0579 4.86409 24.6961 3.98057 24.0648 3.32514C23.4243 2.66013 22.5577 2.28317 21.6518 2.27568H21.0717C20.1637 2.27568 19.2931 2.6502 18.651 3.31683C18.0089 3.98346 17.6479 4.88766 17.6479 5.83042C17.6479 6.77318 18.0089 7.67738 18.651 8.34402C19.285 9.0022 20.1417 9.37554 21.0372 9.3849H21.7893ZM25.1855 2.16143C25.4428 2.42855 25.6692 2.72181 25.8622 3.03518C26.0552 2.72181 26.2815 2.42855 26.5388 2.16143C27.4761 1.18836 28.747 0.641741 30.0725 0.641741H30.6526C31.9175 0.739283 33.0998 1.32974 33.9628 2.29475C34.8259 3.25976 35.3057 4.52794 35.3057 5.84477C35.3057 7.15714 34.8291 8.42111 33.9716 9.3849H41.5317C41.6356 9.38483 41.7384 9.40647 41.834 9.44859C41.9297 9.4907 42.0164 9.55243 42.0885 9.63003C42.1607 9.70763 42.2168 9.79946 42.254 9.90018C42.2912 10.0009 42.3086 10.1084 42.3049 10.2162V18.3002C42.3086 18.408 42.2912 18.5155 42.254 18.6162C42.2168 18.7169 42.1607 18.8089 42.0885 18.8865C42.0164 18.9641 41.9297 19.0257 41.834 19.0678C41.7384 19.1099 41.6356 19.1317 41.5317 19.1317H40.6209V30.0539C40.6426 30.174 40.6386 30.2974 40.6091 30.4157C40.5796 30.534 40.5255 30.6441 40.4503 30.7382C40.3752 30.8323 40.2808 30.9081 40.1743 30.9601C40.0677 31.012 39.9515 31.0388 39.8338 31.0388C39.7161 31.0388 39.5999 31.012 39.4934 30.9601C39.3869 30.9081 39.2928 30.8323 39.2177 30.7382C39.1426 30.6441 39.0881 30.534 39.0586 30.4157C39.0291 30.2974 39.025 30.174 39.0468 30.0539V19.1319H30.294V30.3979C30.2979 30.5044 30.2806 30.6105 30.2431 30.7097C30.2056 30.8089 30.1488 30.8991 30.0763 30.9744C30.0037 31.0498 29.9167 31.1087 29.8211 31.1476C29.7255 31.1865 29.6233 31.2045 29.5208 31.2005C29.417 31.2043 29.3134 31.1864 29.2164 31.1478C29.1194 31.1092 29.0309 31.0507 28.9562 30.9758C28.8815 30.9009 28.8218 30.8111 28.7813 30.7118C28.7407 30.6125 28.7199 30.5058 28.7199 30.3979V19.1319H23.1976V29.6238C23.1976 29.8443 23.1132 30.0558 22.963 30.2117C22.8128 30.3676 22.6094 30.4551 22.3971 30.4551C22.1847 30.4551 21.981 30.3676 21.8308 30.2117C21.6806 30.0558 21.5962 29.8443 21.5962 29.6238V19.1319H12.6778V34.0099C12.6778 34.1178 12.657 34.2245 12.6164 34.3238C12.5759 34.4231 12.5162 34.5129 12.4415 34.5879C12.3668 34.6628 12.2783 34.7212 12.1813 34.7598C12.0843 34.7985 11.9808 34.8164 11.8769 34.8125C11.7744 34.8165 11.6722 34.7986 11.5766 34.7597C11.4811 34.7208 11.3944 34.6618 11.3218 34.5865C11.2492 34.5111 11.1924 34.4209 11.155 34.3217C11.1175 34.2225 11.0998 34.1164 11.1037 34.0099V19.1317H10.1924C10.0885 19.1317 9.98572 19.1099 9.89007 19.0678C9.79443 19.0257 9.70776 18.9641 9.63559 18.8865C9.56343 18.8089 9.50729 18.7169 9.4701 18.6162C9.43291 18.5155 9.41549 18.408 9.4192 18.3002V10.2162C9.41549 10.1084 9.43291 10.0009 9.4701 9.90018C9.50729 9.79946 9.56343 9.70763 9.63559 9.63003C9.70776 9.55243 9.79443 9.4907 9.89007 9.44859C9.98572 9.40647 10.0885 9.38483 10.1924 9.3849H17.7528C16.8953 8.42111 16.4187 7.15714 16.4187 5.84477C16.4187 4.52794 16.8985 3.25976 17.7615 2.29475C18.6245 1.32974 19.8069 0.739283 21.0717 0.641741H21.6518C22.9773 0.641741 24.2483 1.18836 25.1855 2.16143ZM30.0728 9.3849H30.7973C31.6929 9.37554 32.5499 9.0022 33.1839 8.34402C33.826 7.67738 34.1867 6.77318 34.1867 5.83042C34.1867 4.88766 33.826 3.98346 33.1839 3.31683C32.5418 2.6502 31.6709 2.27568 30.7628 2.27568H30.1831C29.2773 2.28317 28.4106 2.66013 27.7701 3.32514C27.1295 3.99016 26.7665 4.88998 26.7593 5.83042V9.3849H30.0728ZM30.8736 17.469V11.0476H40.7312V17.469H30.8736ZM20.9887 17.469V11.0476H10.9933V17.469H20.9887ZM18.7521 51.0377C19.2509 51.1516 19.7602 51.2093 20.2709 51.2097C20.8262 51.2146 21.3806 51.1665 21.9275 51.0662C22.4385 50.9684 23.0428 50.8523 23.7121 50.7237C28.1422 49.8725 35.423 48.4735 37.39 48.1996C37.9142 48.1279 38.4204 47.9528 38.8812 47.6836L49.4564 40.6602C49.7831 40.4951 50.0754 40.2646 50.3162 39.982C50.557 39.6994 50.7419 39.3703 50.8599 39.0134C50.9779 38.6565 51.0266 38.2789 51.0038 37.9023C50.9809 37.5257 50.8869 37.1576 50.7267 36.8189C50.5632 36.4662 50.3318 36.152 50.0469 35.8956C49.7619 35.6392 49.4293 35.4461 49.0697 35.3282C48.714 35.2011 48.3373 35.1508 47.9622 35.1803C47.5871 35.2099 47.2218 35.3188 46.8886 35.5002L36.4237 41.2335H36.1476L24.1642 40.0009C24.0843 39.9937 24.0064 39.9702 23.9354 39.9316C23.8643 39.8931 23.8013 39.8404 23.75 39.7764C23.6986 39.7125 23.6601 39.6385 23.6364 39.5589C23.6127 39.4794 23.6042 39.3958 23.6118 39.3129C23.6386 39.1535 23.7211 39.0099 23.8433 38.9094C23.9655 38.809 24.1188 38.7588 24.2744 38.7682L28.4162 39.2268L32.1437 39.5995C32.5741 39.6561 33.0115 39.6163 33.4259 39.4828C33.8403 39.3493 34.222 39.1253 34.5459 38.8256C34.8778 38.5397 35.1497 38.1861 35.3444 37.7867C35.5392 37.3872 35.6527 36.9505 35.6781 36.5036C35.7023 35.9752 35.6067 35.4531 35.4044 34.9773L37.7212 33.838C37.8808 33.7548 38.0628 33.7293 38.2379 33.7656C38.413 33.802 38.5711 33.898 38.6875 34.0386C38.8344 34.1673 39.0212 34.2369 39.2134 34.2347C39.4056 34.2325 39.5904 34.1586 39.7345 34.0265C39.8785 33.8943 39.9719 33.7128 39.9977 33.5151C40.0235 33.3173 39.98 33.1164 39.875 32.9492C39.5348 32.5593 39.0844 32.2911 38.5885 32.183C38.0925 32.0749 37.5764 32.1325 37.1138 32.3473L34.4495 33.6937C33.9644 33.2939 33.376 33.043 32.7514 32.9775L22.6731 31.9168C22.3246 31.8733 21.9723 31.8733 21.6238 31.9168C18.2593 33.1366 15.0652 34.8139 12.1252 36.9048L10.4685 37.937L1.30159 34.5828C1.19974 34.5251 1.08706 34.4911 0.97127 34.4831C0.85548 34.4751 0.739191 34.4931 0.630842 34.5363C0.522492 34.5794 0.42457 34.6466 0.343668 34.733C0.262766 34.8193 0.200848 34.9229 0.162331 35.0365C0.123814 35.1502 0.109556 35.2712 0.120536 35.3912C0.131516 35.5111 0.167586 35.6272 0.226035 35.7313C0.284485 35.8354 0.363815 35.9249 0.458942 35.9939C0.554069 36.063 0.662548 36.1098 0.776788 36.131L10.2754 39.5995C10.3742 39.6501 10.4828 39.6765 10.5929 39.6765C10.703 39.6765 10.8117 39.6501 10.9104 39.5995L12.926 38.3669C15.7254 36.4523 18.7155 34.8569 21.8446 33.6083C22.0264 33.5662 22.2152 33.5662 22.397 33.6083L32.475 34.6689C32.7753 34.7111 33.0585 34.8392 33.2924 35.0392C33.5263 35.2391 33.7018 35.5028 33.7993 35.8006C33.8969 36.0984 33.9126 36.4185 33.8445 36.725C33.7764 37.0315 33.6274 37.3122 33.4141 37.5356C33.2466 37.6802 33.0523 37.7879 32.8434 37.8519C32.6346 37.916 32.4153 37.9352 32.199 37.9083L28.4715 37.5356L24.3297 37.0768C24.0376 37.0309 23.7396 37.0472 23.4537 37.1244C23.1678 37.2017 22.9001 37.3384 22.6667 37.5263C22.4332 37.7142 22.239 37.9494 22.0957 38.2176C21.9524 38.4858 21.8631 38.7814 21.8331 39.0865C21.8032 39.3916 21.8332 39.6998 21.9214 39.9925C22.0097 40.2852 22.1543 40.5562 22.3465 40.7891C22.5386 41.0221 22.7741 41.2121 23.0391 41.3476C23.3041 41.4832 23.5929 41.5613 23.8878 41.5775L35.8716 42.8102H36.3408C36.5714 42.8058 36.798 42.747 37.0034 42.6382L47.4684 36.9048C47.7785 36.7757 48.1246 36.7757 48.4347 36.9048C48.5927 36.9553 48.7386 37.0403 48.8625 37.154C48.9863 37.2677 49.0852 37.4076 49.1527 37.5643C49.2865 37.8692 49.301 38.2162 49.1928 38.5319C49.0845 38.8475 48.8622 39.107 48.5729 39.2555L37.9974 46.2502C37.7095 46.4232 37.3896 46.5307 37.0587 46.5655C35.0132 46.847 27.3587 48.3159 22.969 49.1583C22.4405 49.2598 21.9593 49.3521 21.5409 49.4322C20.7488 49.6046 19.9308 49.6046 19.1387 49.4322L1.16339 44.8169C1.06368 44.7905 0.959857 44.7848 0.858018 44.8001C0.75618 44.8154 0.658292 44.8514 0.569834 44.906C0.481376 44.9605 0.404267 45.0326 0.342657 45.1182C0.281047 45.2038 0.23625 45.3011 0.210868 45.4046C0.185485 45.5081 0.179979 45.6158 0.194689 45.7215C0.209398 45.8272 0.243918 45.929 0.29648 46.0209C0.349042 46.1127 0.418662 46.1929 0.501074 46.2569C0.583486 46.3208 0.677072 46.3672 0.776788 46.3935L18.7521 51.0377ZM36.7331 38.1831C36.8552 38.2642 36.9967 38.3082 37.1416 38.3098C37.2528 38.3253 37.3658 38.3155 37.473 38.2811L42.8022 35.5864C42.9618 35.5032 43.1435 35.4776 43.3186 35.514C43.4937 35.5503 43.6521 35.6465 43.7685 35.7871C43.8384 35.8671 43.9235 35.9309 44.0186 35.9746C44.1137 36.0184 44.2166 36.0411 44.3206 36.0411C44.4247 36.0411 44.5275 36.0184 44.6226 35.9746C44.7177 35.9309 44.8032 35.8671 44.8731 35.7871C44.9465 35.7123 45.0048 35.6231 45.0446 35.5246C45.0845 35.4262 45.105 35.3205 45.105 35.2137C45.105 35.1069 45.0845 35.0012 45.0446 34.9028C45.0048 34.8043 44.9465 34.7151 44.8731 34.6403C44.5249 34.2625 44.073 34.0049 43.5791 33.9023C43.0852 33.7998 42.5733 33.8573 42.1119 34.067L36.8103 36.733C36.6246 36.8368 36.484 37.0104 36.4173 37.2181C36.3506 37.4259 36.3628 37.6522 36.4514 37.851C36.5134 37.9869 36.6111 38.102 36.7331 38.1831ZM47.0974 5.2492C47.2313 5.39352 47.4141 5.47837 47.6069 5.48579C47.8046 5.48579 47.9942 5.4042 48.134 5.25908C48.2738 5.11396 48.352 4.91713 48.352 4.7119V3.99539C48.3731 3.88332 48.3703 3.76777 48.3432 3.65708C48.3162 3.54639 48.2659 3.44329 48.196 3.35515C48.1261 3.26702 48.038 3.19607 47.9385 3.14734C47.8391 3.09861 47.7307 3.07334 47.6208 3.07334C47.5108 3.07334 47.4021 3.09861 47.3026 3.14734C47.2032 3.19607 47.1151 3.26702 47.0452 3.35515C46.9753 3.44329 46.9249 3.54639 46.8979 3.65708C46.8709 3.76777 46.8681 3.88332 46.8892 3.99539V4.7119C46.889 4.91226 46.9636 5.10487 47.0974 5.2492ZM47.6063 10.3878C47.4135 10.3804 47.2307 10.2956 47.0968 10.1513C46.963 10.007 46.8884 9.81445 46.8886 9.61409V8.89758C46.9217 8.7214 47.0126 8.56267 47.146 8.44854C47.2795 8.33441 47.4473 8.27186 47.6202 8.27186C47.7931 8.27186 47.9605 8.33441 48.094 8.44854C48.2274 8.56267 48.3183 8.7214 48.3514 8.89758V9.61409C48.3514 9.81932 48.2732 10.0161 48.1334 10.1613C47.9936 10.3064 47.804 10.3878 47.6063 10.3878ZM44.9005 7.57879H45.5907C45.7883 7.57879 45.9779 7.4972 46.1177 7.35208C46.2575 7.20696 46.3361 7.01013 46.3361 6.8049C46.3361 6.70459 46.3169 6.60536 46.2791 6.51303C46.2413 6.4207 46.186 6.33728 46.1164 6.2677C46.0468 6.19811 45.9644 6.14379 45.8741 6.10807C45.7838 6.07236 45.6872 6.05593 45.5907 6.05979H44.9005C44.804 6.05593 44.7078 6.07236 44.6175 6.10807C44.5272 6.14379 44.4448 6.19811 44.3752 6.2677C44.3056 6.33728 44.2502 6.4207 44.2124 6.51303C44.1746 6.60536 44.1554 6.70459 44.1555 6.8049C44.1555 7.01013 44.2337 7.20696 44.3735 7.35208C44.5133 7.4972 44.7029 7.57879 44.9005 7.57879ZM50.3397 7.57879H49.6496C49.4519 7.57879 49.2623 7.4972 49.1225 7.35208C48.9828 7.20696 48.9042 7.01013 48.9042 6.8049C48.9041 6.70459 48.9233 6.60536 48.9611 6.51303C48.9989 6.4207 49.0543 6.33728 49.1239 6.2677C49.1935 6.19811 49.2759 6.14379 49.3662 6.10807C49.4565 6.07236 49.553 6.05593 49.6496 6.05979H50.3397C50.5301 6.05979 50.7126 6.13827 50.8472 6.27802C50.9818 6.41776 51.0575 6.60727 51.0575 6.8049C51.0576 7.00526 50.9828 7.19796 50.8489 7.34228C50.715 7.48661 50.5326 7.57137 50.3397 7.57879ZM4.80521 2.73659C4.94499 2.88171 5.13457 2.9633 5.33225 2.9633C5.52993 2.9633 5.71951 2.88171 5.85929 2.73659C5.99907 2.59147 6.07766 2.39465 6.07766 2.18941V1.47291C6.07766 1.26767 5.99907 1.07085 5.85929 0.925728C5.71951 0.780606 5.52993 0.699107 5.33225 0.699107C5.13457 0.699107 4.94499 0.780606 4.80521 0.925728C4.66543 1.07085 4.58685 1.26767 4.58685 1.47291V2.18941C4.58685 2.39465 4.66543 2.59147 4.80521 2.73659ZM5.33225 7.86515C5.13457 7.86515 4.94499 7.78374 4.80521 7.63862C4.66543 7.4935 4.58685 7.29668 4.58685 7.09144V6.5182C4.58685 6.31297 4.66543 6.11614 4.80521 5.97102C4.94499 5.8259 5.13457 5.7444 5.33225 5.7444C5.52993 5.7444 5.71951 5.8259 5.85929 5.97102C5.99907 6.11614 6.07766 6.31297 6.07766 6.5182V7.23471C6.0451 7.41424 5.95223 7.57605 5.81582 7.69145C5.67941 7.80685 5.50819 7.86831 5.33225 7.86515ZM2.62728 5.05598H3.31742C3.42537 5.07786 3.53667 5.07467 3.64328 5.04662C3.7499 5.01858 3.84921 4.96642 3.9341 4.89382C4.01899 4.82123 4.08733 4.72997 4.13427 4.62671C4.1812 4.52344 4.20537 4.41072 4.20537 4.29653C4.20537 4.18234 4.1812 4.06953 4.13427 3.96626C4.08733 3.863 4.01899 3.77183 3.9341 3.69923C3.84921 3.62664 3.7499 3.57439 3.64328 3.54635C3.53667 3.5183 3.42537 3.51511 3.31742 3.53699H2.62728C2.51934 3.51511 2.40804 3.5183 2.30142 3.54635C2.19481 3.57439 2.0955 3.62664 2.01061 3.69923C1.92571 3.77183 1.85737 3.863 1.81044 3.96626C1.7635 4.06953 1.739 4.18234 1.739 4.29653C1.739 4.41072 1.7635 4.52344 1.81044 4.62671C1.85737 4.72997 1.92571 4.82123 2.01061 4.89382C2.0955 4.96642 2.19481 5.01858 2.30142 5.04662C2.40804 5.07467 2.51934 5.07786 2.62728 5.05598ZM8.03823 5.05598H7.43098C7.26128 5.0216 7.10823 4.92707 6.9983 4.78852C6.88837 4.64996 6.82846 4.47604 6.82846 4.29653C6.82846 4.11702 6.88837 3.9431 6.9983 3.80454C7.10823 3.66598 7.26128 3.57137 7.43098 3.53699H8.12112C8.22907 3.51511 8.34037 3.5183 8.44699 3.54635C8.5536 3.57439 8.65291 3.62664 8.7378 3.69923C8.82269 3.77183 8.89103 3.863 8.93797 3.96626C8.9849 4.06953 9.00941 4.18234 9.00941 4.29653C9.00941 4.41072 8.9849 4.52344 8.93797 4.62671C8.89103 4.72997 8.82269 4.82123 8.7378 4.89382C8.65291 4.96642 8.5536 5.01858 8.44699 5.04662C8.34037 5.07467 8.22907 5.07786 8.12112 5.05598H8.03823ZM3.01309 15.9207C3.56195 15.9207 4.00689 15.4588 4.00689 14.8889C4.00689 14.3191 3.56195 13.8571 3.01309 13.8571C2.46423 13.8571 2.01929 14.3191 2.01929 14.8889C2.01929 15.4588 2.46423 15.9207 3.01309 15.9207ZM47.2196 23.3457C47.2196 23.9156 46.7746 24.3775 46.2258 24.3775C45.6769 24.3775 45.232 23.9156 45.232 23.3457C45.232 22.7759 45.6769 22.314 46.2258 22.314C46.7746 22.314 47.2196 22.7759 47.2196 23.3457Z" fill="#34ADB8"/>
</svg>
