<svg width="36" height="40" viewBox="0 0 36 36" fill="none" xmlns="http://www.w3.org/2000/svg">
    <path class="icon-background-lite" d="M18 36C27.9411 36 36 27.9411 36 18C36 8.05887 27.9411 0 18 0C8.05887 0 0 8.05887 0 18C0 27.9411 8.05887 36 18 36Z" fill="#bdbdbd"></path>
    <path class="icon-background-color" d="M18 36C27.9411 36 36 27.9411 36 18C36 8.05887 27.9411 0 18 0C8.05887 0 0 8.05887 0 18C0 27.9411 8.05887 36 18 36Z" fill="url(#teleIconLinearGradient)"></path>
    <path class="icon-body" d="M7.22615 16.4036L19.1395 11.3577C20.3155 10.832 24.3036 9.15008 24.3036 9.15008C24.3036 9.15008 26.1443 8.41422 25.9909 10.2013C25.9398 10.9372 25.5307 13.5127 25.1217 16.2984L23.8435 24.5506C23.8435 24.5506 23.7412 25.7595 22.872 25.9697C22.0028 26.18 20.5711 25.2339 20.3155 25.0236C20.111 24.8659 16.4807 22.5007 15.1513 21.3443C14.7934 21.029 14.3844 20.3982 15.2025 19.6624C17.0431 17.9278 19.2417 15.7728 20.5711 14.4062C21.1847 13.7755 21.7982 12.3038 19.2417 14.0909L12.0324 19.0842C12.0324 19.0842 11.2143 19.6098 9.6804 19.1367C8.14649 18.6637 6.35694 18.033 6.35694 18.033C6.35694 18.033 5.12981 17.2445 7.22615 16.4036Z" fill="#ffffff"></path>
</svg>