<svg width="210" height="55" viewBox="0 0 210 55" fill="none" xmlns="http://www.w3.org/2000/svg">
<path d="M120.227 36.8562C117.092 36.9617 113.995 36.1412 111.328 34.4981C108.966 32.9853 107.176 30.7349 106.238 28.1003L112.243 24.6327C113.638 28.239 116.366 30.0451 120.428 30.0509C121.958 30.177 123.489 29.8026 124.786 28.9846C125.234 28.6542 125.593 28.2185 125.83 27.7163C126.067 27.2141 126.176 26.6612 126.146 26.1071C126.115 25.5531 125.947 25.0151 125.657 24.5414C125.366 24.0677 124.962 23.6731 124.481 23.393C122.579 22.4026 120.562 21.6485 118.475 21.1477C117.101 20.7523 115.75 20.2776 114.431 19.7259C113.25 19.2088 112.132 18.5572 111.102 17.7841C110.016 17.0116 109.146 15.9762 108.574 14.7759C107.974 13.4405 107.677 11.9904 107.703 10.528C107.65 9.07473 107.931 7.62865 108.527 6.30039C109.122 4.97213 110.015 3.79686 111.137 2.86447C113.455 0.94714 116.394 -0.0692377 119.408 0.00366664C122.093 -0.0485361 124.734 0.680649 127.008 2.1016C129.228 3.53708 131 5.56082 132.124 7.94458L126.215 11.3342C124.797 8.30002 122.528 6.78292 119.408 6.78292C118.183 6.71109 116.971 7.06 115.974 7.77122C115.576 8.06795 115.256 8.45484 115.039 8.89968C114.822 9.34451 114.715 9.8344 114.728 10.3286C114.719 10.8587 114.841 11.3829 115.084 11.8547C115.328 12.3264 115.684 12.7313 116.122 13.0334C117.789 14.0448 119.598 14.8017 121.491 15.2787C122.581 15.6168 123.4 15.8855 123.958 16.0676C124.515 16.2496 125.282 16.5357 126.25 16.9345C127.025 17.2318 127.772 17.5973 128.481 18.0268C129.115 18.4406 129.72 18.8952 130.294 19.3879C130.901 19.8798 131.425 20.4651 131.845 21.1217C132.222 21.8189 132.515 22.558 132.717 23.3236C132.983 24.2362 133.112 25.1825 133.101 26.1324C133.158 27.6209 132.863 29.1018 132.241 30.4567C131.619 31.8116 130.687 33.0028 129.518 33.9347C127.159 35.8823 124.062 36.8562 120.227 36.8562Z" fill="#38B2B8"/>
<path d="M165.297 36.1366H157.208L144.492 19.5439V36.1366H137.467V0.731873H144.492V16.3623L156.694 0.731873H164.782L151.613 17.9314L165.297 36.1366Z" fill="#38B2B8"/>
<path d="M175.764 0.723206H168.748V36.1366H175.764V0.723206Z" fill="#38B2B8"/>
<path d="M202.983 0.731873H210V36.1366H204.657L189.404 14.4898V36.1366H182.379V0.731873H187.722L202.983 22.3267V0.731873Z" fill="#38B2B8"/>
<path d="M7.03385 1.29541H0.0175781V36.7088H7.03385V1.29541Z" fill="#38B2B8"/>
<path d="M64.4541 32.0794C61.4081 35.1563 57.3825 37.0859 53.065 37.5383C48.7475 37.9908 44.406 36.9382 40.7821 34.5603C37.1583 32.1823 34.477 28.6267 33.1962 24.5007C31.9155 20.3747 32.1149 15.9345 33.7602 11.9384C35.4056 7.94244 38.3949 4.63863 42.2174 2.59144C46.0399 0.544253 50.4585 -0.119301 54.7183 0.714144C58.9781 1.54759 62.8147 3.82631 65.5729 7.16103C68.331 10.4958 69.8395 14.6796 69.8405 18.9977C69.8881 21.4285 69.4348 23.8432 68.5084 26.093C67.582 28.3429 66.2023 30.3802 64.4541 32.0794ZM43.1351 27.3201C44.7557 28.9494 46.8308 30.0571 49.0916 30.4998C51.3524 30.9425 53.6948 30.6998 55.8154 29.803C57.9359 28.9063 59.7368 27.3969 60.9849 25.4704C62.2331 23.5438 62.8708 21.2889 62.8156 18.9977C62.8652 17.455 62.597 15.9186 62.0274 14.4829C61.4579 13.0472 60.5989 11.7425 59.5035 10.6493C57.3043 8.54153 54.3691 7.36387 51.315 7.36387C48.2608 7.36387 45.3257 8.54153 43.1264 10.6493C41.0028 12.9127 39.8218 15.8932 39.8218 18.9891C39.8218 22.0849 41.0028 25.0654 43.1264 27.3288" fill="#38B2B8"/>
<path d="M94.3495 1.29541H101.374V36.7088H96.0317L80.7702 15.0533V36.7088H73.7539V1.29541H79.0967L94.3495 22.8902V1.29541Z" fill="#38B2B8"/>
<path d="M30.4184 30.5796C28.8929 30.6349 27.3724 30.3762 25.9521 29.8198C24.5318 29.2633 23.2423 28.4212 22.1645 27.346C20.1136 25.035 18.9818 22.0585 18.9818 18.976C18.9818 15.8934 20.1136 12.917 22.1645 10.6059C23.2423 9.53081 24.5318 8.68864 25.9521 8.13222C27.3724 7.5758 28.8929 7.31711 30.4184 7.37235V0.584431C27.9774 0.521216 25.5493 0.958046 23.2853 1.86778C21.0212 2.77751 18.9694 4.1407 17.2574 5.87261C13.8834 9.41515 12.0029 14.1093 12.0029 18.989C12.0029 23.8687 13.8834 28.5628 17.2574 32.1054C18.966 33.843 21.0168 35.211 23.2814 36.1239C25.546 37.0369 27.9757 37.475 30.4184 37.4109V30.5796Z" fill="#38B2B8"/>
<path d="M7.57409 46.6435C7.56894 47.0947 7.47188 47.5401 7.28877 47.9529C7.10565 48.3657 6.84029 48.7373 6.50872 49.0452C6.17715 49.3531 5.78625 49.591 5.35966 49.7444C4.93306 49.8978 4.47962 49.9636 4.02674 49.9378H1.13307V53.8389H0V43.3406H4.02674C4.48035 43.3148 4.9345 43.3808 5.36168 43.5347C5.78885 43.6887 6.18015 43.9273 6.51185 44.2361C6.84354 44.545 7.10873 44.9176 7.29132 45.3314C7.47392 45.7452 7.57011 46.1916 7.57409 46.6435ZM6.44975 46.6435C6.45506 46.33 6.39527 46.0187 6.27412 45.7291C6.15297 45.4396 5.97306 45.178 5.74564 44.9607C5.51823 44.7435 5.24819 44.5752 4.95243 44.4665C4.65667 44.3578 4.34154 44.3109 4.02674 44.3289H1.13307V48.9929H4.02674C4.34454 49.0111 4.66268 48.9633 4.96087 48.8525C5.25907 48.7417 5.5308 48.5703 5.75874 48.3493C5.98669 48.1283 6.16585 47.8624 6.28483 47.5688C6.4038 47.2751 6.45996 46.96 6.44975 46.6435Z" fill="#38B2B8"/>
<path d="M14.5988 49.643H11.4437V53.8389H10.3193V43.3406H14.8254C15.6941 43.3125 16.5386 43.6279 17.174 44.2176C17.8095 44.8074 18.1841 45.6236 18.2159 46.4875C18.1995 47.1873 17.9515 47.8623 17.5102 48.4077C17.069 48.9531 16.4593 49.3386 15.7755 49.5043L18.5384 53.8389H17.2484L14.5988 49.643ZM11.4437 48.6548H14.8254C15.4033 48.6548 15.9576 48.4264 16.3662 48.02C16.7748 47.6135 17.0044 47.0623 17.0044 46.4875C17.0044 45.9127 16.7748 45.3614 16.3662 44.955C15.9576 44.5485 15.4033 44.3202 14.8254 44.3202H11.4437V48.6548Z" fill="#38B2B8"/>
<path d="M20.3081 48.5941C20.2294 47.4298 20.5046 46.2689 21.098 45.2622C21.6913 44.2555 22.5753 43.4496 23.6352 42.9491C24.695 42.4487 25.8817 42.2768 27.0411 42.456C28.2004 42.6351 29.2787 43.1569 30.136 43.9536C30.9933 44.7502 31.5898 45.785 31.8481 46.9233C32.1064 48.0616 32.0146 49.2508 31.5845 50.3365C31.1544 51.4222 30.4059 52.3541 29.4363 53.0112C28.4668 53.6683 27.3209 54.0201 26.1477 54.021C25.4048 54.0511 24.6632 53.9341 23.9661 53.6768C23.2691 53.4195 22.6303 53.027 22.087 52.5221C21.5437 52.0172 21.1067 51.41 20.8013 50.7357C20.4959 50.0614 20.3283 49.3334 20.3081 48.5941ZM30.8543 48.5941C30.9119 47.6561 30.6849 46.7225 30.2027 45.9143C29.7204 45.1062 29.0052 44.4607 28.1497 44.0617C27.2943 43.6627 26.338 43.5286 25.405 43.6766C24.4719 43.8247 23.6051 44.2481 22.9169 44.892C22.2287 45.536 21.7509 46.3707 21.5454 47.288C21.3399 48.2053 21.4162 49.1628 21.7644 50.0365C22.1126 50.9101 22.7167 51.6595 23.4982 52.1876C24.2798 52.7157 25.2029 52.998 26.1477 52.998C26.749 53.0224 27.3491 52.9271 27.9129 52.7179C28.4767 52.5087 28.9929 52.1897 29.4312 51.7796C29.8695 51.3694 30.2211 50.8765 30.4655 50.3295C30.7099 49.7825 30.842 49.1925 30.8543 48.5941Z" fill="#38B2B8"/>
<path d="M35.8489 44.3289V48.204H40.8431V49.1923H35.8489V53.8389H34.7158V43.3406H41.0871V44.3289H35.8489Z" fill="#38B2B8"/>
<path d="M50.4299 52.8507V53.8389H43.8232V43.3406H50.3514V44.3289H44.9563V48.048H49.9505V49.0362H44.9563V52.8507H50.4299Z" fill="#38B2B8"/>
<path d="M52.5303 51.4549L53.4977 50.9348C53.8987 52.1918 54.962 52.998 56.7313 52.998C58.5007 52.998 59.3984 52.2352 59.3984 51.1082C59.3984 49.9812 58.2828 49.5044 56.618 48.9929C54.7877 48.4294 53.0096 47.9786 53.0096 46.0367C53.0096 44.0948 54.6047 43.1586 56.496 43.1586C57.2702 43.136 58.0342 43.3378 58.695 43.7396C59.3558 44.1414 59.8849 44.7256 60.2177 45.4212L59.2676 45.924C59.0408 45.3867 58.6531 44.932 58.1571 44.6218C57.6612 44.3115 57.0811 44.1608 56.496 44.1902C55.1363 44.1902 54.1602 44.8491 54.1602 46.002C54.1602 47.155 55.1276 47.5018 56.6529 47.97C58.7011 48.6028 60.5402 49.1403 60.5402 51.0908C60.5402 52.894 58.9887 54.0297 56.74 54.0297C54.6395 54.021 53.1055 53.0501 52.5303 51.4549Z" fill="#38B2B8"/>
<path d="M62.2139 51.4549L63.1813 50.9348C63.5823 52.1918 64.6456 52.998 66.4236 52.998C68.2017 52.998 69.082 52.2351 69.082 51.1082C69.082 49.9812 67.9663 49.5044 66.3103 48.9929C64.4713 48.4294 62.702 47.9786 62.702 46.0367C62.702 44.0948 64.297 43.1585 66.1883 43.1585C66.9631 43.1326 67.7285 43.3331 68.39 43.7352C69.0514 44.1374 69.5799 44.7235 69.91 45.4212L68.96 45.924C68.7332 45.3867 68.3454 44.932 67.8494 44.6217C67.3535 44.3115 66.7734 44.1608 66.1883 44.1902C64.8373 44.1902 63.8525 44.849 63.8525 46.002C63.8525 47.155 64.8199 47.5018 66.3539 47.9699C68.4021 48.6028 70.2325 49.1403 70.2325 51.0908C70.2325 52.894 68.6898 54.0296 66.4323 54.0296C64.3231 54.021 62.8153 53.05 62.2139 51.4549Z" fill="#38B2B8"/>
<path d="M73.9973 43.3406V53.8389H72.8643V43.3406H73.9973Z" fill="#38B2B8"/>
<path d="M76.7612 48.5941C76.6825 47.4298 76.9577 46.2689 77.5511 45.2622C78.1444 44.2555 79.0284 43.4496 80.0883 42.9491C81.1482 42.4487 82.3349 42.2768 83.4942 42.456C84.6535 42.6351 85.7318 43.1569 86.5891 43.9536C87.4464 44.7502 88.0429 45.785 88.3012 46.9233C88.5595 48.0616 88.4677 49.2508 88.0376 50.3365C87.6075 51.4222 86.859 52.3541 85.8895 53.0112C84.9199 53.6683 83.7741 54.0201 82.6009 54.021C81.8582 54.0499 81.1171 53.9321 80.4206 53.6744C79.724 53.4167 79.0857 53.0241 78.5426 52.5194C77.9996 52.0148 77.5625 51.408 77.2567 50.7342C76.951 50.0604 76.7825 49.3331 76.7612 48.5941ZM87.3074 48.5941C87.365 47.6561 87.138 46.7225 86.6558 45.9143C86.1735 45.1062 85.4583 44.4607 84.6028 44.0617C83.7474 43.6627 82.7911 43.5286 81.8581 43.6766C80.925 43.8247 80.0582 44.2481 79.37 44.892C78.6818 45.536 78.204 46.3707 77.9985 47.288C77.793 48.2053 77.8693 49.1628 78.2175 50.0365C78.5657 50.9101 79.1698 51.6595 79.9514 52.1876C80.7329 52.7157 81.656 52.998 82.6009 52.998C83.2 53.0188 83.7973 52.921 84.358 52.7102C84.9188 52.4993 85.4318 52.1798 85.8673 51.77C86.3028 51.3602 86.6521 50.8685 86.8948 50.3232C87.1376 49.778 87.2689 49.1903 87.2813 48.5941H87.3074Z" fill="#38B2B8"/>
<path d="M99.5263 43.3406V53.8389H98.5501L92.266 45.2912V53.8389H91.1416V43.3406H92.1004L98.3932 51.8884V43.3406H99.5263Z" fill="#38B2B8"/>
<path d="M109.376 51.2642H104.024L102.978 53.865H101.784L106.142 43.3666H107.266L111.624 53.865H110.43L109.376 51.2642ZM108.975 50.2673L106.7 44.6583L104.425 50.2846L108.975 50.2673Z" fill="#38B2B8"/>
<path d="M120.157 52.8507V53.8389H113.873V43.3406H114.997V52.8767L120.157 52.8507Z" fill="#38B2B8"/>
<path d="M126.764 51.455L127.731 50.9348C128.132 52.1918 129.204 52.9981 130.973 52.9981C132.743 52.9981 133.632 52.2352 133.632 51.1082C133.632 49.9812 132.525 49.5044 130.86 48.9929C129.021 48.4294 127.252 47.9786 127.252 46.0367C127.252 44.0949 128.847 43.1586 130.738 43.1586C131.514 43.1343 132.28 43.3354 132.942 43.7372C133.605 44.1391 134.135 44.7243 134.469 45.4212L133.518 45.924C133.289 45.3868 132.9 44.9325 132.402 44.6224C131.905 44.3124 131.324 44.1615 130.738 44.1902C129.387 44.1902 128.402 44.8491 128.402 46.0021C128.402 47.1551 129.37 47.5018 130.904 47.97C132.952 48.6028 134.791 49.1403 134.791 51.0909C134.791 52.894 133.24 54.0297 130.982 54.0297C130.094 54.1083 129.204 53.9003 128.445 53.4365C127.685 52.9728 127.095 52.2779 126.764 51.455Z" fill="#38B2B8"/>
<path d="M143.873 53.8389L138.582 48.7588V53.8389H137.423V43.3406H138.547V48.1259L143.672 43.3232H145.154L139.741 48.4207L145.319 53.8216L143.873 53.8389Z" fill="#38B2B8"/>
<path d="M148.702 43.3406V53.8389H147.577V43.3406H148.702Z" fill="#38B2B8"/>
<path d="M160.433 43.3406V53.8389H159.465L153.181 45.2912V53.8389H152.048V43.3406H153.015L159.308 51.8884V43.3406H160.433Z" fill="#38B2B8"/>
<path d="M168.042 48.5941C168.042 45.5859 170.491 43.1585 173.96 43.1585C174.93 43.1379 175.889 43.3664 176.744 43.822C177.599 44.2776 178.321 44.9448 178.841 45.7593L177.847 46.2968C177.443 45.637 176.871 45.0954 176.188 44.7269C175.505 44.3584 174.736 44.1762 173.96 44.1988C173.349 44.1521 172.736 44.2314 172.157 44.4318C171.579 44.6322 171.048 44.9493 170.599 45.3632C170.15 45.7771 169.791 46.2789 169.546 46.8371C169.301 47.3953 169.174 47.9979 169.174 48.6071C169.174 49.2162 169.301 49.8188 169.546 50.377C169.791 50.9353 170.15 51.437 170.599 51.851C171.048 52.2649 171.579 52.582 172.157 52.7823C172.736 52.9827 173.349 53.062 173.96 53.0153C174.741 53.0392 175.514 52.8559 176.201 52.4842C176.887 52.1124 177.461 51.5657 177.865 50.9001L178.858 51.4289C178.342 52.2463 177.62 52.9159 176.764 53.3718C175.908 53.8278 174.948 54.0545 173.977 54.0296C170.491 54.0209 168.042 51.5936 168.042 48.5941Z" fill="#38B2B8"/>
<path d="M187.8 51.2642H182.449L181.403 53.865H180.209L184.567 43.3666H185.709L190.067 53.865H188.873L187.8 51.2642ZM187.4 50.2673L185.125 44.6583L182.859 50.2846L187.4 50.2673Z" fill="#38B2B8"/>
<path d="M196.586 49.643H193.431V53.8389H192.298V43.3406H196.813C197.681 43.3125 198.526 43.6279 199.161 44.2176C199.797 44.8074 200.171 45.6236 200.203 46.4875C200.187 47.1873 199.939 47.8623 199.497 48.4077C199.056 48.9531 198.446 49.3386 197.763 49.5043L200.526 53.8389H199.236L196.586 49.643ZM193.431 48.6548H196.813C197.391 48.6548 197.945 48.4264 198.353 48.02C198.762 47.6135 198.992 47.0623 198.992 46.4875C198.992 45.9127 198.762 45.3614 198.353 44.955C197.945 44.5485 197.391 44.3202 196.813 44.3202H193.431V48.6548Z" fill="#38B2B8"/>
<path d="M209.547 52.8507V53.8389H202.94V43.3406H209.469V44.3289H204.065V48.048H209.068V49.0362H204.065V52.8507H209.547Z" fill="#38B2B8"/>
</svg>
