<svg width="210" height="55" viewBox="0 0 210 55" fill="none" xmlns="http://www.w3.org/2000/svg">
<path d="M120.227 36.8562C117.091 36.9617 113.995 36.1412 111.328 34.4981C108.965 32.9853 107.175 30.7349 106.238 28.1003L112.243 24.6327C113.638 28.239 116.366 30.0451 120.427 30.0509C121.958 30.177 123.488 29.8026 124.785 28.9846C125.233 28.6542 125.592 28.2185 125.83 27.7163C126.067 27.2141 126.175 26.6612 126.145 26.1071C126.115 25.5531 125.947 25.0151 125.656 24.5414C125.366 24.0677 124.962 23.6731 124.48 23.393C122.578 22.4026 120.562 21.6485 118.475 21.1477C117.1 20.7523 115.75 20.2776 114.431 19.7259C113.249 19.2088 112.132 18.5572 111.101 17.7841C110.015 17.0116 109.145 15.9762 108.574 14.7759C107.974 13.4405 107.676 11.9904 107.702 10.528C107.649 9.07473 107.931 7.62865 108.526 6.30039C109.121 4.97213 110.014 3.79686 111.136 2.86447C113.455 0.94714 116.393 -0.0692377 119.407 0.00366664C122.092 -0.0485361 124.734 0.680649 127.008 2.1016C129.227 3.53708 130.999 5.56082 132.124 7.94458L126.215 11.3342C124.797 8.30002 122.528 6.78292 119.407 6.78292C118.183 6.71109 116.97 7.06 115.973 7.77122C115.576 8.06795 115.255 8.45484 115.039 8.89968C114.822 9.34451 114.715 9.8344 114.727 10.3286C114.718 10.8587 114.841 11.3829 115.084 11.8547C115.327 12.3264 115.684 12.7313 116.122 13.0334C117.788 14.0448 119.598 14.8017 121.491 15.2787C122.58 15.6168 123.399 15.8855 123.957 16.0676C124.515 16.2496 125.282 16.5357 126.249 16.9345C127.024 17.2318 127.771 17.5973 128.481 18.0268C129.114 18.4406 129.72 18.8952 130.294 19.3879C130.9 19.8798 131.424 20.4651 131.845 21.1217C132.222 21.8189 132.514 22.558 132.717 23.3236C132.982 24.2362 133.111 25.1825 133.1 26.1324C133.157 27.6209 132.863 29.1018 132.241 30.4567C131.619 31.8116 130.686 33.0028 129.518 33.9347C127.159 35.8823 124.062 36.8562 120.227 36.8562Z" fill="#C95192"/>
<path d="M165.297 36.1366H157.208L144.492 19.5439V36.1366H137.467V0.731873H144.492V16.3623L156.694 0.731873H164.782L151.613 17.9314L165.297 36.1366Z" fill="#C95192"/>
<path d="M175.764 0.723206H168.748V36.1366H175.764V0.723206Z" fill="#C95192"/>
<path d="M202.984 0.731873H210V36.1366H204.657L189.404 14.4898V36.1366H182.379V0.731873H187.722L202.984 22.3267V0.731873Z" fill="#C95192"/>
<path d="M7.03385 1.29541H0.0175781V36.7088H7.03385V1.29541Z" fill="#C95192"/>
<path d="M64.4539 32.0794C61.4079 35.1563 57.3823 37.0859 53.0648 37.5383C48.7472 37.9908 44.4057 36.9382 40.7819 34.5603C37.158 32.1823 34.4767 28.6267 33.196 24.5007C31.9153 20.3747 32.1146 15.9345 33.76 11.9384C35.4054 7.94244 38.3946 4.63863 42.2171 2.59144C46.0397 0.544253 50.4582 -0.119301 54.718 0.714144C58.9778 1.54759 62.8145 3.82631 65.5726 7.16103C68.3308 10.4958 69.8392 14.6796 69.8403 18.9977C69.8879 21.4285 69.4346 23.8432 68.5082 26.093C67.5818 28.3429 66.202 30.3802 64.4539 32.0794ZM43.1349 27.3201C44.7554 28.9494 46.8305 30.0571 49.0914 30.4998C51.3522 30.9425 53.6946 30.6998 55.8151 29.803C57.9356 28.9063 59.7366 27.3969 60.9847 25.4704C62.2328 23.5438 62.8705 21.2889 62.8153 18.9977C62.865 17.455 62.5968 15.9186 62.0272 14.4829C61.4576 13.0472 60.5987 11.7425 59.5033 10.6493C57.304 8.54153 54.3688 7.36387 51.3147 7.36387C48.2606 7.36387 45.3254 8.54153 43.1262 10.6493C41.0026 12.9127 39.8216 15.8932 39.8216 18.9891C39.8216 22.0849 41.0026 25.0654 43.1262 27.3288" fill="#C95192"/>
<path d="M94.349 1.29541H101.374V36.7088H96.0312L80.7697 15.0533V36.7088H73.7534V1.29541H79.0962L94.349 22.8902V1.29541Z" fill="#C95192"/>
<path d="M30.4184 30.5796C28.8929 30.6349 27.3724 30.3762 25.9521 29.8198C24.5318 29.2633 23.2423 28.4212 22.1645 27.346C20.1136 25.035 18.9818 22.0585 18.9818 18.976C18.9818 15.8934 20.1136 12.917 22.1645 10.6059C23.2423 9.53081 24.5318 8.68864 25.9521 8.13222C27.3724 7.5758 28.8929 7.31711 30.4184 7.37235V0.584431C27.9774 0.521216 25.5493 0.958046 23.2853 1.86778C21.0212 2.77751 18.9694 4.1407 17.2574 5.87261C13.8834 9.41515 12.0029 14.1093 12.0029 18.989C12.0029 23.8687 13.8834 28.5628 17.2574 32.1054C18.966 33.843 21.0168 35.211 23.2814 36.1239C25.546 37.0369 27.9757 37.475 30.4184 37.4109V30.5796Z" fill="#C95192"/>
<path d="M7.57409 46.6435C7.56894 47.0947 7.47188 47.5401 7.28877 47.9529C7.10565 48.3657 6.84029 48.7373 6.50872 49.0452C6.17715 49.3531 5.78625 49.591 5.35966 49.7444C4.93306 49.8978 4.47962 49.9636 4.02674 49.9378H1.13307V53.8389H0V43.3406H4.02674C4.48035 43.3148 4.9345 43.3808 5.36168 43.5347C5.78885 43.6887 6.18015 43.9273 6.51185 44.2361C6.84354 44.545 7.10873 44.9176 7.29132 45.3314C7.47392 45.7452 7.57011 46.1916 7.57409 46.6435ZM6.44975 46.6435C6.45506 46.33 6.39527 46.0187 6.27412 45.7291C6.15297 45.4396 5.97306 45.178 5.74564 44.9607C5.51823 44.7435 5.24819 44.5752 4.95243 44.4665C4.65667 44.3578 4.34154 44.3109 4.02674 44.3289H1.13307V48.9929H4.02674C4.34454 49.0111 4.66268 48.9633 4.96087 48.8525C5.25907 48.7417 5.5308 48.5703 5.75874 48.3493C5.98669 48.1283 6.16585 47.8624 6.28483 47.5688C6.4038 47.2751 6.45996 46.96 6.44975 46.6435Z" fill="#C95192"/>
<path d="M14.5991 49.643H11.4439V53.8389H10.3196V43.3406H14.8257C15.6944 43.3125 16.5388 43.6279 17.1743 44.2176C17.8097 44.8074 18.1843 45.6236 18.2162 46.4875C18.1997 47.1873 17.9517 47.8623 17.5105 48.4077C17.0693 48.9531 16.4595 49.3386 15.7757 49.5043L18.5386 53.8389H17.2487L14.5991 49.643ZM11.4439 48.6548H14.8257C15.4036 48.6548 15.9578 48.4264 16.3664 48.02C16.7751 47.6135 17.0047 47.0623 17.0047 46.4875C17.0047 45.9127 16.7751 45.3614 16.3664 44.955C15.9578 44.5485 15.4036 44.3202 14.8257 44.3202H11.4439V48.6548Z" fill="#C95192"/>
<path d="M20.3078 48.5941C20.2292 47.4298 20.5044 46.2689 21.0977 45.2622C21.691 44.2555 22.5751 43.4496 23.6349 42.9491C24.6948 42.4487 25.8815 42.2768 27.0408 42.456C28.2001 42.6351 29.2785 43.1569 30.1357 43.9536C30.993 44.7502 31.5895 45.785 31.8479 46.9233C32.1062 48.0616 32.0143 49.2508 31.5842 50.3365C31.1541 51.4222 30.4057 52.3541 29.4361 53.0112C28.4665 53.6683 27.3207 54.0201 26.1475 54.021C25.4045 54.0511 24.663 53.9341 23.9659 53.6768C23.2688 53.4195 22.6301 53.027 22.0868 52.5221C21.5435 52.0172 21.1064 51.41 20.801 50.7357C20.4957 50.0614 20.328 49.3334 20.3078 48.5941ZM30.8541 48.5941C30.9117 47.6561 30.6847 46.7225 30.2024 45.9143C29.7202 45.1062 29.005 44.4607 28.1495 44.0617C27.294 43.6627 26.3378 43.5286 25.4047 43.6766C24.4717 43.8247 23.6048 44.2481 22.9166 44.892C22.2285 45.536 21.7506 46.3707 21.5451 47.288C21.3396 48.2053 21.4159 49.1628 21.7642 50.0365C22.1124 50.9101 22.7164 51.6595 23.498 52.1876C24.2796 52.7157 25.2026 52.998 26.1475 52.998C26.7488 53.0224 27.3489 52.9271 27.9127 52.7179C28.4765 52.5087 28.9927 52.1897 29.431 51.7796C29.8693 51.3694 30.2209 50.8765 30.4653 50.3295C30.7096 49.7825 30.8418 49.1925 30.8541 48.5941Z" fill="#C95192"/>
<path d="M35.8484 44.3289V48.204H40.8426V49.1923H35.8484V53.8389H34.7153V43.3406H41.0866V44.3289H35.8484Z" fill="#C95192"/>
<path d="M50.4301 52.8507V53.8389H43.8235V43.3406H50.3517V44.3289H44.9565V48.048H49.9507V49.0362H44.9565V52.8507H50.4301Z" fill="#C95192"/>
<path d="M52.5305 51.4549L53.498 50.9348C53.8989 52.1918 54.9623 52.998 56.7316 52.998C58.5009 52.998 59.3986 52.2352 59.3986 51.1082C59.3986 49.9812 58.283 49.5044 56.6183 48.9929C54.7879 48.4294 53.0099 47.9786 53.0099 46.0367C53.0099 44.0948 54.6049 43.1586 56.4962 43.1586C57.2704 43.136 58.0344 43.3378 58.6953 43.7396C59.3561 44.1414 59.8851 44.7256 60.2179 45.4212L59.2679 45.924C59.0411 45.3867 58.6533 44.932 58.1574 44.6218C57.6614 44.3115 57.0814 44.1608 56.4962 44.1902C55.1366 44.1902 54.1604 44.8491 54.1604 46.002C54.1604 47.155 55.1278 47.5018 56.6531 47.97C58.7014 48.6028 60.5404 49.1403 60.5404 51.0908C60.5404 52.894 58.989 54.0297 56.7403 54.0297C54.6398 54.021 53.1058 53.0501 52.5305 51.4549Z" fill="#C95192"/>
<path d="M62.2139 51.4549L63.1813 50.9348C63.5823 52.1918 64.6456 52.998 66.4236 52.998C68.2017 52.998 69.082 52.2351 69.082 51.1082C69.082 49.9812 67.9663 49.5044 66.3103 48.9929C64.4713 48.4294 62.702 47.9786 62.702 46.0367C62.702 44.0948 64.297 43.1585 66.1883 43.1585C66.9631 43.1326 67.7285 43.3331 68.39 43.7352C69.0514 44.1374 69.5799 44.7235 69.91 45.4212L68.96 45.924C68.7332 45.3867 68.3454 44.932 67.8494 44.6217C67.3535 44.3115 66.7734 44.1608 66.1883 44.1902C64.8373 44.1902 63.8525 44.849 63.8525 46.002C63.8525 47.155 64.8199 47.5018 66.3539 47.9699C68.4021 48.6028 70.2325 49.1403 70.2325 51.0908C70.2325 52.894 68.6898 54.0296 66.4323 54.0296C64.3231 54.021 62.8153 53.05 62.2139 51.4549Z" fill="#C95192"/>
<path d="M73.9978 43.3406V53.8389H72.8647V43.3406H73.9978Z" fill="#C95192"/>
<path d="M76.7607 48.5941C76.682 47.4298 76.9573 46.2689 77.5506 45.2622C78.1439 44.2555 79.028 43.4496 80.0878 42.9491C81.1477 42.4487 82.3344 42.2768 83.4937 42.456C84.653 42.6351 85.7313 43.1569 86.5886 43.9536C87.4459 44.7502 88.0424 45.785 88.3007 46.9233C88.559 48.0616 88.4672 49.2508 88.0371 50.3365C87.607 51.4222 86.8585 52.3541 85.889 53.0112C84.9194 53.6683 83.7736 54.0201 82.6004 54.021C81.8577 54.0499 81.1167 53.9321 80.4201 53.6744C79.7235 53.4167 79.0852 53.0241 78.5421 52.5194C77.9991 52.0148 77.562 51.408 77.2562 50.7342C76.9505 50.0604 76.7821 49.3331 76.7607 48.5941ZM87.3069 48.5941C87.3646 47.6561 87.1375 46.7225 86.6553 45.9143C86.173 45.1062 85.4578 44.4607 84.6023 44.0617C83.7469 43.6627 82.7907 43.5286 81.8576 43.6766C80.9245 43.8247 80.0577 44.2481 79.3695 44.892C78.6813 45.536 78.2035 46.3707 77.998 47.288C77.7925 48.2053 77.8688 49.1628 78.217 50.0365C78.5652 50.9101 79.1693 51.6595 79.9509 52.1876C80.7325 52.7157 81.6555 52.998 82.6004 52.998C83.1995 53.0188 83.7968 52.921 84.3576 52.7102C84.9183 52.4993 85.4313 52.1798 85.8668 51.77C86.3023 51.3602 86.6516 50.8685 86.8944 50.3232C87.1371 49.778 87.2684 49.1903 87.2808 48.5941H87.3069Z" fill="#C95192"/>
<path d="M99.5265 43.3406V53.8389H98.5503L92.2662 45.2912V53.8389H91.1418V43.3406H92.1006L98.3935 51.8884V43.3406H99.5265Z" fill="#C95192"/>
<path d="M109.375 51.2642H104.024L102.978 53.865H101.784L106.142 43.3666H107.266L111.624 53.865H110.43L109.375 51.2642ZM108.975 50.2673L106.7 44.6583L104.425 50.2846L108.975 50.2673Z" fill="#C95192"/>
<path d="M120.157 52.8507V53.8389H113.873V43.3406H114.997V52.8767L120.157 52.8507Z" fill="#C95192"/>
<path d="M126.764 51.455L127.731 50.9348C128.132 52.1918 129.204 52.9981 130.973 52.9981C132.743 52.9981 133.632 52.2352 133.632 51.1082C133.632 49.9812 132.525 49.5044 130.86 48.9929C129.021 48.4294 127.252 47.9786 127.252 46.0367C127.252 44.0949 128.847 43.1586 130.738 43.1586C131.514 43.1343 132.28 43.3354 132.942 43.7372C133.605 44.1391 134.135 44.7243 134.469 45.4212L133.518 45.924C133.289 45.3868 132.9 44.9325 132.402 44.6224C131.905 44.3124 131.324 44.1615 130.738 44.1902C129.387 44.1902 128.402 44.8491 128.402 46.0021C128.402 47.1551 129.37 47.5018 130.904 47.97C132.952 48.6028 134.791 49.1403 134.791 51.0909C134.791 52.894 133.24 54.0297 130.982 54.0297C130.094 54.1083 129.204 53.9003 128.445 53.4365C127.685 52.9728 127.095 52.2779 126.764 51.455Z" fill="#C95192"/>
<path d="M143.873 53.8389L138.583 48.7588V53.8389H137.423V43.3406H138.548V48.1259L143.673 43.3232H145.154L139.742 48.4207L145.32 53.8216L143.873 53.8389Z" fill="#C95192"/>
<path d="M148.701 43.3406V53.8389H147.577V43.3406H148.701Z" fill="#C95192"/>
<path d="M160.433 43.3406V53.8389H159.466L153.181 45.2912V53.8389H152.048V43.3406H153.016L159.309 51.8884V43.3406H160.433Z" fill="#C95192"/>
<path d="M168.042 48.5941C168.042 45.5859 170.491 43.1585 173.96 43.1585C174.93 43.1379 175.889 43.3664 176.744 43.822C177.599 44.2776 178.321 44.9448 178.841 45.7593L177.847 46.2968C177.443 45.637 176.871 45.0954 176.188 44.7269C175.505 44.3584 174.736 44.1762 173.96 44.1988C173.349 44.1521 172.736 44.2314 172.157 44.4318C171.579 44.6322 171.048 44.9493 170.599 45.3632C170.15 45.7771 169.791 46.2789 169.546 46.8371C169.301 47.3953 169.174 47.9979 169.174 48.6071C169.174 49.2162 169.301 49.8188 169.546 50.377C169.791 50.9353 170.15 51.437 170.599 51.851C171.048 52.2649 171.579 52.582 172.157 52.7823C172.736 52.9827 173.349 53.062 173.96 53.0153C174.741 53.0392 175.514 52.8559 176.201 52.4842C176.887 52.1124 177.461 51.5657 177.865 50.9001L178.858 51.4289C178.342 52.2463 177.62 52.9159 176.764 53.3718C175.908 53.8278 174.948 54.0545 173.977 54.0296C170.491 54.0209 168.042 51.5936 168.042 48.5941Z" fill="#C95192"/>
<path d="M187.8 51.2642H182.449L181.403 53.865H180.209L184.567 43.3666H185.709L190.067 53.865H188.873L187.8 51.2642ZM187.4 50.2673L185.125 44.6583L182.859 50.2846L187.4 50.2673Z" fill="#C95192"/>
<path d="M196.587 49.643H193.431V53.8389H192.298V43.3406H196.813C197.682 43.3125 198.526 43.6279 199.162 44.2176C199.797 44.8074 200.172 45.6236 200.204 46.4875C200.187 47.1873 199.939 47.8623 199.498 48.4077C199.057 48.9531 198.447 49.3386 197.763 49.5043L200.526 53.8389H199.236L196.587 49.643ZM193.431 48.6548H196.813C197.391 48.6548 197.945 48.4264 198.354 48.02C198.763 47.6135 198.992 47.0623 198.992 46.4875C198.992 45.9127 198.763 45.3614 198.354 44.955C197.945 44.5485 197.391 44.3202 196.813 44.3202H193.431V48.6548Z" fill="#C95192"/>
<path d="M209.547 52.8507V53.8389H202.94V43.3406H209.469V44.3289H204.065V48.048H209.068V49.0362H204.065V52.8507H209.547Z" fill="#C95192"/>
</svg>
