<svg width="74" height="64" viewBox="0 0 74 64" fill="none" xmlns="http://www.w3.org/2000/svg">
<path fill-rule="evenodd" clip-rule="evenodd" d="M5.53518 0.0100081C5.47549 0.0178282 5.29641 0.0491403 5.13723 0.0795477C4.97805 0.109992 4.70129 0.177067 4.52221 0.228644C4.34313 0.280183 4.03381 0.392135 3.83483 0.477392C3.63586 0.562649 3.32654 0.717303 3.14746 0.821038C2.96838 0.924773 2.73232 1.07645 2.62288 1.15807C2.51344 1.23969 2.28903 1.42061 2.12421 1.5601C1.95935 1.69955 1.70299 1.95499 1.55452 2.12772C1.40604 2.30042 1.19426 2.5722 1.08392 2.73159C0.973541 2.89101 0.785815 3.21353 0.666791 3.44831C0.54773 3.6831 0.386523 4.06788 0.308524 4.30343C0.230525 4.53898 0.12919 4.90354 0.0833527 5.11359L0 5.49551V31.9747V58.4539L0.0829189 58.8359C0.128503 59.0459 0.214244 59.369 0.273395 59.5539C0.332581 59.7387 0.443755 60.0333 0.520451 60.2086C0.597148 60.3838 0.742401 60.6676 0.843265 60.8393C0.944128 61.0109 1.12285 61.2819 1.24046 61.4413C1.35807 61.6008 1.5585 61.8436 1.68584 61.981C1.81322 62.1183 2.06394 62.3537 2.24302 62.504C2.42209 62.6542 2.7011 62.8632 2.86306 62.9683C3.02499 63.0734 3.30324 63.233 3.48138 63.3229C3.65951 63.4129 3.9747 63.5461 4.18181 63.6189C4.38893 63.6917 4.72933 63.7902 4.93825 63.8377C5.14718 63.8852 5.51348 63.9412 5.75225 63.9621C6.0493 63.988 15.9129 64 36.9917 64C58.0704 64 67.934 63.988 68.2311 63.9621C68.4698 63.9412 68.8361 63.8853 69.0451 63.8378C69.254 63.7904 69.5715 63.6998 69.7505 63.6366C69.9296 63.5733 70.2227 63.452 70.4017 63.367C70.5808 63.282 70.8413 63.142 70.9806 63.056C71.1199 62.97 71.3513 62.8108 71.4949 62.7022C71.6385 62.5937 71.8775 62.3908 72.026 62.2513C72.1746 62.1119 72.4175 61.8469 72.5658 61.6625C72.7141 61.4782 72.9131 61.2062 73.0079 61.0579C73.1027 60.9098 73.2574 60.6315 73.3517 60.4396C73.446 60.2477 73.5738 59.9463 73.6356 59.7699C73.6974 59.5935 73.7818 59.3156 73.8233 59.1524C73.8647 58.9892 73.9214 58.6834 73.9493 58.4729C73.9924 58.1478 74 54.1618 74 31.9747C74 9.72465 73.9925 5.80231 73.9491 5.47456C73.921 5.26298 73.8717 4.98473 73.8395 4.85622C73.8073 4.72772 73.739 4.49162 73.6878 4.33158C73.6366 4.17154 73.5018 3.84371 73.3883 3.60307C73.2748 3.36243 73.0822 3.01639 72.9603 2.83413C72.8384 2.65183 72.6535 2.39859 72.5494 2.27139C72.4454 2.1442 72.2392 1.92146 72.0912 1.77644C71.9432 1.63146 71.6735 1.39944 71.4918 1.26086C71.3101 1.12232 71.0149 0.924239 70.8359 0.820686C70.6568 0.717134 70.3475 0.562876 70.1485 0.47791C69.9495 0.392907 69.6694 0.287892 69.5259 0.244573C69.3825 0.201217 69.1139 0.12982 68.929 0.0858823L68.5928 0.00600662L37.1183 0.00088015C19.8073 -0.00192054 5.59488 0.00218797 5.53518 0.0100081ZM68.6471 1.5977C68.7964 1.63368 69.065 1.71312 69.2441 1.77422C69.4231 1.83533 69.6673 1.93441 69.7867 1.99438C69.9061 2.0544 70.1344 2.18873 70.294 2.2929C70.4536 2.39707 70.7096 2.59224 70.8628 2.7266C71.016 2.86096 71.2395 3.09164 71.3595 3.23924C71.4795 3.38684 71.661 3.64276 71.7629 3.80796C71.8648 3.97313 71.9924 4.20762 72.0465 4.32904C72.1005 4.45048 72.1871 4.68076 72.2388 4.84079C72.2905 5.00083 72.3623 5.2709 72.3983 5.44094C72.4612 5.73771 72.4639 6.80128 72.4639 31.9747C72.4639 56.7392 72.4604 58.2165 72.401 58.5085C72.3664 58.6785 72.2962 58.9486 72.2451 59.1086C72.1939 59.2687 72.0732 59.5633 71.9769 59.7634C71.8806 59.9634 71.6802 60.2908 71.5316 60.4908C71.3831 60.6909 71.1405 60.97 70.9927 61.1112C70.8448 61.2523 70.6188 61.4425 70.4904 61.5339C70.362 61.6253 70.1431 61.7639 70.0038 61.8419C69.8645 61.92 69.6447 62.0281 69.5154 62.0823C69.386 62.1364 69.1744 62.2131 69.0451 62.2527C68.9157 62.2923 68.6553 62.354 68.4662 62.3898C68.1377 62.4521 66.7547 62.4549 37.0098 62.4549C7.17671 62.4549 5.88176 62.4522 5.52755 62.3893C5.32438 62.3532 5.00811 62.2747 4.82469 62.2149C4.64127 62.1552 4.35981 62.0399 4.19921 61.9589C4.03859 61.8778 3.76881 61.72 3.59968 61.6082C3.4227 61.4912 3.13045 61.2418 2.91118 61.0206C2.70012 60.8077 2.43769 60.4963 2.32286 60.3224C2.20883 60.1498 2.04342 59.8534 1.95529 59.6638C1.86713 59.4742 1.75375 59.1735 1.70332 58.9956C1.65285 58.8177 1.58686 58.5167 1.55662 58.3266C1.50785 58.0199 1.50166 55.0602 1.50152 31.9692C1.50137 6.27722 1.50224 5.95231 1.57246 5.54458C1.61153 5.31754 1.68635 5.00083 1.7387 4.84079C1.79101 4.68076 1.88963 4.42808 1.95779 4.27931C2.02599 4.13055 2.19016 3.84513 2.32264 3.64505C2.45512 3.44496 2.70305 3.14042 2.87359 2.96827C3.0441 2.79615 3.28131 2.58046 3.4007 2.48902C3.52009 2.39758 3.76291 2.2391 3.94033 2.13685C4.11771 2.03457 4.38802 1.90288 4.54098 1.84417C4.69394 1.78543 4.94766 1.70261 5.10478 1.66005C5.2619 1.61753 5.49629 1.569 5.62563 1.55224C5.75496 1.53547 19.9267 1.52413 37.1183 1.52704C67.073 1.5321 68.3871 1.53503 68.6471 1.5977ZM36.4271 7.63639C36.3455 7.66324 36.2035 7.73721 36.1116 7.80079C36.0198 7.86433 35.8931 7.99165 35.8301 8.08367C35.7671 8.17569 35.6934 8.32515 35.6662 8.41579C35.6256 8.55153 35.6169 9.48186 35.6169 13.6981V18.8156L35.3546 18.84C35.2104 18.8535 34.8726 18.9047 34.6039 18.9539C34.3353 19.003 33.8958 19.0996 33.6271 19.1685C33.3585 19.2374 32.9108 19.3746 32.6323 19.4733C32.3537 19.572 31.9826 19.7125 31.8078 19.7854C31.6328 19.8584 31.3072 20.01 31.0842 20.1223C30.8611 20.2346 30.5484 20.4009 30.3892 20.492C30.2301 20.583 29.9045 20.7876 29.6657 20.9467C29.4269 21.1058 29.0672 21.3632 28.8664 21.5189L28.5012 21.8019L24.9247 18.206C21.6889 14.9527 21.328 14.601 21.1353 14.5141C20.947 14.4291 20.8861 14.4195 20.609 14.431C20.3648 14.4412 20.2568 14.4639 20.1195 14.534C20.0226 14.5836 19.8776 14.6897 19.7973 14.77C19.717 14.8503 19.6096 15.006 19.5587 15.116C19.484 15.2776 19.466 15.3721 19.4655 15.6071C19.4651 15.8344 19.4838 15.9418 19.5512 16.0981C19.6277 16.2756 20.0404 16.7039 23.2173 19.9033L26.7972 23.5084L26.5174 23.8679C26.3635 24.0656 26.1034 24.432 25.9395 24.682C25.7756 24.9321 25.5312 25.3306 25.3965 25.5676C25.2617 25.8046 25.0319 26.2672 24.8857 26.5957C24.7396 26.9241 24.5312 27.4586 24.4228 27.7834C24.3143 28.1081 24.1765 28.5703 24.1165 28.8103C24.0565 29.0504 23.9671 29.4841 23.9178 29.7742C23.8685 30.0643 23.8168 30.4366 23.8028 30.6017L23.7775 30.9017H18.7005C13.6719 30.9017 13.6217 30.9024 13.4255 30.9763C13.3083 31.0203 13.1535 31.1206 13.0464 31.2218C12.9362 31.3258 12.826 31.4782 12.765 31.611C12.6836 31.7881 12.6647 31.8806 12.6647 32.102C12.6647 32.3234 12.6836 32.416 12.765 32.5931C12.826 32.7259 12.9362 32.8783 13.0464 32.9823C13.1535 33.0835 13.3083 33.1837 13.4255 33.2278C13.6217 33.3016 13.6719 33.3023 18.7023 33.3023H23.7811L23.8056 33.5478C23.8191 33.6829 23.87 34.0307 23.9188 34.3208C23.9675 34.6108 24.0566 35.0446 24.1167 35.2846C24.1768 35.5247 24.3048 35.9584 24.4011 36.2485C24.4973 36.5386 24.6523 36.9559 24.7454 37.176C24.8385 37.3961 25.0126 37.7725 25.1323 38.0126C25.2521 38.2526 25.416 38.5636 25.4966 38.7037C25.5772 38.8437 25.7493 39.1219 25.879 39.322C26.0088 39.522 26.2586 39.876 26.4342 40.1086C26.6098 40.3412 26.7788 40.5528 26.81 40.5788C26.859 40.6197 26.389 41.1069 23.252 44.2659C20.0436 47.4969 19.6278 47.9284 19.5512 48.1059C19.4836 48.2628 19.4652 48.3688 19.466 48.597C19.4669 48.8163 19.4866 48.9312 19.546 49.0637C19.5894 49.1604 19.6683 49.2913 19.7213 49.3547C19.7743 49.4181 19.8787 49.515 19.9532 49.5701C20.0277 49.6253 20.1597 49.6956 20.2465 49.7266C20.3332 49.7574 20.5212 49.7828 20.6641 49.7829C20.8505 49.7831 20.9786 49.7604 21.1164 49.7028C21.2869 49.6316 21.7174 49.2122 24.9268 45.9908C26.9168 43.9933 28.5588 42.3591 28.5758 42.3591C28.5927 42.3591 28.682 42.4216 28.7743 42.498C28.8666 42.5743 29.0805 42.7367 29.2496 42.8588C29.4188 42.9808 29.7444 43.1989 29.9732 43.3435C30.202 43.488 30.6172 43.7244 30.8957 43.8688C31.1743 44.0131 31.6232 44.2232 31.8932 44.3356C32.1632 44.4479 32.582 44.605 32.8238 44.6845C33.0656 44.764 33.4959 44.8868 33.78 44.9574C34.064 45.028 34.4836 45.1173 34.7125 45.156C34.9413 45.1946 35.2382 45.2377 35.3722 45.2518L35.6159 45.2773L35.6254 50.3925L35.635 55.5078L35.7356 55.7137C35.7909 55.8269 35.9029 55.9802 35.9845 56.0543C36.0661 56.1284 36.2243 56.2316 36.3361 56.2837C36.5013 56.3606 36.5903 56.3777 36.8108 56.3751C37.0056 56.3729 37.1328 56.3495 37.2618 56.2924C37.3606 56.2486 37.5082 56.1578 37.5898 56.0907C37.6714 56.0235 37.794 55.8648 37.8623 55.7382L37.9865 55.5078L37.9961 50.4065C38.0013 47.6008 38.0142 45.3053 38.0246 45.3053C38.0351 45.3053 38.2018 45.2881 38.395 45.267C38.5882 45.246 38.9416 45.196 39.1804 45.1559C39.4192 45.1158 39.8431 45.0269 40.1225 44.9583C40.4019 44.8898 40.8323 44.7672 41.0789 44.6857C41.3255 44.6043 41.707 44.4638 41.9265 44.3733C42.1461 44.2829 42.5216 44.1131 42.761 43.996C43.0003 43.8789 43.3427 43.6982 43.5217 43.5944C43.7008 43.4906 44.0101 43.2989 44.2091 43.1684C44.4081 43.0379 44.7362 42.8041 44.9384 42.6488L45.3059 42.3665L48.8094 45.8931C50.7363 47.8328 52.3885 49.4761 52.4809 49.5451C52.5733 49.614 52.7198 49.6957 52.8065 49.7266C52.8932 49.7575 53.0828 49.7828 53.2278 49.7829C53.4309 49.7831 53.5358 49.7627 53.6844 49.6943C53.7904 49.6455 53.944 49.545 54.0256 49.4708C54.1071 49.3967 54.2149 49.2516 54.265 49.1484C54.3151 49.0452 54.3713 48.8789 54.3898 48.7788C54.4113 48.6626 54.4102 48.5253 54.3869 48.3984C54.3669 48.2892 54.3123 48.1255 54.2657 48.0347C54.2059 47.9181 53.1333 46.8169 50.615 44.2869C48.6538 42.3165 47.0491 40.6913 47.0491 40.6755C47.0491 40.6597 47.1692 40.4959 47.316 40.3117C47.4628 40.1274 47.6845 39.8301 47.8086 39.651C47.9327 39.4718 48.1565 39.1214 48.3059 38.8721C48.4553 38.6229 48.6962 38.1755 48.8411 37.8779C48.986 37.5803 49.173 37.1615 49.2567 36.9473C49.3402 36.733 49.4566 36.4104 49.5153 36.2303C49.5739 36.0503 49.6688 35.7311 49.7261 35.521C49.7835 35.311 49.871 34.9345 49.9207 34.6845C49.9703 34.4344 50.0391 34.0211 50.0737 33.7661L50.1363 33.3023H55.248C60.3117 33.3023 60.3616 33.3016 60.5578 33.2278C60.675 33.1837 60.8298 33.0835 60.937 32.9823C61.0471 32.8783 61.1573 32.7259 61.2183 32.5931C61.2997 32.416 61.3186 32.3234 61.3186 32.102C61.3186 31.8806 61.2997 31.7881 61.2183 31.611C61.1573 31.4782 61.0471 31.3258 60.937 31.2218C60.8298 31.1206 60.675 31.0203 60.5578 30.9763C60.3616 30.9024 60.3117 30.9017 55.2466 30.9017H50.1335L50.1076 30.6017C50.0933 30.4366 50.042 30.0724 49.9936 29.7924C49.9451 29.5123 49.8499 29.0622 49.7819 28.7921C49.7139 28.5221 49.5908 28.0965 49.5083 27.8464C49.4259 27.5964 49.2877 27.218 49.2013 27.0056C49.1149 26.7933 48.9392 26.4086 48.811 26.1509C48.6827 25.8932 48.4971 25.5432 48.3985 25.3731C48.2999 25.2031 48.1408 24.9412 48.0451 24.7911C47.9493 24.6411 47.7308 24.3304 47.5595 24.1006C47.3882 23.8709 47.2339 23.6603 47.2167 23.6326C47.1936 23.5954 48.1298 22.6311 50.8017 19.9402C54.013 16.706 54.4276 16.2757 54.5041 16.0981C54.5707 15.9435 54.5905 15.8319 54.5912 15.6071C54.5919 15.3677 54.5753 15.2806 54.4977 15.116C54.4458 15.006 54.3353 14.849 54.2522 14.7672C54.1691 14.6854 54.0243 14.5791 53.9305 14.5312C53.7993 14.4641 53.6878 14.441 53.4467 14.431C53.1696 14.4195 53.1087 14.4291 52.9204 14.5141C52.7277 14.601 52.3651 14.9543 49.1095 18.2276C47.1307 20.2171 45.5001 21.845 45.4859 21.845C45.4718 21.845 45.2927 21.7136 45.0879 21.553C44.8831 21.3925 44.5365 21.1414 44.3176 20.9951C44.0988 20.8488 43.7595 20.6347 43.5638 20.5192C43.3681 20.4038 42.9611 20.1905 42.6594 20.0451C42.3576 19.8998 41.8666 19.6901 41.5681 19.5792C41.2697 19.4683 40.822 19.3205 40.5733 19.2509C40.3245 19.1812 40.0071 19.0981 39.8678 19.0662C39.7285 19.0343 39.4355 18.9764 39.2166 18.9374C38.9977 18.8985 38.6605 18.8493 38.4673 18.8282C38.2741 18.807 38.0912 18.7897 38.0608 18.7897C38.0116 18.7897 38.0046 18.2255 37.9961 13.6157L37.9865 8.44168L37.8908 8.25982C37.8382 8.15979 37.7256 8.00892 37.6407 7.92457C37.5558 7.84022 37.4116 7.73529 37.3204 7.69139C37.2034 7.63512 37.0691 7.60806 36.865 7.59958C36.6883 7.59223 36.5178 7.60657 36.4271 7.63639ZM38.3483 21.2991C38.5075 21.321 38.8087 21.3725 39.0176 21.4135C39.2265 21.4546 39.5685 21.5345 39.7776 21.5912C39.9866 21.6479 40.3366 21.7592 40.5554 21.8384C40.7741 21.9176 41.0915 22.0425 41.2606 22.1159C41.4298 22.1893 41.7511 22.3457 41.9746 22.4636C42.1981 22.5814 42.5889 22.8148 42.8429 22.9823C43.0969 23.1498 43.4756 23.4231 43.6845 23.5895C43.8935 23.756 44.3087 24.1395 44.6072 24.4417C44.9058 24.7439 45.2973 25.1876 45.4773 25.4277C45.6573 25.6677 45.8783 25.9787 45.9685 26.1187C46.0587 26.2588 46.1984 26.4879 46.279 26.628C46.3595 26.768 46.5068 27.0462 46.6062 27.2463C46.7057 27.4463 46.8448 27.7505 46.9154 27.9222C46.986 28.094 47.101 28.4065 47.171 28.6168C47.241 28.8271 47.3388 29.1613 47.3883 29.3594C47.4379 29.5575 47.5109 29.8915 47.5505 30.1015C47.5901 30.3116 47.6427 30.6799 47.6673 30.9199C47.692 31.16 47.7123 31.6674 47.7125 32.0475C47.7127 32.4276 47.693 32.9268 47.6688 33.1568C47.6447 33.3869 47.592 33.7552 47.5518 33.9752C47.5116 34.1953 47.4397 34.5308 47.392 34.7209C47.3443 34.9109 47.2461 35.2464 47.1737 35.4665C47.1014 35.6865 46.9769 36.0221 46.8973 36.2121C46.8176 36.4022 46.6444 36.7695 46.5124 37.0284C46.3805 37.2873 46.1327 37.7129 45.962 37.9741C45.7912 38.2353 45.5349 38.5946 45.3926 38.7726C45.2502 38.9506 45.0083 39.2347 44.855 39.404C44.7017 39.5733 44.4048 39.8676 44.1951 40.0579C43.9854 40.2483 43.6586 40.5216 43.4688 40.6652C43.279 40.809 42.9854 41.0176 42.8163 41.1288C42.6471 41.2401 42.3297 41.4304 42.1108 41.5518C41.8919 41.6732 41.5085 41.8619 41.2587 41.9712C41.0089 42.0805 40.6537 42.2208 40.4693 42.2829C40.2848 42.345 39.9873 42.4372 39.8081 42.4879C39.6288 42.5386 39.3166 42.6135 39.1142 42.6543C38.9119 42.6951 38.4939 42.7598 38.1855 42.7981C37.8177 42.8437 37.3945 42.8676 36.9555 42.8676C36.5874 42.8676 36.0746 42.8431 35.8159 42.8132C35.5572 42.7832 35.1665 42.7251 34.9476 42.6841C34.7287 42.643 34.395 42.568 34.206 42.5172C34.017 42.4664 33.7172 42.3761 33.5399 42.3166C33.3626 42.257 33.094 42.159 32.943 42.0989C32.792 42.0389 32.4731 41.8938 32.2343 41.7767C31.9955 41.6595 31.6272 41.4592 31.4157 41.3315C31.2043 41.2038 30.8705 40.9837 30.6741 40.8424C30.4776 40.7011 30.1369 40.4297 29.9169 40.2393C29.6969 40.0488 29.3649 39.7318 29.1791 39.5348C28.9934 39.3377 28.7145 39.0191 28.5593 38.8268C28.4041 38.6344 28.1481 38.2825 27.9903 38.0448C27.8325 37.807 27.5986 37.4161 27.4706 37.176C27.3425 36.9359 27.1704 36.584 27.0882 36.394C27.0059 36.2039 26.8895 35.9143 26.8295 35.7503C26.7696 35.5864 26.6705 35.2799 26.6095 35.0694C26.5485 34.8588 26.4591 34.4937 26.4108 34.2581C26.3625 34.0225 26.2949 33.6251 26.2606 33.3751C26.2167 33.0547 26.1978 32.6679 26.1968 32.0657C26.1958 31.4407 26.2129 31.0789 26.2606 30.7199C26.2965 30.4498 26.366 30.0406 26.415 29.8106C26.4641 29.5805 26.5442 29.2493 26.593 29.0744C26.6419 28.8997 26.7446 28.5805 26.8214 28.3652C26.8981 28.1499 27.0454 27.7855 27.1489 27.5555C27.2524 27.3254 27.4439 26.9489 27.5745 26.7189C27.7051 26.4888 27.9179 26.1451 28.0473 25.9551C28.1767 25.765 28.4059 25.454 28.5565 25.264C28.7072 25.0739 29.0021 24.7407 29.2119 24.5233C29.4217 24.306 29.7398 24.0022 29.9189 23.8481C30.098 23.694 30.3748 23.47 30.5339 23.3503C30.6931 23.2307 30.9435 23.054 31.0904 22.9578C31.2372 22.8616 31.528 22.6875 31.7365 22.5709C31.9451 22.4543 32.3133 22.2694 32.5548 22.1601C32.7964 22.0507 33.165 21.9013 33.3739 21.8281C33.5828 21.7548 33.9247 21.6484 34.1336 21.5915C34.3426 21.5347 34.6844 21.4544 34.8934 21.4132C35.1023 21.3719 35.4279 21.3213 35.6169 21.3006C35.8059 21.28 36.0176 21.2564 36.0872 21.2483C36.1569 21.2402 36.629 21.2393 37.1364 21.2463C37.6438 21.2534 38.1891 21.2771 38.3483 21.2991Z" fill="#38B2B8"/>
</svg>
