<svg width="74" height="64" viewBox="0 0 74 64" fill="none" xmlns="http://www.w3.org/2000/svg">
<path fill-rule="evenodd" clip-rule="evenodd" d="M5.65938 0.0256556C5.50434 0.0422 5.21271 0.0906328 5.01128 0.133284C4.80989 0.175936 4.50557 0.260003 4.33506 0.320145C4.16455 0.38025 3.91113 0.479225 3.77193 0.540094C3.63273 0.600926 3.37653 0.731281 3.20258 0.829747C3.02863 0.928213 2.75204 1.10835 2.58793 1.23008C2.42382 1.35182 2.12915 1.60849 1.93314 1.80052C1.73714 1.99254 1.47588 2.28052 1.35255 2.44051C1.22922 2.6005 1.06489 2.82928 0.98734 2.94895C0.909786 3.06858 0.770368 3.3222 0.677483 3.51255C0.584599 3.70286 0.465827 3.96804 0.413545 4.10185C0.361264 4.23563 0.275971 4.50561 0.224051 4.70181C0.172095 4.89798 0.103941 5.18942 0.0725937 5.34941C0.0211076 5.61223 0.0144191 8.15296 0.00328304 31.6931C-0.00524977 49.7855 0.00266851 57.8779 0.0291708 58.1781C0.0501774 58.4158 0.0924432 58.7324 0.123067 58.8816C0.153691 59.0307 0.219532 59.2944 0.269319 59.4675C0.319142 59.6405 0.433865 59.9539 0.524291 60.1639C0.614717 60.3739 0.77467 60.6932 0.879703 60.8735C0.984773 61.0538 1.18472 61.3483 1.32402 61.528C1.46333 61.7077 1.72944 62.0042 1.91536 62.1871C2.10127 62.3699 2.37501 62.6128 2.52368 62.7268C2.67235 62.8409 2.93224 63.0164 3.1012 63.1168C3.27019 63.2171 3.50647 63.344 3.62633 63.3988C3.74619 63.4536 3.95484 63.5425 4.09003 63.5965C4.22521 63.6505 4.51808 63.742 4.74083 63.7998C4.96359 63.8577 5.28415 63.9264 5.45318 63.9525C5.70432 63.9913 11.4713 64 36.9993 64C62.5249 64 68.2975 63.9913 68.5634 63.9525C68.7424 63.9263 69.019 63.8725 69.1781 63.8329C69.3372 63.7933 69.5894 63.7183 69.7385 63.6663C69.8876 63.6143 70.2049 63.4773 70.4435 63.3619C70.6822 63.2465 71.0238 63.0532 71.2028 62.9324C71.3818 62.8115 71.6656 62.5933 71.8335 62.4473C72.0015 62.3014 72.2663 62.0368 72.4221 61.8593C72.5778 61.6819 72.8103 61.378 72.9387 61.1841C73.067 60.9902 73.2516 60.669 73.3488 60.4704C73.446 60.2719 73.5758 59.9703 73.6373 59.8003C73.6988 59.6303 73.7903 59.3197 73.8406 59.1102C73.8909 58.9006 73.9493 58.557 73.9703 58.3466C73.9969 58.0803 74.005 49.9899 73.9971 31.7294L73.9857 5.49485L73.9029 5.13124C73.8574 4.93125 73.7569 4.5764 73.6795 4.34271C73.6022 4.10898 73.4564 3.75017 73.3555 3.54527C73.2546 3.34041 73.0676 3.01622 72.9399 2.82485C72.8122 2.63344 72.5928 2.34234 72.4523 2.17787C72.3118 2.01345 72.0465 1.74696 71.8626 1.58566C71.6787 1.4244 71.3818 1.19329 71.2028 1.07209C71.0238 0.950902 70.6822 0.75557 70.4435 0.638014C70.2049 0.520422 69.8563 0.374287 69.6688 0.313236C69.4813 0.252186 69.1315 0.157901 68.8915 0.103723L68.455 0.00518416L37.1981 0.000384346C20.0069 -0.00227002 5.81442 0.0091113 5.65938 0.0256556ZM68.6177 1.63482C68.7668 1.67085 69.0334 1.7487 69.2102 1.80783C69.387 1.86691 69.688 1.99632 69.8791 2.09537C70.0702 2.19442 70.3661 2.38106 70.5366 2.51014C70.7071 2.63922 70.9848 2.89088 71.1537 3.06934C71.3226 3.2478 71.5405 3.51473 71.6381 3.66257C71.7357 3.81038 71.8856 4.0704 71.9712 4.24039C72.0568 4.41038 72.1736 4.69672 72.2309 4.87671C72.2881 5.0567 72.3649 5.37577 72.4016 5.58575C72.466 5.95442 72.4683 6.8636 72.4683 32.0022C72.4683 57.1407 72.466 58.0499 72.4016 58.4186C72.3649 58.6285 72.2879 58.9487 72.2303 59.13C72.1727 59.3113 72.047 59.614 71.9509 59.8027C71.8547 59.9914 71.6961 60.2603 71.5984 60.4002C71.5007 60.5402 71.2903 60.7917 71.131 60.9591C70.9716 61.1264 70.7053 61.366 70.5392 61.4914C70.3731 61.6168 70.0803 61.8015 69.8884 61.9019C69.6966 62.0022 69.3958 62.135 69.2199 62.1969C69.0441 62.2588 68.7199 62.3422 68.4995 62.3821C68.1012 62.4542 67.9184 62.4547 37.002 62.4546L5.90513 62.4545L5.50741 62.3791C5.28867 62.3375 4.98326 62.2626 4.82873 62.2125C4.67416 62.1624 4.37884 62.0352 4.17239 61.9296C3.96594 61.8241 3.64271 61.6212 3.45408 61.4786C3.26545 61.336 2.99465 61.0939 2.8523 60.9407C2.70996 60.7874 2.48886 60.5039 2.36094 60.3106C2.23302 60.1174 2.07263 59.8376 2.00448 59.6889C1.93636 59.5402 1.8382 59.2876 1.78635 59.1276C1.7345 58.9676 1.66382 58.6976 1.62925 58.5276C1.56992 58.2358 1.56641 56.7589 1.56641 32.0022C1.56641 7.24546 1.56992 5.76854 1.62925 5.47667C1.66382 5.30668 1.7345 5.0367 1.78635 4.87671C1.8382 4.71672 1.93636 4.46412 2.00448 4.3154C2.07263 4.16669 2.23671 3.88136 2.36911 3.68134C2.50152 3.48131 2.74929 3.17624 2.91973 3.00338C3.09013 2.83052 3.33524 2.61112 3.46431 2.51581C3.59343 2.42051 3.81307 2.27547 3.95242 2.19355C4.0918 2.11162 4.33213 1.99094 4.48651 1.92538C4.6409 1.85982 4.91749 1.7651 5.10117 1.71492C5.28484 1.66471 5.54899 1.60904 5.68819 1.59115C5.83535 1.57228 19.0022 1.5609 37.1439 1.56399C67.0687 1.56908 68.3576 1.57199 68.6177 1.63482ZM37.6139 12.1328C37.0571 12.1473 36.3738 12.1782 36.0954 12.2015C35.817 12.2248 35.3207 12.2761 34.9926 12.3157C34.6645 12.3552 34.1544 12.4286 33.859 12.4787C33.5637 12.5288 33.0431 12.6331 32.702 12.7104C32.3611 12.7878 31.818 12.9265 31.4954 13.0187C31.1727 13.1109 30.709 13.2577 30.4649 13.3451C30.2209 13.4324 29.8744 13.5617 29.695 13.6325C29.5157 13.7032 29.2147 13.8291 29.0261 13.9123C28.8376 13.9954 28.445 14.1836 28.1537 14.3303C27.8624 14.4771 27.4881 14.6755 27.3221 14.7713C27.1561 14.8671 26.8168 15.0752 26.5683 15.2337C26.3197 15.3923 25.9338 15.6527 25.7108 15.8124C25.4877 15.9722 25.1216 16.2511 24.8972 16.4322C24.6729 16.6133 24.3022 16.9253 24.0735 17.1254C23.8448 17.3256 23.3564 17.7931 22.9882 18.1644C22.6199 18.5356 22.1465 19.0439 21.9362 19.2939C21.7259 19.5439 21.4069 19.9393 21.2275 20.1726C21.048 20.4058 20.7389 20.8394 20.5406 21.1361C20.3424 21.4328 20.0692 21.8638 19.9336 22.0937C19.798 22.3237 19.5383 22.8064 19.3564 23.1664C19.1746 23.5264 18.9469 24.009 18.8504 24.2388C18.7539 24.4686 18.5949 24.8695 18.497 25.1296C18.3992 25.3898 18.2387 25.8704 18.1403 26.1978C18.0419 26.5252 17.9215 26.9588 17.8727 27.1614C17.8239 27.364 17.7442 27.7179 17.6956 27.9479C17.6469 28.1779 17.5661 28.636 17.516 28.966C17.4658 29.296 17.3959 29.8359 17.3605 30.1659C17.311 30.6281 17.2963 31.0707 17.2963 32.0931C17.2963 33.1174 17.311 33.5571 17.3607 34.0202C17.3961 34.3502 17.4646 34.8746 17.5129 35.1856C17.5612 35.4965 17.6419 35.9547 17.6922 36.2037C17.7425 36.4527 17.8486 36.9053 17.928 37.2094C18.0074 37.5136 18.1551 38.0196 18.2562 38.3338C18.3574 38.648 18.5263 39.1272 18.6316 39.3988C18.7368 39.6703 18.8911 40.048 18.9743 40.238C19.0575 40.428 19.2447 40.8224 19.3903 41.1146C19.5358 41.4067 19.7644 41.8403 19.8982 42.0781C20.0321 42.316 20.3118 42.7712 20.5198 43.0898C20.7279 43.4085 21.0213 43.8339 21.1718 44.0352C21.3224 44.2366 21.6178 44.614 21.8283 44.874C22.0388 45.134 22.5528 45.6916 22.9705 46.1132C23.3882 46.5348 23.9171 47.04 24.1458 47.2358C24.3745 47.4316 24.7731 47.7513 25.0316 47.9463C25.2902 48.1413 25.6969 48.4313 25.9355 48.5909C26.1742 48.7503 26.5728 49.0034 26.8214 49.1532C27.0699 49.303 27.4767 49.5316 27.7253 49.6611C27.9738 49.7908 28.3399 49.972 28.5388 50.064C28.7376 50.1559 28.9735 50.2638 29.063 50.3036C29.1525 50.3435 29.395 50.444 29.602 50.5269C29.809 50.6098 30.2401 50.7663 30.5601 50.8747C30.8802 50.983 31.2803 51.1114 31.4493 51.16C31.6184 51.2086 31.8868 51.2824 32.0459 51.324C32.205 51.3656 32.5141 51.4395 32.7329 51.4883C32.9516 51.5371 33.3095 51.6109 33.5283 51.6523C33.747 51.6937 34.048 51.7444 34.1972 51.765C34.3463 51.7856 34.4927 51.8096 34.5226 51.8182C34.5524 51.8269 34.9266 51.8708 35.3542 51.9157C35.996 51.9832 36.3427 51.9975 37.3427 51.9976C38.2448 51.9978 38.7109 51.9815 39.1686 51.9337C39.5067 51.8984 40.0355 51.829 40.3437 51.7794C40.6519 51.7298 41.0912 51.6498 41.3199 51.6016C41.5486 51.5533 41.9591 51.4557 42.2322 51.3846C42.5053 51.3135 43.026 51.1564 43.3892 51.0354C43.7525 50.9144 44.31 50.7067 44.6282 50.5738C44.9463 50.4408 45.4645 50.2039 45.7795 50.0472C46.0946 49.8905 46.5827 49.6296 46.8642 49.4673C47.1457 49.305 47.5875 49.0327 47.8461 48.8621C48.1046 48.6917 48.5601 48.3689 48.8584 48.145C49.1567 47.9211 49.5972 47.568 49.8373 47.3604C50.0774 47.1528 50.4609 46.8068 50.6895 46.5915C50.9182 46.3762 51.3259 45.959 51.5957 45.6643C51.8655 45.3696 52.215 44.9731 52.3725 44.7831C52.5299 44.5931 52.8192 44.225 53.0153 43.965C53.2115 43.705 53.5446 43.2305 53.7557 42.9105C53.9668 42.5905 54.2557 42.1324 54.3978 41.8924C54.5399 41.6524 54.7865 41.211 54.9458 40.9114C55.1052 40.6119 55.231 40.3623 55.2255 40.3568C55.2201 40.3513 54.8346 40.4429 54.3691 40.5604C53.9035 40.6779 53.2134 40.8495 52.8356 40.9418C52.4577 41.034 52.0022 41.1411 51.8232 41.1799C51.6442 41.2186 51.2782 41.2837 51.0097 41.3247C50.7412 41.3657 50.2826 41.4161 49.9906 41.4367C49.6985 41.4574 49.1697 41.4742 48.8155 41.4741C48.4613 41.474 47.9437 41.4569 47.6653 41.4361C47.3869 41.4152 46.9476 41.366 46.6891 41.3266C46.4305 41.2872 46.0157 41.2123 45.7671 41.16C45.5185 41.1079 45.2012 41.0359 45.062 41.0001C44.9228 40.9643 44.6788 40.8994 44.5197 40.8559C44.3606 40.8124 44.0352 40.7107 43.7966 40.6298C43.558 40.5489 43.1529 40.4004 42.8964 40.2999C42.6399 40.1993 42.1274 39.9668 41.7575 39.7831C41.3876 39.5994 40.8978 39.3377 40.6691 39.2015C40.4404 39.0654 40.0581 38.823 39.8194 38.6629C39.5808 38.5028 39.2237 38.2486 39.0258 38.0981C38.828 37.9476 38.4945 37.678 38.2846 37.4989C38.0748 37.3198 37.6665 36.9343 37.3773 36.6422C37.088 36.35 36.6894 35.9146 36.4914 35.6746C36.2935 35.4347 35.9987 35.057 35.8363 34.8353C35.674 34.6138 35.4474 34.2865 35.3329 34.1081C35.2184 33.9298 35.0194 33.6039 34.8907 33.3839C34.762 33.1639 34.5299 32.7303 34.3748 32.4203C34.2198 32.1103 34.0173 31.6767 33.9247 31.4567C33.8322 31.2368 33.6764 30.8301 33.5785 30.5529C33.4806 30.2759 33.3433 29.8512 33.2734 29.6093C33.2035 29.3674 33.106 28.9897 33.0566 28.7699C33.0073 28.5502 32.9269 28.1322 32.8779 27.841C32.829 27.5498 32.7614 27.0579 32.7278 26.748C32.685 26.3535 32.6667 25.8789 32.667 25.1663C32.6673 24.4519 32.6856 23.9854 32.7286 23.6027C32.7621 23.3027 32.8306 22.8119 32.8806 22.5119C32.9306 22.2119 33.0263 21.7374 33.0934 21.4574C33.1604 21.1774 33.291 20.7029 33.3836 20.4029C33.4762 20.103 33.6678 19.563 33.8094 19.203C33.951 18.843 34.2155 18.254 34.3973 17.894C34.579 17.534 34.8197 17.0879 34.932 16.9026C35.0445 16.7173 35.2534 16.39 35.3963 16.1754C35.5393 15.9607 35.7818 15.6214 35.9353 15.4215C36.0888 15.2215 36.3485 14.9024 36.5123 14.7124C36.6762 14.5224 37.2596 13.8698 37.8087 13.2623C38.3578 12.6547 38.8125 12.1433 38.8191 12.126C38.8258 12.1086 38.7851 12.0971 38.7287 12.1004C38.6724 12.1037 38.1707 12.1183 37.6139 12.1328ZM33.4022 15.3033C33.2084 15.6283 32.9312 16.115 32.7863 16.385C32.6413 16.655 32.4342 17.0641 32.3259 17.2941C32.2175 17.524 32.031 17.9413 31.9114 18.2213C31.7918 18.5012 31.6375 18.8858 31.5686 19.0758C31.4996 19.2657 31.3707 19.6421 31.282 19.9121C31.1933 20.182 31.0491 20.6893 30.9617 21.0393C30.8742 21.3892 30.7615 21.8965 30.7112 22.1665C30.6609 22.4364 30.5854 22.9273 30.5434 23.2573C30.4904 23.673 30.4609 24.1587 30.4473 24.839C30.435 25.4515 30.4438 26.0326 30.4706 26.3838C30.4942 26.6935 30.5445 27.1706 30.5823 27.4441C30.6201 27.7175 30.6855 28.1186 30.7275 28.3355C30.7696 28.5522 30.8587 28.9505 30.9256 29.2205C30.9925 29.4905 31.1125 29.925 31.1923 30.186C31.2722 30.4471 31.4171 30.8725 31.5143 31.1314C31.6115 31.3903 31.7695 31.7904 31.8654 32.0203C31.9612 32.2503 32.2213 32.7985 32.4433 33.2384C32.6653 33.6784 32.9583 34.2266 33.0944 34.4565C33.2305 34.6865 33.4748 35.0801 33.6372 35.3311C33.7995 35.5822 34.0675 35.9749 34.2326 36.2038C34.3977 36.4327 34.6636 36.7837 34.8235 36.9836C34.9833 37.1836 35.2964 37.5518 35.5191 37.8018C35.7419 38.0517 36.1335 38.4613 36.3894 38.7119C36.6453 38.9625 37.0499 39.3308 37.2885 39.5302C37.5271 39.7296 37.8769 40.0094 38.0659 40.1518C38.2548 40.2942 38.6209 40.5497 38.8794 40.7195C39.1379 40.8892 39.5446 41.1396 39.7833 41.2758C40.0219 41.412 40.4449 41.6335 40.7233 41.768C41.0017 41.9026 41.4492 42.1021 41.7176 42.2113C41.9861 42.3206 42.401 42.4758 42.6396 42.5563C42.8782 42.6367 43.1548 42.7278 43.2542 42.7587C43.3537 42.7895 43.6872 42.8798 43.9954 42.9592C44.3037 43.0387 44.7674 43.1448 45.0259 43.195C45.2844 43.2453 45.6586 43.3124 45.8575 43.3443C46.0563 43.3762 46.4468 43.4258 46.7252 43.4547C47.0036 43.4835 47.4673 43.5252 47.7557 43.5474C48.044 43.5696 48.8108 43.5826 49.4597 43.5764L50.6394 43.565L50.5498 43.6741C50.5005 43.7341 50.2504 44.0136 49.994 44.2952C49.7377 44.5768 49.3122 45.0049 49.0485 45.2465C48.7849 45.4882 48.4309 45.7986 48.2618 45.9365C48.0928 46.0744 47.7837 46.3114 47.5749 46.4632C47.3661 46.6151 46.9919 46.869 46.7433 47.0275C46.4947 47.1861 46.1124 47.4198 45.8936 47.5468C45.6749 47.6739 45.1542 47.9452 44.7366 48.1496C44.319 48.3541 43.7496 48.6111 43.4712 48.7207C43.1928 48.8303 42.786 48.9805 42.5673 49.0546C42.3485 49.1287 42.0394 49.2275 41.8803 49.274C41.7212 49.3206 41.4609 49.392 41.3018 49.4327C41.1427 49.4734 40.8173 49.5474 40.5787 49.597C40.3401 49.6467 39.9252 49.7209 39.6567 49.7619C39.3883 49.8028 38.949 49.8556 38.6805 49.8792C38.4121 49.9028 37.7857 49.9222 37.2885 49.9222C36.7914 49.9222 36.165 49.9029 35.8965 49.8794C35.628 49.8558 35.1806 49.8031 34.9022 49.7621C34.6238 49.7211 34.1927 49.6469 33.9441 49.597C33.6955 49.5471 33.2378 49.4425 32.9271 49.3647C32.6163 49.2867 32.2502 49.188 32.1136 49.1451C31.9769 49.1023 31.6699 49.001 31.4312 48.9201C31.1926 48.8391 30.8103 48.6999 30.5816 48.6108C30.3529 48.5217 29.9499 48.3503 29.686 48.2298C29.4221 48.1093 28.9909 47.8966 28.7278 47.7571C28.4648 47.6176 28.1112 47.4201 27.9422 47.3182C27.7732 47.2164 27.4559 47.0162 27.2372 46.8734C27.0184 46.7305 26.6117 46.4409 26.3333 46.2297C26.0549 46.0185 25.6371 45.6807 25.4049 45.479C25.1727 45.2772 24.7678 44.8959 24.5053 44.6315C24.2427 44.367 23.8658 43.9616 23.6678 43.7306C23.4697 43.4995 23.1652 43.1223 22.991 42.8923C22.8168 42.6623 22.5278 42.2533 22.3487 41.9833C22.1696 41.7133 21.9054 41.2879 21.7616 41.0379C21.6178 40.7879 21.3644 40.3052 21.1985 39.9653C21.0325 39.6253 20.821 39.1589 20.7284 38.929C20.6358 38.699 20.4967 38.3343 20.4193 38.1187C20.3418 37.903 20.2059 37.4776 20.1174 37.1733C20.0288 36.869 19.922 36.4728 19.8801 36.2928C19.8382 36.1128 19.7645 35.761 19.7165 35.511C19.6685 35.261 19.5963 34.8111 19.5561 34.5111C19.5159 34.2111 19.4665 33.7366 19.4463 33.4566C19.4262 33.1766 19.4097 32.6039 19.4097 32.184C19.4097 31.764 19.4261 31.1913 19.4461 30.9113C19.4661 30.6313 19.5242 30.1077 19.5752 29.7478C19.6262 29.3878 19.7154 28.8624 19.7735 28.5803C19.8315 28.2982 19.9364 27.8441 20.0066 27.5713C20.0767 27.2984 20.2167 26.8175 20.3178 26.5025C20.4188 26.1875 20.5993 25.6844 20.7189 25.3844C20.8384 25.0844 21.0712 24.5608 21.236 24.2209C21.4009 23.8809 21.6528 23.3988 21.7959 23.1496C21.9389 22.9004 22.1868 22.4995 22.3467 22.2587C22.5066 22.018 22.7717 21.641 22.936 21.4211C23.1002 21.2011 23.3692 20.8575 23.5338 20.6575C23.6984 20.4575 24.1678 19.9576 24.577 19.5465C24.9861 19.1355 25.5324 18.6266 25.7909 18.4157C26.0494 18.2047 26.4409 17.9007 26.6609 17.7401C26.8808 17.5795 27.2631 17.3178 27.5105 17.1585C27.7579 16.9992 28.2006 16.7335 28.4944 16.568C28.7882 16.4026 29.2844 16.1486 29.5972 16.0036C29.9099 15.8586 30.3535 15.6657 30.5828 15.575C30.8123 15.4842 31.1295 15.3666 31.2879 15.3136C31.4463 15.2606 31.706 15.1787 31.8651 15.1315C32.0242 15.0844 32.2601 15.0176 32.3894 14.9831C32.5186 14.9486 32.8359 14.8748 33.0944 14.8192C33.3529 14.7636 33.6072 14.7168 33.6595 14.7152C33.7511 14.7125 33.7417 14.734 33.4022 15.3033ZM42.7908 17.694C42.779 17.724 42.6392 18.174 42.48 18.694C42.3208 19.2139 42.0932 19.9655 41.9743 20.3642C41.8553 20.7628 41.7272 21.131 41.6897 21.1823C41.6521 21.2336 41.5657 21.3039 41.4978 21.3385C41.4298 21.373 40.8698 21.5426 40.2533 21.7153C39.6368 21.8879 38.9128 22.094 38.6444 22.1732C38.3759 22.2524 38.1318 22.3255 38.102 22.3357C38.0653 22.3482 38.0934 22.378 38.1893 22.4279C38.2671 22.4684 38.4217 22.5309 38.5328 22.5667C38.6439 22.6025 38.8975 22.6817 39.0963 22.7425C39.2952 22.8034 39.7589 22.9447 40.1268 23.0565C40.4946 23.1684 40.9527 23.3085 41.1446 23.3679C41.428 23.4555 41.5142 23.4995 41.6039 23.6023C41.6646 23.6718 41.7305 23.7904 41.7503 23.8657C41.77 23.9411 41.8698 24.3054 41.9719 24.6754C42.074 25.0454 42.2638 25.708 42.3938 26.148C42.5237 26.588 42.6413 26.9604 42.6552 26.9757C42.669 26.991 42.7178 26.9633 42.7637 26.9142C42.8237 26.85 42.9683 26.4285 43.2783 25.4138C43.5155 24.6377 43.7524 23.9163 43.8047 23.8108C43.8594 23.7005 43.9471 23.5899 44.0109 23.5508C44.072 23.5135 44.3986 23.4003 44.7366 23.2994C45.0747 23.1985 45.6442 23.0318 46.0021 22.929C46.36 22.8262 46.8072 22.6923 46.9958 22.6316L47.3388 22.5212L47.2211 22.4224C47.1312 22.3469 46.7768 22.2223 45.7212 21.8951C44.9609 21.6594 44.2562 21.4357 44.1551 21.398C44.0539 21.3603 43.9386 21.2928 43.8987 21.248C43.8588 21.2032 43.8 21.0765 43.7681 20.9665C43.7361 20.8565 43.6034 20.3738 43.4731 19.8939C43.3428 19.4139 43.1802 18.833 43.1118 18.6031C43.0433 18.3731 42.9479 18.0622 42.8998 17.9122C42.8482 17.7515 42.8034 17.6619 42.7908 17.694ZM49.3107 25.8844C49.2459 26.0294 49.1624 26.2364 49.1252 26.3444C49.0879 26.4524 49.0394 26.6896 49.0174 26.8716C48.9954 27.0536 48.9363 27.3058 48.886 27.432C48.8308 27.5709 48.7238 27.7396 48.6153 27.8589C48.4931 27.9934 48.3535 28.0967 48.1772 28.1833C48.0166 28.2622 47.7606 28.3435 47.5026 28.3978C47.2739 28.4459 46.9167 28.5532 46.7087 28.6362C46.5008 28.7192 46.3243 28.7935 46.3166 28.8013C46.3088 28.8091 46.3713 28.8508 46.4554 28.894C46.5396 28.9372 46.8347 29.037 47.1112 29.1158C47.3877 29.1946 47.7784 29.2922 47.9795 29.3327C48.1805 29.3733 48.4047 29.4371 48.4777 29.4745C48.5506 29.5119 48.6695 29.6084 48.7419 29.689C48.8335 29.791 48.897 29.916 48.951 30.1007C48.9936 30.2466 49.074 30.5132 49.1296 30.6932C49.1852 30.8731 49.2916 31.1963 49.3661 31.4113C49.4739 31.7225 49.5155 31.8022 49.5699 31.8022C49.616 31.8022 49.6597 31.7517 49.7039 31.6476C49.7399 31.5626 49.8202 31.3131 49.8823 31.0931C49.9444 30.8731 50.0452 30.4886 50.1062 30.2386C50.1673 29.9887 50.244 29.7215 50.2767 29.6451C50.3159 29.5534 50.3808 29.4831 50.4672 29.4388C50.5393 29.4018 50.6949 29.3461 50.813 29.315C50.9311 29.2839 51.3206 29.1613 51.6786 29.0424C52.0365 28.9236 52.4095 28.7903 52.5074 28.7462L52.6853 28.6662L52.4712 28.5782C52.3534 28.5298 52.0862 28.4435 51.8774 28.3863C51.6686 28.3291 51.2538 28.2135 50.9555 28.1293C50.5056 28.0023 50.3936 27.9567 50.2987 27.862C50.2054 27.769 50.1498 27.6373 49.9975 27.1479C49.8948 26.818 49.7776 26.4498 49.737 26.3298C49.6965 26.2098 49.622 26.0012 49.5716 25.8662C49.5211 25.7312 49.4682 25.6208 49.4541 25.6208C49.44 25.6208 49.3755 25.7394 49.3107 25.8844Z" fill="#38B2B8"/>
</svg>
