<svg width="59" height="82" viewBox="0 0 59 82" fill="none" xmlns="http://www.w3.org/2000/svg">
<path d="M41.418 32.6162C46.6887 34.3772 50.9367 37.2484 54.162 41.2297C57.3873 45.1345 59 49.7666 59 55.126C59 63.5481 56.0893 70.1326 50.268 74.8796C44.4467 79.6265 37.3273 82 28.91 82C22.3807 82 16.52 80.5453 11.328 77.6359C6.21467 74.7264 2.43867 70.4388 0 64.7731L16.284 55.5854C18.3293 61.2512 22.538 64.084 28.91 64.084C32.6073 64.084 35.4 63.2418 37.288 61.5574C39.176 59.873 40.12 57.7292 40.12 55.126C40.12 52.5229 39.176 50.3791 37.288 48.6947C35.4 47.0103 32.6073 46.1681 28.91 46.1681H25.016L17.818 35.7171L32.804 17.2269H2.596V0H55.696V14.93L41.418 32.6162Z" fill="#17586A"/>
</svg>
