<svg width="46" height="64" viewBox="0 0 46 64" fill="none" xmlns="http://www.w3.org/2000/svg">
<path d="M32.292 25.4566C36.4013 26.831 39.7133 29.0719 42.228 32.1793C44.7427 35.2269 46 38.8422 46 43.0252C46 49.5985 43.7307 54.7376 39.192 58.4426C34.6533 62.1475 29.1027 64 22.54 64C17.4493 64 12.88 62.8646 8.832 60.5938C4.84533 58.3231 1.90133 54.9767 0 50.5546L12.696 43.3838C14.2907 47.8058 17.572 50.0168 22.54 50.0168C25.4227 50.0168 27.6 49.3595 29.072 48.0448C30.544 46.7302 31.28 45.057 31.28 43.0252C31.28 40.9935 30.544 39.3203 29.072 38.0056C27.6 36.6909 25.4227 36.0336 22.54 36.0336H19.504L13.892 27.8768L25.576 13.4454H2.024V0H43.424V11.6527L32.292 25.4566Z" fill="#C3E8EA"/>
</svg>
