<svg width="43" height="64" viewBox="0 0 43 64" fill="none" xmlns="http://www.w3.org/2000/svg">
<path d="M0.623188 64V53.6022L21.5445 31.7311C25.7585 27.3688 27.8654 23.6639 27.8654 20.6162C27.8654 18.6443 27.2719 17.0607 26.0849 15.8655C24.8979 14.6106 23.2657 13.9832 21.1884 13.9832C17.0338 13.9832 13.9772 16.254 12.0186 20.7955L0 13.7143C1.89924 9.23249 4.7481 5.82633 8.54658 3.4958C12.3451 1.16527 16.4997 0 21.0104 0C26.8268 0 31.7826 1.8226 35.8778 5.46779C40.0324 9.05322 42.1097 13.8936 42.1097 19.9888C42.1097 26.6218 38.8751 33.1951 32.4058 39.7087L22.0787 50.1961H43V64H0.623188Z" fill="#C3E8EA"/>
</svg>
