<svg width="22" height="55" viewBox="0 0 22 55" fill="none" xmlns="http://www.w3.org/2000/svg">
<path fill-rule="evenodd" clip-rule="evenodd" d="M7.3502 0.283753C6.6628 0.432976 5.641 0.804735 5.0794 1.11017C4.5178 1.41541 3.6466 2.02709 3.1436 2.46936C2.6404 2.91184 1.8988 3.7836 1.4956 4.40666C1.0924 5.02992 0.5932 6.10944 0.3864 6.80562C0.0419998 7.96484 0.0098002 8.86178 0.0052002 17.4602L0 26.8491L0.5538 28.4128C0.8584 29.2728 1.4076 30.4414 1.7742 31.0097C2.1408 31.578 2.9266 32.4981 3.5204 33.0547C4.1142 33.6112 5.005 34.301 5.5 34.5879C5.995 34.8745 6.985 35.3096 7.7 35.5545C8.7054 35.8991 9.4532 36 11 36C12.5468 36 13.2946 35.8991 14.3 35.5545C15.015 35.3096 16.005 34.8745 16.5 34.5879C16.995 34.301 17.8858 33.6112 18.4796 33.0547C19.0734 32.4981 19.8592 31.578 20.2258 31.0097C20.5924 30.4414 21.1416 29.2728 21.4462 28.4128L22 26.8491L21.9948 17.4602C21.9902 8.86178 21.958 7.96484 21.6136 6.80562C21.4068 6.10944 20.9076 5.02992 20.5044 4.40666C20.1012 3.7836 19.3596 2.91184 18.8564 2.46936C18.3534 2.02709 17.485 1.41701 16.927 1.11357C16.3688 0.810128 15.302 0.432776 14.556 0.274763C13.7966 0.114154 12.188 -0.00670311 10.9 0.000288596C9.635 0.00708054 8.0376 0.134729 7.3502 0.283753ZM10.3 2.4348C10.3 3.40345 10.2488 3.52071 9.6802 3.85612C9.3392 4.05728 8.9342 4.52332 8.7802 4.89169C8.58 5.37032 8.5002 6.46123 8.5008 8.71416C8.5014 11.5112 8.5464 11.9405 8.9002 12.52C9.1196 12.8794 9.5242 13.2759 9.7996 13.4012C10.2706 13.6155 10.3 13.7196 10.3 15.1705C10.3 16.3333 10.3778 16.7766 10.6168 16.9748C10.8462 17.1647 11.0254 17.1795 11.2668 17.0281C11.5234 16.8669 11.6132 16.4518 11.6576 15.2204C11.711 13.7418 11.7522 13.6052 12.208 13.3978C12.4792 13.2743 12.8804 12.8794 13.0998 12.52C13.4536 11.9405 13.4986 11.5112 13.4992 8.71416C13.4998 6.46123 13.42 5.37032 13.2198 4.89169C13.0658 4.52332 12.6608 4.05728 12.3198 3.85612C11.7486 3.51932 11.7 3.40605 11.7 2.41383V1.3369L13.2544 1.40802C14.5118 1.46555 15.0596 1.60259 16.1222 2.12517C16.9446 2.52949 17.8258 3.18291 18.4788 3.8725C19.0524 4.47838 19.7548 5.48259 20.0398 6.10425C20.3702 6.82539 20.5932 7.72852 20.6556 8.59809C20.7516 9.9385 20.741 9.97526 20.035 10.7557C19.5574 11.2837 19.175 12.016 18.8936 12.9413C18.6608 13.7066 18.4096 15.1713 18.3352 16.1961C18.2608 17.2211 18.2586 18.8903 18.33 19.9059C18.4016 20.9213 18.653 22.3859 18.8884 23.1606C19.1726 24.0947 19.5552 24.8328 20.0242 25.3514C20.7292 26.1307 20.731 26.1373 20.5112 27.1904C20.39 27.7718 20.0298 28.7632 19.7108 29.3934C19.392 30.0237 18.7986 30.9446 18.3922 31.44C17.986 31.9352 17.115 32.6997 16.4568 33.1388C15.7986 33.5777 14.6744 34.1176 13.959 34.3384C13.0992 34.6035 12.0954 34.7397 11 34.7397C9.9046 34.7397 8.9008 34.6035 8.041 34.3384C7.3256 34.1176 6.2014 33.5777 5.5432 33.1388C4.885 32.6997 4.0184 31.9406 3.6174 31.4518C3.2164 30.963 2.6284 30.0694 2.3106 29.4661C1.9928 28.8629 1.6284 27.8662 1.5006 27.2514L1.2682 26.1335L1.9758 25.3514C2.4422 24.8356 2.8274 24.0953 3.1064 23.1776C3.3392 22.4123 3.5904 20.9476 3.6648 19.9229C3.7392 18.8979 3.7414 17.2287 3.67 16.2131C3.5984 15.1977 3.347 13.733 3.1116 12.9583C2.8252 12.0164 2.4452 11.2865 1.965 10.7557C1.259 9.97526 1.2484 9.9385 1.3444 8.59809C1.4064 7.73452 1.6296 6.82579 1.9532 6.11983C2.2342 5.50656 2.8492 4.58765 3.3196 4.07785C3.7902 3.56806 4.441 2.96178 4.766 2.73065C5.091 2.49952 5.8616 2.103 6.4784 1.8495C7.2624 1.52748 8.0064 1.38724 8.95 1.38405L10.3 1.37925V2.4348ZM11.9886 5.2193C12.2364 5.57248 12.3 6.26766 12.3 8.62426C12.3 11.5018 12.2862 11.5991 11.809 12.0756C11.539 12.3452 11.175 12.566 11 12.566C10.825 12.566 10.461 12.3452 10.191 12.0756C9.7138 11.5991 9.7 11.5018 9.7 8.62426C9.7 6.26766 9.7636 5.57248 10.0114 5.2193C10.2288 4.90907 10.5268 4.77523 11 4.77523C11.4732 4.77523 11.7712 4.90907 11.9886 5.2193ZM2.1824 14.4098C2.3572 15.2542 2.5 16.8967 2.5 18.0595C2.5 19.2223 2.3572 20.8647 2.1824 21.7091C2.0078 22.5537 1.7414 23.4713 1.5904 23.7483C1.353 24.1844 1.316 23.4197 1.316 18.0595C1.316 12.6992 1.353 11.9345 1.5904 12.3706C1.7414 12.6477 2.0078 13.5652 2.1824 14.4098ZM20.6552 21.0935L20.6 24.2521L20.1268 22.8538C19.7604 21.7707 19.6306 20.8663 19.5518 18.8423C19.475 16.8661 19.5312 15.8295 19.7826 14.5902C19.9654 13.6889 20.2242 12.7116 20.3576 12.4186C20.5626 11.9679 20.6086 12.3522 20.6552 14.9102C20.6854 16.5736 20.6854 19.3561 20.6552 21.0935Z" fill="#38B2B8"/>
<path d="M6 41L11.5 46L17 41" stroke="#38B2B8" stroke-width="1.5" stroke-linecap="round"/>
<path d="M6 48L11.5 53L17 48" stroke="#38B2B8" stroke-width="1.5" stroke-linecap="round"/>
</svg>
