<svg width="42" height="50" viewBox="0 0 42 50" fill="none" xmlns="http://www.w3.org/2000/svg">
<path fill-rule="evenodd" clip-rule="evenodd" d="M23.8873 0.174293C23.572 0.285203 23.1376 0.486797 22.9218 0.622138C22.7062 0.757478 22.345 1.0605 22.1192 1.29562C21.8935 1.53063 21.5981 1.93479 21.4629 2.19375C21.3278 2.4527 21.2123 2.67677 21.2062 2.69172C21.2002 2.70668 20.9788 2.61081 20.7142 2.4787C20.4496 2.34658 19.938 2.18437 19.5773 2.11831C19.0795 2.02714 18.7626 2.0244 18.2614 2.10688C17.8984 2.16668 17.3645 2.33085 17.075 2.47176C16.7855 2.61257 16.3145 2.94052 16.0284 3.20045C15.7423 3.46048 15.3832 3.90139 15.2306 4.18027C15.0778 4.45916 14.8923 4.91385 14.8182 5.19059C14.7072 5.60501 14.6832 8.02727 14.6822 18.9134C14.6813 30.0898 14.6595 32.1842 14.542 32.4641C14.4654 32.6461 14.3136 32.8426 14.2044 32.9007C14.0953 32.9588 13.848 33.0062 13.6549 33.0062C13.397 33.0062 12.4109 32.562 9.93806 31.3319C8.08689 30.4111 6.28734 29.5508 5.9391 29.4203C5.45769 29.2397 5.11073 29.1822 4.49122 29.1806C3.97658 29.1791 3.48828 29.2405 3.16541 29.3471C2.8843 29.4399 2.49645 29.6052 2.30352 29.7145C2.11058 29.8238 1.76991 30.0583 1.5464 30.2355C1.32289 30.4128 0.977705 30.8009 0.779261 31.0981C0.580915 31.3953 0.32969 31.8912 0.221082 32.2002C0.0808242 32.5989 0.0182146 33.0503 0.00524059 33.7551C-0.0119599 34.6906 0.0012103 34.7636 0.232679 35.0151C0.367826 35.162 3.08795 37.7059 6.27741 40.6684C9.46686 43.6308 12.4223 46.3537 12.845 46.7191C13.2678 47.0847 13.924 47.5834 14.3033 47.8273C14.6826 48.0712 15.3983 48.4612 15.8935 48.6938C16.3889 48.9265 17.1361 49.2305 17.5539 49.3694C17.9717 49.5083 18.844 49.7115 19.4922 49.8209C20.6101 50.0097 20.9935 50.0181 26.9396 49.985L33.2084 49.9501L34.1231 49.6869C34.6262 49.5422 35.373 49.2699 35.7826 49.0818C36.1921 48.8936 36.8873 48.5015 37.3274 48.2104C37.7673 47.9193 38.5028 47.2925 38.9616 46.8175C39.4204 46.3426 39.9651 45.6988 40.172 45.387C40.3789 45.0751 40.7402 44.4155 40.9748 43.9212C41.2096 43.4269 41.4955 42.6542 41.6103 42.2042C41.7251 41.7541 41.8594 40.9406 41.9088 40.3964C41.9582 39.8521 41.9992 36.9883 42 34.0323C42.0008 30.9344 41.9594 28.368 41.9023 27.9737C41.8479 27.5975 41.7145 27.0528 41.6058 26.7634C41.4971 26.4739 41.2502 26.0005 41.0572 25.7113C40.8642 25.4221 40.4567 24.9638 40.1517 24.6927C39.6978 24.2894 38.6744 23.7396 34.5155 21.6648L29.4339 19.1297L29.4044 11.2391L29.375 3.34859L29.1472 2.78778C29.022 2.47928 28.7748 2.01756 28.598 1.76173C28.4211 1.50581 28.0523 1.11435 27.7784 0.891646C27.5044 0.668945 27.0219 0.38771 26.706 0.266637C26.324 0.120254 25.8518 0.0341638 25.2962 0.00953862C24.6338 -0.0198747 24.342 0.0143268 23.8873 0.174293ZM26.0137 2.28463C26.1867 2.3713 26.4732 2.57896 26.6503 2.74615C26.8439 2.92879 27.0302 3.24344 27.1172 3.53465C27.2395 3.94419 27.262 5.2588 27.262 12.0193C27.262 19.0167 27.2808 20.0557 27.4126 20.3092C27.5413 20.5565 28.3548 20.9923 32.9711 23.2874C36.9858 25.2833 38.4911 26.0788 38.8141 26.3748C39.0533 26.594 39.3717 27.0216 39.5215 27.3247L39.7937 27.876V34.3254C39.7937 40.2474 39.7792 40.8269 39.616 41.4101C39.5182 41.7594 39.3499 42.2844 39.2418 42.5767C39.1338 42.869 38.8954 43.3747 38.712 43.7005C38.5285 44.0262 38.1408 44.579 37.8504 44.9287C37.5599 45.2786 36.9938 45.8144 36.5923 46.1197C36.1907 46.425 35.5526 46.8262 35.1742 47.0114C34.7958 47.1967 34.1765 47.4502 33.7981 47.5749C33.1131 47.8007 33.0841 47.8018 26.9671 47.8365C22.7191 47.8606 20.5843 47.837 20.0471 47.7601C19.6197 47.699 18.89 47.5396 18.4253 47.406C17.9607 47.2723 17.1789 46.9676 16.6879 46.7289C16.197 46.4901 15.4451 46.0389 15.017 45.7261C14.589 45.4134 11.5186 42.6331 8.19403 39.5476L2.1493 33.9378L2.1666 33.5051C2.17603 33.2672 2.25604 32.8845 2.34431 32.6547C2.43257 32.4249 2.67731 32.082 2.88813 31.8926C3.11862 31.6856 3.48966 31.4853 3.81843 31.3902C4.25758 31.2632 4.46134 31.2526 4.85184 31.3358C5.12016 31.393 6.98096 32.2576 9.00216 33.2642C12.6369 35.0744 12.6721 35.0893 13.4158 35.1344C13.9587 35.1673 14.3033 35.1342 14.666 35.0145C14.9564 34.9186 15.372 34.6656 15.6557 34.412C15.9246 34.1716 16.2381 33.8245 16.3524 33.6406C16.4668 33.4567 16.612 33.1619 16.6753 32.9852C16.7602 32.7486 16.8039 29.0948 16.8415 19.0729L16.8925 5.4816L17.1755 5.07577C17.3611 4.80949 17.6413 4.58092 17.9901 4.41128C18.4424 4.19132 18.6048 4.16112 19.0779 4.20969C19.4646 4.24936 19.7553 4.35148 20.0324 4.54486C20.2515 4.69789 20.5415 5.01899 20.6766 5.25841L20.9224 5.69384L20.9715 12.925C20.9985 16.9022 21.0575 20.2306 21.1026 20.3214C21.1477 20.4122 21.2966 20.5595 21.4336 20.6487C21.5706 20.7379 21.8378 20.8109 22.0276 20.8109C22.2174 20.8109 22.4886 20.7254 22.6304 20.621C22.7721 20.5165 22.9409 20.2813 23.0055 20.0982C23.0925 19.8512 23.1242 17.691 23.1283 11.7249C23.1332 4.69701 23.153 3.63872 23.286 3.3224C23.3696 3.12325 23.5355 2.85501 23.6546 2.72632C23.7736 2.59752 24.0479 2.41098 24.2642 2.31179C24.4865 2.20977 24.8837 2.13043 25.1782 2.12925C25.4659 2.12808 25.8399 2.19766 26.0137 2.28463Z" fill="#38B2B8"/>
<path d="M4.24802 13.0852V4.63385C4.35981 4.42257 4.76226 4 5.47771 4C6.19317 4 6.59561 4.42257 6.70741 4.63385V13.1908V21.3253L7.83773 20.2442C8.50143 19.6056 9.1638 19.0063 9.30953 18.9126C9.45527 18.8188 9.74518 18.7417 9.95382 18.7414C10.2368 18.7409 10.4106 18.8141 10.638 19.0293C10.8056 19.1881 10.9632 19.4192 10.9882 19.5428C11.0131 19.6665 10.9973 19.9003 10.9529 20.0624C10.8971 20.2662 10.1119 21.0731 8.40693 22.6786C5.95124 24.9909 5.93978 25 5.49493 25C5.0504 25 5.03676 24.9891 2.62962 22.7261C1.29942 21.4755 0.163499 20.3699 0.105453 20.2693C0.0475104 20.1686 0 19.9427 0 19.7672C0 19.5919 0.0749843 19.3399 0.166701 19.2074C0.258417 19.0749 0.451146 18.9157 0.595021 18.8536C0.738896 18.7915 0.992356 18.7407 1.15823 18.7407C1.36862 18.7407 1.62466 18.8767 2.00547 19.1907C2.30551 19.4381 2.95703 20.036 3.4531 20.5191L4.24802 21.3253V13.0852Z" fill="#38B2B8"/>
</svg>
